/* XPM */
static char *result[] = {
/* columns rows colors chars-per-pixel */
"32 32 161 2 ",
"   c #0D132B",
".  c #11162C",
"X  c #18182D",
"o  c #141A33",
"O  c #1B1E35",
"+  c #261E33",
"@  c #281E31",
"#  c #1C2139",
"$  c #2D2234",
"%  c #21283F",
"&  c #2B283D",
"*  c #282338",
"=  c #312436",
"-  c #392736",
";  c #3A2837",
":  c #362938",
">  c #3B2B3A",
",  c #37323F",
"<  c #472A38",
"1  c #43323F",
"2  c #1E2D45",
"3  c #1E374D",
"4  c #1E394F",
"5  c #232843",
"6  c #2A2E4A",
"7  c #252841",
"8  c #3C3543",
"9  c #37354B",
"0  c #2D3352",
"q  c #303552",
"w  c #333855",
"e  c #363C5C",
"r  c #3A3F5E",
"t  c #453C46",
"y  c #4A3D47",
"u  c #5E3746",
"i  c #5E3A43",
"p  c #573342",
"a  c #483F50",
"s  c #673844",
"d  c #3C425D",
"f  c #3B4060",
"g  c #3C5F79",
"h  c #4C414A",
"j  c #5B434A",
"k  c #41435B",
"l  c #4F4655",
"z  c #554750",
"x  c #534B5C",
"c  c #5B4C59",
"v  c #554959",
"b  c #664A4F",
"n  c #73424C",
"m  c #7A474B",
"M  c #7A4A4D",
"N  c #6A4B5C",
"B  c #654853",
"V  c #7D4E52",
"C  c #66545F",
"Z  c #454662",
"A  c #494F68",
"S  c #5D5462",
"D  c #5D5669",
"F  c #435873",
"G  c #555F79",
"H  c #645B6D",
"J  c #6A5F6F",
"K  c #685661",
"L  c #7A5863",
"P  c #556079",
"I  c #6B606F",
"U  c #796260",
"Y  c #7E646D",
"T  c #6D6173",
"R  c #84444D",
"E  c #894A54",
"W  c #965554",
"Q  c #995957",
"!  c #97555A",
"~  c #A45D59",
"^  c #A5625D",
"/  c #BC675F",
"(  c #8A5662",
")  c #815B69",
"_  c #83696D",
"`  c #986769",
"'  c #8B706F",
"]  c #97776E",
"[  c #8D6D71",
"{  c #8E797C",
"}  c #9E7C73",
"|  c #927B7D",
" . c #A66A64",
".. c #B96C65",
"X. c #B2746C",
"o. c #A06770",
"O. c #A46F79",
"+. c #A17E74",
"@. c #A47379",
"#. c #AF7A79",
"$. c #B47775",
"%. c #C97A6D",
"&. c #C1726A",
"*. c #A9847C",
"=. c #BD8A7B",
"-. c #D38876",
";. c #C8907E",
":. c #E0947E",
">. c #3D778D",
",. c #5F6E85",
"<. c #8F7F8B",
"1. c #3D8196",
"2. c #458598",
"3. c #5F8699",
"4. c #5B91A0",
"5. c #649BAD",
"6. c #779DAA",
"7. c #6EADBE",
"8. c #6FB7C9",
"9. c #72B7C9",
"0. c #868C97",
"q. c #AC8B85",
"w. c #A88680",
"e. c #B19EA9",
"r. c #9CAAB6",
"t. c #B8A5AD",
"y. c #AFB2BD",
"u. c #B0B2BD",
"i. c #C69A86",
"p. c #CA9C86",
"a. c #CC9E8A",
"s. c #C69386",
"d. c #D69883",
"f. c #D19E88",
"g. c #CFA08C",
"h. c #D7A78E",
"j. c #C8A497",
"k. c #D3A693",
"l. c #D2A895",
"z. c #DEAC94",
"x. c #DBAB95",
"c. c #E7A88D",
"v. c #ECAD92",
"b. c #F2AE92",
"n. c #E1B198",
"m. c #F3BE9E",
"M. c #FBBA99",
"N. c #C5A5AB",
"B. c #C2B4B6",
"V. c #F4BEA0",
"C. c #FBC3A1",
"Z. c #FFCEA9",
"A. c #FFCCA7",
"S. c #AEB8C4",
"D. c #B8B7C1",
"F. c #CFBFC7",
"G. c #BFD8E3",
"H. c #CEC1C8",
"J. c #EAEBF2",
"K. c #E7EAF2",
"L. c None",
/* pixels */
"L.L.L.L.L.L.L.L.L.L.. . . . . . . . . . . . L.L.L.L.L.L.L.L.L.L.",
"L.L.L.L.L.L.L.L.L.L.# # % # # O # # # # # # L.L.L.L.L.L.L.L.L.L.",
"L.L.L.L.L.L.L.L.. O 6 0 q q q q q q q q q 6 O . L.L.L.L.L.L.L.L.",
"L.L.L.L.L.L.L.L.O 5 q f r r r f f f f f f w 5 O L.L.L.L.L.L.L.L.",
"L.L.L.L.L.L.. # 6 w e f r r r r r r r r r r w 6 # . L.L.L.L.L.L.",
"L.L.L.L.L.L.. # q f d r r r r r r r e r r r f q # . L.L.L.L.L.L.",
"L.L.L.L.L.L.. # 0 f r r r r r r r r e e r r r q # . L.L.L.L.L.L.",
"L.L.L.L.L.L.. # 9 r r r r r r r r Z D D Z e e 0 # . L.L.L.L.L.L.",
"L.L.L.L.L.L.. O q r r r r r r e e H q.q.D e e 0 # . L.L.L.L.L.L.",
"L.L.L.L.L.L.. % q r r r r r r r e T l.n.{ J J x & . L.L.L.L.L.L.",
"L.L.L.L.L.L.. # q r r r r d r e e J k.C.n.k.k.+.8   L.L.L.L.L.L.",
"L.L.L.L.L.L.. # q r r r e e e e e D *.a.a.z.m.i.h   L.L.L.L.L.L.",
"L.L.L.L.L.L.. # q r r r e e e e e k v c c [ n.p.h   L.L.L.L.L.L.",
"L.L.L.L.L.L.. # q r r Z D J T D Z d v a 7 c a.p.h   L.L.L.L.L.L.",
"L.L.L.L.L.L.. # w f e D q.k.x.w.D D w.} 8 h i.i.h   L.L.L.L.L.L.",
"L.L.L.L.L.L.. # 6 q e J k.C.M.s.D H j.i.t t =.;.y   L.L.L.L.L.L.",
"L.L.L.L.L.L.L.L.# 5 0 T k.M.d. .v H k.i.1 > ^  ., . L.L.L.L.L.L.",
"L.L.L.L.L.L.L.L.  o 5 c #.d.-.$.Y { z.h.U j V M : . L.L.L.L.L.L.",
"L.L.L.L.L.L.        o & B ` d.v.x.z.V.V.h.*.j = L.L.L.L.L.L.L.L.",
"L.L.L.L.L.L.t h h h y z C [ s.v.b.c.p.f.v.;.b = L.L.L.L.L.L.L.L.",
"L.L.L.L.  8 } i.i.i.i.j.B.t.#.X.%. .b b X.%.^ M : . L.L.L.L.L.L.",
"L.L.L.L.  h i.A.A.m.h.j.B.e.o.! $.@.K v V ~ / Q , . L.L.L.L.L.L.",
"L.L.L.L.  h i.Z.Z.h.U z K L E o.N.H.D.0.l 1 ~ Q > . L.L.L.L.L.L.",
"L.L.L.L.  t *.p.p.] > X < s R O.F.J.J.u.d $ m R > . L.L.L.L.L.L.",
"L.L.L.L.L.L.y h a 8 O @ s R E O.H.K.J.u.k . $ : L.L.L.L.L.L.L.L.",
"L.L.L.L.L.L.  . + + 7 9 N ) ) 0.S.G.H.r.S : : > L.L.L.L.L.L.L.L.",
"L.L.L.L.L.L.  @ u B A F G ,.3.5.8.8.9.6.' W W M > . L.L.L.L.L.L.",
"L.L.L.L.L.L.. = n ( T P F g >.>.1.2.3.6.X./ ~ m = . L.L.L.L.L.L.",
"L.L.L.L.L.L.. = n ( ( N 9 2 3 4 3 d _ X.&.~ i & O . L.L.L.L.L.L.",
"L.L.L.L.L.L.  = u n s s $ . .     = m Q W M :   . o L.L.L.L.L.L.",
"L.L.L.L.L.L.L.L.= = = $ L.L.L.L.L.L.; > > > L.L.L.L.L.L.L.L.L.L.",
"L.L.L.L.L.L.L.L.  . . . L.L.L.L.L.L.. .     L.L.L.L.L.L.L.L.L.L."
};
