/* XPM */
static char *result[] = {
/* columns rows colors chars-per-pixel */
"32 32 147 2 ",
"   c #0E142B",
".  c #11162C",
"X  c #14182E",
"o  c #1B1A2F",
"O  c #151C34",
"+  c #1B1E35",
"@  c #221D31",
"#  c #1C2139",
"$  c #202034",
"%  c #2C2235",
"&  c #28283D",
"*  c #312437",
"=  c #382736",
"-  c #30263C",
";  c #3A2A39",
":  c #442C3D",
">  c #492E3D",
",  c #43323F",
"<  c #48303D",
"1  c #1C2942",
"2  c #1C334B",
"3  c #1E3950",
"4  c #212641",
"5  c #222B43",
"6  c #2A2B43",
"7  c #252C48",
"8  c #2A2E4A",
"9  c #332F4A",
"0  c #22374D",
"q  c #363146",
"w  c #3C3542",
"e  c #2D3352",
"r  c #203A50",
"t  c #293D52",
"y  c #303552",
"u  c #333855",
"i  c #363C5C",
"p  c #3A3F5E",
"a  c #433141",
"s  c #443A45",
"d  c #4B3E47",
"f  c #4C3F48",
"g  c #5C3746",
"h  c #5F3945",
"j  c #513344",
"k  c #483F50",
"l  c #613745",
"z  c #613947",
"x  c #643B49",
"c  c #683C4A",
"v  c #713E4B",
"b  c #30445F",
"n  c #3B405F",
"m  c #3B4060",
"M  c #3B4A63",
"N  c #3E5571",
"B  c #3C5F79",
"V  c #3F607A",
"C  c #4C414A",
"Z  c #50444E",
"A  c #484654",
"S  c #41435B",
"D  c #504256",
"F  c #584750",
"G  c #574A56",
"H  c #584B56",
"J  c #524A5C",
"K  c #5B4C59",
"L  c #66434D",
"P  c #73424B",
"I  c #79484D",
"U  c #6B5657",
"Y  c #665456",
"T  c #72545F",
"R  c #755F5E",
"E  c #454662",
"W  c #524D60",
"Q  c #5B4D60",
"!  c #555062",
"~  c #5D5669",
"^  c #6B5660",
"/  c #625669",
"(  c #60586B",
")  c #6A5F6F",
"_  c #6B606F",
"`  c #6A6171",
"'  c #8F545D",
"]  c #965756",
"[  c #9B5856",
"{  c #A25A57",
"}  c #9B605F",
"|  c #805C66",
" . c #8E6769",
".. c #90636D",
"X. c #8B706F",
"o. c #97766E",
"O. c #99776E",
"+. c #9A796F",
"@. c #8F757A",
"#. c #987B78",
"$. c #A46761",
"%. c #A66B69",
"&. c #A56962",
"*. c #A06A73",
"=. c #A27170",
"-. c #A07F77",
";. c #C76D63",
":. c #C96F65",
">. c #A78276",
",. c #AA8577",
"<. c #A4827B",
"1. c #BE8B7B",
"2. c #C18D7D",
"3. c #D58B7A",
"4. c #E0937E",
"5. c #3D778E",
"6. c #40788E",
"7. c #5F7D8B",
"8. c #637E8B",
"9. c #3E8599",
"0. c #41869A",
"q. c #49899C",
"w. c #A88680",
"e. c #AB8A84",
"r. c #B19EA8",
"t. c #B7A1AB",
"y. c #C59A86",
"u. c #C99B86",
"i. c #C79E88",
"p. c #CB9E89",
"a. c #C39184",
"s. c #D59D8B",
"d. c #CFA08C",
"f. c #D4A58D",
"g. c #D8A08D",
"h. c #C7A395",
"j. c #D3A693",
"k. c #D2A995",
"l. c #DFAC94",
"z. c #E1B198",
"x. c #FBB999",
"c. c #F1BC9C",
"v. c #C3B4B6",
"b. c #FBC2A1",
"n. c #FFCCA7",
"m. c #FFCEA9",
"M. c None",
/* pixels */
"M.M.M.M.M.M.M.M.M.M.. . . . . . . . . . . . M.M.M.M.M.M.M.M.M.M.",
"M.M.M.M.M.M.M.M.M.M.# # # + # + # # # $ # + M.M.M.M.M.M.M.M.M.M.",
"M.M.M.M.M.M.M.M.. + 8 y u y y y e y u e u 8 + . M.M.M.M.M.M.M.M.",
"M.M.M.M.M.M.M.M.+ 6 u p p m p m m m m m m u 5 + M.M.M.M.M.M.M.M.",
"M.M.M.M.M.M.. # 8 u p p p p p p p p p n p p u 8 # . M.M.M.M.M.M.",
"M.M.M.M.M.M.. # y p p p p p p p p p i p p p m y $ . M.M.M.M.M.M.",
"M.M.M.M.M.M.. # y p p p p p p p p p i i p p m y # X M.M.M.M.M.M.",
"M.M.M.M.M.M.. # y p p p p p p p p E ~ ~ S i i e + . M.M.M.M.M.M.",
"M.M.M.M.M.M.. # u m p p p p p p i ( e.e.~ i i y # X M.M.M.M.M.M.",
"M.M.M.M.M.M.. # y p p p p p p i i ` k.z.@.) ) J 6 . M.M.M.M.M.M.",
"M.M.M.M.M.M.. # y p p p p p p i i _ j.b.z.j.j.#.w   M.M.M.M.M.M.",
"M.M.M.M.M.M.. # y p p p p i i i i ~ w.p.d.l.b.y.f   M.M.M.M.M.M.",
"M.M.M.M.M.M.. # y p p i i i i p i S J K K X.l.u.C   M.M.M.M.M.M.",
"M.M.M.M.M.M.. $ y p p E ~ ) ` ( E S J k 6 K p.u.C   M.M.M.M.M.M.",
"M.M.M.M.M.M.. # y m i ~ e.j.j.e.~ ~ <.#.w C p.u.C   M.M.M.M.M.M.",
"M.M.M.M.M.M.. # 8 u i ) j.b.x.a./ ) j.p.d s 1.1.d   M.M.M.M.M.M.",
"M.M.M.M.M.M.M.M.+ & e ` k.x.4.%.Q ) k.p.C : $.&.,   M.M.M.M.M.M.",
"M.M.M.M.M.M.M.M.  + 0 ! w.g.3.&.k W <.+.w % P I ;   M.M.M.M.M.M.",
"M.M.M.M.M.M.M.M.M.M.+ 6 J @.f.2.C # q w $ + * ; M.M.M.M.M.M.M.M.",
"M.M.M.M.M.M.M.M.M.M.% - y Q <.,.Y C C ; $ .     M.M.M.M.M.M.M.M.",
"M.M.M.M.M.M.M.M.. * l c < , s Y >.u.i.o.w   M.M.M.M.M.M.M.M.M.M.",
"M.M.M.M.M.M.M.M.  - P '  ._ Z R f.m.m.y.C   M.M.M.M.M.M.M.M.M.M.",
"M.M.M.M.M.M.M.M.. * v *.t.t.f.f.c.n.m.y.C   M.M.M.M.M.M.M.M.M.M.",
"M.M.M.M.M.M.M.M.. @ l ..r.v.k.2.y.y.u.O.w   M.M.M.M.M.M.M.M.M.M.",
"M.M.M.M.M.M.M.M.  @ > L T T C d d C C w $ .   . M.M.M.M.M.M.M.M.",
"M.M.M.M.M.M.M.M.; < l L H n b 2 1 1 1 # O + % % M.M.M.M.M.M.M.M.",
"M.M.M.M.M.M.  ; I [ {  .q.q.q.5.V N B b # $ g x * . M.M.M.M.M.M.",
"M.M.M.M.M.M.. ; [ :.:.%.` q.9.9.V N E M q : x g % X M.M.M.M.M.M.",
"M.M.M.M.M.M.  ; ] :.:. .A 0 r 0 2 4 5 q x x a % o X M.M.M.M.M.M.",
"M.M.M.M.M.M.  ; I ] ] I =     . .     % h x % . X X M.M.M.M.M.M.",
"M.M.M.M.M.M.M.M.; ; ; ; M.M.M.M.M.M.. o % % M.M.M.M.M.M.M.M.M.M.",
"M.M.M.M.M.M.M.M.        M.M.M.M.M.M.X .   X M.M.M.M.M.M.M.M.M.M."
};
