/* XPM */
static char *result[] = {
/* columns rows colors chars-per-pixel */
"32 32 154 2 ",
"   c #050C24",
".  c #0D132B",
"X  c #12162C",
"o  c #14182E",
"O  c #161B34",
"+  c #1B1F36",
"@  c #281E33",
"#  c #241F35",
"$  c #1C2139",
"%  c #2E2235",
"&  c #28283D",
"*  c #332536",
"=  c #392736",
"-  c #3A2837",
";  c #3C2A39",
":  c #502E3C",
">  c #42323F",
",  c #1C2C44",
"<  c #1B334A",
"1  c #212641",
"2  c #242943",
"3  c #292A42",
"4  c #2A2E4A",
"5  c #322E44",
"6  c #3E3645",
"7  c #2D3352",
"8  c #303552",
"9  c #333855",
"0  c #363C5C",
"q  c #3A3F5E",
"w  c #3A3A55",
"e  c #453B45",
"r  c #4A3E47",
"t  c #5F3C4B",
"y  c #593444",
"u  c #483F50",
"i  c #603847",
"p  c #703A47",
"a  c #743F4B",
"s  c #3E4357",
"d  c #3C415E",
"f  c #374660",
"g  c #3B4060",
"h  c #3B5F79",
"j  c #4D424A",
"k  c #5C444B",
"l  c #41425C",
"z  c #434A5A",
"x  c #464453",
"c  c #5F4051",
"v  c #554851",
"b  c #584B56",
"n  c #524A5C",
"m  c #5C4C59",
"M  c #54475E",
"N  c #654A4E",
"B  c #75444B",
"V  c #7B494D",
"C  c #7B474A",
"Z  c #684D50",
"A  c #634A51",
"S  c #454662",
"D  c #464C65",
"F  c #554E60",
"G  c #5D5669",
"H  c #5F5463",
"J  c #635363",
"K  c #645B6D",
"L  c #6A5F6F",
"P  c #6C5862",
"I  c #6B606F",
"U  c #796260",
"Y  c #74686E",
"T  c #7E646D",
"R  c #6B6271",
"E  c #834E53",
"W  c #955554",
"Q  c #9A5856",
"!  c #95595A",
"~  c #9D615F",
"^  c #A1615F",
"/  c #9E5960",
"(  c #846A6E",
")  c #966062",
"_  c #8B706F",
"`  c #8D767A",
"'  c #9E7577",
"]  c #9E7B72",
"[  c #927B7D",
"{  c #A26463",
"}  c #A46962",
"|  c #A96C67",
" . c #B4736B",
".. c #A46971",
"X. c #A27F75",
"o. c #A57678",
"O. c #A57270",
"+. c #BE7A78",
"@. c #CA7B6F",
"#. c #A6847E",
"$. c #BD8A7A",
"%. c #BB877A",
"&. c #D28979",
"*. c #E0947E",
"=. c #3B758B",
"-. c #5E7B89",
";. c #647990",
":. c #917583",
">. c #48879A",
",. c #5F93A2",
"<. c #6393A4",
"1. c #6FA4B7",
"2. c #74BBCC",
"3. c #A88680",
"4. c #AB8A84",
"5. c #BC8C82",
"6. c #8E93A1",
"7. c #9694A1",
"8. c #B39EA5",
"9. c #B5B7BF",
"0. c #C59B86",
"q. c #CA9B86",
"w. c #CC9E8A",
"e. c #C29084",
"r. c #D29D8A",
"t. c #CFA08C",
"y. c #D6A78E",
"u. c #D9A88F",
"i. c #C6A295",
"p. c #D3A693",
"a. c #D9A792",
"s. c #D3A894",
"d. c #DEAC94",
"f. c #DDAE98",
"g. c #E3A78F",
"h. c #E7A88D",
"j. c #ECAD92",
"k. c #F3AE92",
"l. c #E1B198",
"z. c #FBB999",
"x. c #F4BE9E",
"c. c #C9A7AC",
"v. c #C5B5B7",
"b. c #C7BABA",
"n. c #F4BEA0",
"m. c #FBC2A1",
"M. c #FFCBA7",
"N. c #FFCEA9",
"B. c #F3C4AC",
"V. c #B0B7C3",
"C. c #B9B7C1",
"Z. c #D0C2C8",
"A. c #C1DBE7",
"S. c None",
/* pixels */
"S.S.S.S.S.S.S.S.S.S.S.S.S.S.S.S.S.S.S.S.S.S.S.S.S.S.S.S.S.S.S.S.",
"S.S.S.S.S.S.S.S.S.S.S.S.S.S.S.S.S.S.S.S.S.S.S.S.S.S.S.S.S.S.S.S.",
"S.S.S.S.S.S.S.S.S.S.X X X X X X X X X X X X S.S.S.S.S.S.S.S.S.S.",
"S.S.S.S.S.S.S.S.S.S.+ $ & + + $ $ $ $ $ $ $ S.S.S.S.S.S.S.S.S.S.",
"S.S.S.S.S.S.S.S.X + 4 8 8 8 8 8 8 8 8 8 8 4 + X S.S.S.S.S.S.S.S.",
"S.S.S.S.S.S.S.S.+ 2 9 q d q q q g g q g g 9 2 + S.S.S.S.S.S.S.S.",
"S.S.S.S.S.S.X $ 4 9 q q q q q q g q q q g q 8 4 $ X S.S.S.S.S.S.",
"S.S.S.S.S.S.X $ 8 q q q q d q q q q 0 0 q q g 8 $ X S.S.S.S.S.S.",
"S.S.S.S.S.S.X $ 8 d q q q q q q q q 0 0 q g q 7 $ X S.S.S.S.S.S.",
"S.S.S.S.S.S.X $ 8 g q q q q q q q D G K S 0 0 7 $ X S.S.S.S.S.S.",
"S.S.S.S.S.S.X $ 8 g q q q q q 0 0 G 4.4.G 9 0 7 + X S.S.S.S.S.S.",
"S.S.S.S.S.S.X $ 8 d q q q q q 0 0 I s.l.:.K L F & X S.S.S.S.S.S.",
"S.S.S.S.S.S.X $ 8 q q q q q q 0 0 I p.x.l.s.s.X.e . S.S.S.S.S.S.",
"S.S.S.S.S.S.X $ 8 q q q 0 0 0 0 0 G #.t.w.g.n.q.r . S.S.S.S.S.S.",
"S.S.S.S.S.S.X $ 8 q q q 0 0 0 0 0 l n b m _ l.0.j . S.S.S.S.S.S.",
"S.S.S.S.S.S.X $ 8 g q S G L L K l l n u 3 b w.q.j . S.S.S.S.S.S.",
"S.S.S.S.S.S.X $ 7 g q G 4.a.a.4.G G #.] 6 j 0.t.j . S.S.S.S.S.S.",
"S.S.S.S.S.S.X $ 4 7 0 R p.m.z.e.G L p.0.j e $.$.e . S.S.S.S.S.S.",
"S.S.S.S.S.S.S.S.+ 1 7 R p.z.r.{ F K p.0.j ; ^ } > . S.S.S.S.S.S.",
"S.S.S.S.S.S.S.S.X O 2 F 3.r.&. .T ` f.y.U k V C - . S.S.S.S.S.S.",
"S.S.S.S.S.S.S.S.S.S.O 3 F ` w.j.a.f.x.x.u.X.k * S.S.S.S.S.S.S.S.",
"S.S.S.S.S.S.S.S.S.S.l d w J 5.j.k.h.q.r.j.$.e . S.S.S.S.S.S.S.S.",
"S.S.S.S.S.S.S.S.  s 6.7.H t /  .@.| N Z  .^ > . S.S.S.S.S.S.S.S.",
"S.S.S.S.S.S.S.S.e Y b.v.P : a / +.o.J m ^ W ; X S.S.S.S.S.S.S.S.",
"S.S.S.S.S.S.. e ] s.B.i.v * a ..c.Z.9.8.%.W ; X S.S.S.S.S.S.S.S.",
"S.S.S.S.S.S.. j 0.N.M.0.e # t :.V.A.A.9.' B - X S.S.S.S.S.S.S.S.",
"S.S.S.S.S.S.. r 0.N.N.0.r $ D ;.1.2.2.<.z * S.S.S.S.S.S.S.S.S.S.",
"S.S.S.S.S.S.. e X.r.g.%.k 5 f h =.>.,.-.x * S.S.S.S.S.S.S.S.S.S.",
"S.S.S.S.S.S.S.S.e A ) ) E t 5 , < x ( O.~ V - . S.S.S.S.S.S.S.S.",
"S.S.S.S.S.S.S.S.. @ y a a t * . . = C Q Q B * X S.S.S.S.S.S.S.S.",
"S.S.S.S.S.S.S.S.S.S.% * * % S.S.S.S.- ; ; = $ o S.S.S.S.S.S.S.S.",
"S.S.S.S.S.S.S.S.S.S.. . X X S.S.S.S.. X . X X o S.S.S.S.S.S.S.S."
};
