/* XPM */
static char *result[] = {
/* columns rows colors chars-per-pixel */
"32 32 161 2 ",
"   c #060F28",
".  c #0D132A",
"X  c #12162C",
"o  c #1A1A2E",
"O  c #161D37",
"+  c #1B1F37",
"@  c #1A1F38",
"#  c #201B2F",
"$  c #2A1E32",
"%  c #271F33",
"&  c #1C2139",
"*  c #2B2133",
"=  c #322636",
"-  c #362838",
";  c #3D2B3A",
":  c #392736",
">  c #4B2F3D",
",  c #40303D",
"<  c #1D364C",
"1  c #222A43",
"2  c #292941",
"3  c #2A2F4A",
"4  c #392F40",
"5  c #2A314F",
"6  c #3D3544",
"7  c #37344B",
"8  c #2E3351",
"9  c #303552",
"0  c #333855",
"q  c #3B3D51",
"w  c #353C5C",
"e  c #3A3F5D",
"r  c #463D46",
"t  c #493D47",
"y  c #463F4E",
"u  c #493D49",
"i  c #453242",
"p  c #5B3542",
"a  c #5A3A43",
"s  c #493F50",
"d  c #6D3B47",
"f  c #6B3A48",
"g  c #633D47",
"h  c #3B405F",
"j  c #3B4060",
"k  c #354863",
"l  c #3E5571",
"z  c #3C5E78",
"x  c #4C414A",
"c  c #46404C",
"v  c #5F474E",
"b  c #434555",
"n  c #4B4453",
"m  c #4F4759",
"M  c #544854",
"N  c #534959",
"B  c #5B4C59",
"V  c #584555",
"C  c #6F4247",
"Z  c #7B434D",
"A  c #78474B",
"S  c #684E52",
"D  c #694A5A",
"F  c #784A55",
"G  c #745C5C",
"H  c #474863",
"J  c #434561",
"K  c #485168",
"L  c #5C5569",
"P  c #5F596C",
"I  c #4E5B76",
"U  c #645C6E",
"Y  c #685D6D",
"T  c #745C68",
"R  c #6B6170",
"E  c #84454F",
"W  c #8A4852",
"Q  c #8A575A",
"!  c #8A5559",
"~  c #9B5957",
"^  c #9E5E5C",
"/  c #9C625D",
"(  c #845F65",
")  c #9C5B60",
"_  c #876D6D",
"`  c #846971",
"'  c #9E7C73",
"]  c #927B7D",
"[  c #97696D",
"{  c #AB6C64",
"}  c #A46865",
"|  c #B26D65",
" . c #AD716B",
".. c #B7716C",
"X. c #A16972",
"o. c #A5717A",
"O. c #A27E73",
"+. c #BA7A75",
"@. c #C77A6E",
"#. c #CE7E6F",
"$. c #A58074",
"%. c #A6857E",
"&. c #AD867C",
"*. c #BC8979",
"=. c #B48476",
"-. c #D28172",
";. c #D18978",
":. c #E2947F",
">. c #3C748B",
",. c #477B8F",
"<. c #5E7085",
"1. c #62778E",
"2. c #76738A",
"3. c #8C7281",
"4. c #907481",
"5. c #3C8095",
"6. c #6EA2B5",
"7. c #74B8C9",
"8. c #928D9C",
"9. c #8E909E",
"0. c #AE8C86",
"q. c #B7978E",
"w. c #A497A3",
"e. c #B7AFB3",
"r. c #C58682",
"t. c #CB9582",
"y. c #C49B86",
"u. c #C99B86",
"i. c #C99E89",
"p. c #C49D88",
"a. c #D89886",
"s. c #E29A84",
"d. c #CFA08C",
"f. c #D2A08A",
"g. c #CFA290",
"h. c #C4A396",
"j. c #D1A492",
"k. c #D3AA96",
"l. c #DBA993",
"z. c #DBA899",
"x. c #E6A98F",
"c. c #EEAD93",
"v. c #F1AE92",
"b. c #EFB297",
"n. c #E1B198",
"m. c #F6B194",
"M. c #FCBB9B",
"N. c #F3BC9D",
"B. c #C6A6AC",
"V. c #FDC5A3",
"C. c #FFC9A5",
"Z. c #FECCB2",
"A. c #AEB5C1",
"S. c #CFBFC8",
"D. c #CFBEC7",
"F. c #D0BFC7",
"G. c #BFD8E3",
"H. c #D8C6CB",
"J. c #EBCDC7",
"K. c #E6E9F1",
"L. c None",
/* pixels */
"L.L.L.L.L.L.L.L.L.L.X X X X X X X X X X X X L.L.L.L.L.L.L.L.L.L.",
"L.L.L.L.L.L.L.L.L.L.& & & & & & & & & & & & L.L.L.L.L.L.L.L.L.L.",
"L.L.L.L.L.L.L.L.X + 3 9 9 9 9 9 9 9 9 9 8 5 @ X L.L.L.L.L.L.L.L.",
"L.L.L.L.L.L.L.L.+ 1 0 j h e e j e j e j h 0 2 @ L.L.L.L.L.L.L.L.",
"L.L.L.L.L.L.X & 3 0 w j e j e j e e e e j w 0 3 & X L.L.L.L.L.L.",
"L.L.L.L.L.L.X & 9 j e w e e e e e j e e w w j 9 & X L.L.L.L.L.L.",
"L.L.L.L.L.L.X & 9 j w w e e e e e h h e w w e 9 & X L.L.L.L.L.L.",
"L.L.L.L.L.L.X & 9 J U L J w w w w w w J U P H 8 & X L.L.L.L.L.L.",
"L.L.L.L.L.L.X & 5 U 0.0.U 0 w w w w w L 0.0.U 5 @ X L.L.L.L.L.L.",
"L.L.L.L.L.L.. @ 5 R k.n.] Y U Y U Y U ] n.k.R 5 @ . L.L.L.L.L.L.",
"L.L.L.L.L.L.  O 5 R g.V.n.j.j.j.j.g.j.n.V.j.R 5 O . L.L.L.L.L.L.",
"L.L.L.L.L.L.c c e L %.i.i.l.N.V.V.N.x.i.i.%.L e y t L.L.L.L.L.L.",
"L.L.L.L.. t $.%.L e m N B _ l.V.V.l._ B B m e L %.$.u . L.L.L.L.",
"L.L.L.L.. x d.k.R q m s 2 M p.C.C.u.M 2 y m q R k.d.x . L.L.L.L.",
"L.L.L.L.. x d.k.R L %.' i x p.C.C.p.u 6 ' %.L Y k.d.x . L.L.L.L.",
"L.L.L.L.. u $.&.T ` l.p.r 6 =.m.m.=.i r y.k._ T %.$.t . L.L.L.L.",
"L.L.L.L.L.L.r S ! *.b.p.r - ) #.-./ = r p.b.+.Q S r L.L.L.L.L.L.",
"L.L.L.L.L.L.  $ C | a.;.G D ..#.-. .S G u.s.| C %   L.L.L.L.L.L.",
"L.L.L.L.. . . X * g { ;.t.i.x.v.c.x.f.t.;.| a = .   L.L.L.L.L.L.",
"L.L.L.L.r u x r q n ! | a.v.c.c.c.c.c.a.{ F N b x t L.L.L.L.L.L.",
"L.L.. r ' u.i.q.8.2.D Z } ..@.#.#.@...Q a N 9.e.h.O.r . L.L.L.L.",
"L.L.. x p.C.M.l.w.2.S > d ~ +.r.r.+.) f $ q w.J.Z.y.u . L.L.L.L.",
"L.L.. x p.M.s. .D 7 i p E X.B.H.H.B.X.f $ 6 [ a.M.y.x . L.L.L.L.",
"L.L.. r ' *.} C * # > d W 4.S.K.K.S.o.d $ ; / :.M.y.x . L.L.L.L.",
"L.L.L.L.r r , * X * f E W o.S.K.K.H.o.d $ r *.M.V.y.x . L.L.L.L.",
"L.L.L.L.. . . X X * a Z F 3.A.G.G.A.4.D 4 n ' i.u.' r . L.L.L.L.",
"L.L.L.L.L.L.L.L.X + % 6 K 1.6.7.7.6.1.I I k b x t t L.L.L.L.L.L.",
"L.L.L.L.L.L.L.L.X o * u U <.,.5.>.>.z l l k & . . . L.L.L.L.L.L.",
"L.L.L.L.L.L.L.L.X = A ^ { _ h < < < 1 1 1 1 L.L.L.L.L.L.L.L.L.L.",
"L.L.L.L.L.L.L.L.. ; F ~ ~ A : . . X X X X X L.L.L.L.L.L.L.L.L.L.",
"L.L.L.L.L.L.L.L.L.L.: , , : L.L.L.L.L.L.L.L.L.L.L.L.L.L.L.L.L.L.",
"L.L.L.L.L.L.L.L.L.L.X X . . L.L.L.L.L.L.L.L.L.L.L.L.L.L.L.L.L.L."
};
