/* XPM */
static char *result[] = {
/* columns rows colors chars-per-pixel */
"32 32 133 2 ",
"   c #070D25",
".  c #090F27",
"X  c #070F28",
"o  c #0B1027",
"O  c #0D132A",
"+  c #12162C",
"@  c #14182E",
"#  c #1A1A2F",
"$  c #161A33",
"%  c #1B1E35",
"&  c #271F34",
"*  c #1C2139",
"=  c #2C2235",
"-  c #20253C",
";  c #292439",
":  c #28283D",
">  c #322436",
",  c #332538",
"<  c #3A2A39",
"1  c #42313F",
"2  c #212641",
"3  c #242843",
"4  c #292A42",
"5  c #242F48",
"6  c #2A2E4A",
"7  c #293349",
"8  c #3E3645",
"9  c #3D3448",
"0  c #32394E",
"q  c #2D3352",
"w  c #303552",
"e  c #343A54",
"r  c #393C52",
"t  c #363C5C",
"y  c #3A3F5E",
"u  c #453B45",
"i  c #493D47",
"p  c #5A3544",
"a  c #593A49",
"s  c #483F50",
"d  c #603847",
"f  c #3D4357",
"g  c #3B405F",
"h  c #3B4060",
"j  c #4D424A",
"k  c #5D454B",
"l  c #41445A",
"z  c #584B56",
"x  c #54475E",
"c  c #534A5A",
"v  c #5B4C59",
"b  c #61444B",
"n  c #75434C",
"m  c #78474B",
"M  c #634354",
"N  c #6A4D50",
"B  c #7A4754",
"V  c #7F5155",
"C  c #454662",
"Z  c #474D66",
"A  c #544E60",
"S  c #5F5162",
"D  c #52526A",
"F  c #5D5669",
"G  c #615161",
"H  c #645B6D",
"J  c #695F6C",
"K  c #6B606F",
"L  c #7B6361",
"P  c #7E646D",
"I  c #6B6271",
"U  c #804E50",
"Y  c #855757",
"T  c #80505E",
"R  c #8D575D",
"E  c #955554",
"W  c #9A5958",
"Q  c #9C6161",
"!  c #8B706F",
"~  c #8A6D70",
"^  c #8C7378",
"/  c #8E797C",
"(  c #9D7B73",
")  c #927B7D",
"_  c #A26561",
"`  c #A56962",
"'  c #A56B69",
"]  c #B4726B",
"[  c #A37F75",
"{  c #CE7E72",
"}  c #A58175",
"|  c #A6847E",
" . c #B88477",
".. c #B28A7E",
"X. c #BC897A",
"o. c #D88575",
"O. c #D28979",
"+. c #E0947E",
"@. c #596E86",
"#. c #8A8E9C",
"$. c #93919E",
"%. c #A88680",
"&. c #AB8A84",
"*. c #B98A80",
"=. c #9396A4",
"-. c #9A97A3",
";. c #969FAE",
":. c #A7A0A8",
">. c #C29084",
",. c #C49A85",
"<. c #CB9C87",
"1. c #CC9E8A",
"2. c #D29D8B",
"3. c #CFA08C",
"4. c #D7A78E",
"5. c #DEA48C",
"6. c #D3A693",
"7. c #D9A792",
"8. c #D2A894",
"9. c #DDAC93",
"0. c #DDAE98",
"q. c #E5A68F",
"w. c #EAAA8F",
"e. c #ECAC93",
"r. c #E1B198",
"t. c #F5B094",
"y. c #FAB396",
"u. c #F5BE9E",
"i. c #FBB999",
"p. c #F4BEA0",
"a. c #FBC2A1",
"s. c #FFCCA8",
"d. c None",
/* pixels */
"d.d.d.d.d.d.d.d.d.d.d.d.d.d.d.d.d.d.d.d.d.d.d.d.d.d.d.d.d.d.d.d.",
"d.d.d.d.d.d.d.d.d.d.d.d.d.d.d.d.d.d.d.d.d.d.d.d.d.d.d.d.d.d.d.d.",
"d.d.d.d.d.d.d.d.d.d.@ @ + @ + + + + + + + + d.d.d.d.d.d.d.d.d.d.",
"d.d.d.d.d.d.d.d.d.d.% % * * * * * * * * * * d.d.d.d.d.d.d.d.d.d.",
"d.d.d.d.d.d.d.d.+ % 6 w w w w w w w w w w 6 % + d.d.d.d.d.d.d.d.",
"d.d.d.d.d.d.d.d.% 3 e y g y y y y h y g h e 3 % d.d.d.d.d.d.d.d.",
"d.d.d.d.d.d.+ * 6 e y y y y y y y y y y h t e 6 * + d.d.d.d.d.d.",
"d.d.d.d.d.d.+ * w y y y y y y y y y t y y y h w * + d.d.d.d.d.d.",
"d.d.d.d.d.d.+ * w g y y y y y y y y t y y y y q * + d.d.d.d.d.d.",
"d.d.d.d.d.d.+ * w g y y y y y y y Z F F C t y q * + d.d.d.d.d.d.",
"d.d.d.d.d.d.+ * w y y y y y y y t F &.&.F e t q % + d.d.d.d.d.d.",
"d.d.d.d.d.d.+ * w y g y y y y t t K 8.r.) H I x : + d.d.d.d.d.d.",
"d.d.d.d.d.d.+ * w y y y y y y t t J 8.a.r.7.6.[ u O d.d.d.d.d.d.",
"d.d.d.d.d.d.+ * w y y y t t t t t F | 1.1.r.p.,.i O d.d.d.d.d.d.",
"d.d.d.d.d.d.+ * w h y y t t t y y h c c v ~ 0.<.j O d.d.d.d.d.d.",
"d.d.d.d.d.d.+ * w y y C F K K F C s c s 4 z 1.,.j O d.d.d.d.d.d.",
"d.d.d.d.d.d.@ * q y t F &.7.7.&.F F %.( 8 j <.<.j O d.d.d.d.d.d.",
"d.d.d.d.d.d.+ * 6 e t I 6.a.i.>.F H 8.,.u u X.X.i O d.d.d.d.d.d.",
"d.d.d.d.d.d.d.d.% 2 q I 6.i.2.' x H 8.,.u < _ ` u O d.d.d.d.d.d.",
"d.d.d.d.d.d.d.d.+ $ 3 A %.2.O.] P / 0.7.L k V m < O d.d.d.d.d.d.",
"d.d.d.d.d.d.d.d.$ @ $ 4 c ^ 1.e.7.0.u.u.9.[ k , d.d.d.d.d.d.d.d.",
"d.d.d.d.d.d.d.d.+ * f l r G *.e.t.q.<.>.<.} u o d.d.d.d.d.d.d.d.",
"d.d.d.d.d.d.d.d.O r #.-.S a R ] { ] N u j j d.d.d.d.d.d.d.d.d.d.",
"d.d.d.d.d.d.d.d.o l =.:.! Y Q _ W Y c 0 % o d.d.d.d.d.d.d.d.d.d.",
"d.d.d.d.d.d.d.d.d.d.l K ..5.w.X.b c $.#.r . d.d.d.d.d.d.d.d.d.d.",
"d.d.d.d.d.d.d.d.d.d.  u ,.s.s.*.u e ;.;.f O d.d.d.d.d.d.d.d.d.d.",
"d.d.d.d.d.d.d.d.d.d.  j ,.s.s.,.i 5 @.@.7 O d.d.d.d.d.d.d.d.d.d.",
"d.d.d.d.d.d.d.d.d.d.O j  .y.y.X.i * Z D 9 > d.d.d.d.d.d.d.d.d.d.",
"d.d.d.d.d.d.d.d.d.d.O < _ o.o._ < ; M V B d = + d.d.d.d.d.d.d.d.",
"d.d.d.d.d.d.d.d.d.d.+ < m E E n , = p n n p = + d.d.d.d.d.d.d.d.",
"d.d.d.d.d.d.d.d.d.d.d.d., < < , % $ = , , = % + d.d.d.d.d.d.d.d.",
"d.d.d.d.d.d.d.d.d.d.d.d.O O O + + @ + O + + + @ d.d.d.d.d.d.d.d."
};
