/* XPM */
static char *result[] = {
/* columns rows colors chars-per-pixel */
"32 32 165 2 ",
"   c #050D25",
".  c #0D132A",
"X  c #12162C",
"o  c #1B1A2E",
"O  c #161D37",
"+  c #1B1E36",
"@  c #1A1F38",
"#  c #271F34",
"$  c #281F33",
"%  c #1C2139",
"&  c #2F2435",
"*  c #322435",
"=  c #362838",
"-  c #3C2B3A",
";  c #382736",
":  c #4B2C3B",
">  c #40303D",
",  c #1D364C",
"<  c #222A43",
"1  c #292941",
"2  c #2A2E4A",
"3  c #2A314F",
"4  c #2C3145",
"5  c #3D3544",
"6  c #37354B",
"7  c #2E3351",
"8  c #303552",
"9  c #343955",
"0  c #353C5C",
"q  c #3A3F5D",
"w  c #453C45",
"e  c #493D47",
"r  c #453E4C",
"t  c #483C4B",
"y  c #453442",
"u  c #5B3B45",
"i  c #573444",
"p  c #493F50",
"a  c #6D3B47",
"s  c #633947",
"d  c #763C48",
"f  c #3B4256",
"g  c #3A415E",
"h  c #3B4060",
"j  c #3B536F",
"k  c #3C5E78",
"l  c #4C424A",
"z  c #5D454C",
"x  c #4F4759",
"c  c #404455",
"v  c #544854",
"b  c #5B4C59",
"n  c #574B5A",
"m  c #744449",
"M  c #7A484C",
"N  c #684E51",
"B  c #644658",
"V  c #774856",
"C  c #65515D",
"Z  c #735C5C",
"A  c #474863",
"S  c #434561",
"D  c #4E5068",
"F  c #5C5569",
"G  c #5F596C",
"H  c #5C5161",
"J  c #415672",
"K  c #525C77",
"L  c #645D6D",
"P  c #685D6D",
"I  c #725A66",
"U  c #7C5C64",
"Y  c #5F6676",
"T  c #6F626A",
"R  c #6B6170",
"E  c #696A79",
"W  c #73676C",
"Q  c #81424D",
"!  c #894651",
"~  c #885458",
"^  c #9C5D5D",
"/  c #995856",
"(  c #9A615D",
")  c #A0645E",
"_  c #845F65",
"`  c #876D6D",
"'  c #82676F",
"]  c #99676B",
"[  c #846971",
"{  c #9B6D72",
"}  c #9E7C72",
"|  c #927B7D",
" . c #AC6C63",
".. c #A36864",
"X. c #B46D64",
"o. c #A36F79",
"O. c #A27E73",
"+. c #A57079",
"@. c #BC7C73",
"#. c #D07E70",
"$. c #A58074",
"%. c #A6857E",
"&. c #AB847B",
"*. c #B88677",
"=. c #CB867A",
"-. c #D18374",
";. c #E2957F",
":. c #3C748B",
">. c #477B8F",
",. c #5E7085",
"<. c #62778E",
"1. c #887587",
"2. c #907481",
"3. c #3C8095",
"4. c #6EA2B5",
"5. c #74B8C9",
"6. c #8A8F9E",
"7. c #AE8C86",
"8. c #A48880",
"9. c #BD8785",
"0. c #B6949F",
"q. c #8D94A2",
"w. c #9E98A3",
"e. c #9B9EB2",
"r. c #B9A6AC",
"t. c #AEA7B8",
"y. c #CC8D84",
"u. c #C99582",
"i. c #C49B87",
"p. c #C99B86",
"a. c #C59B89",
"s. c #C99E89",
"d. c #D99682",
"f. c #D19F89",
"g. c #DF9A84",
"h. c #E49781",
"j. c #CFA08C",
"k. c #CFA290",
"l. c #CCAC9F",
"z. c #D1A492",
"x. c #D4A996",
"c. c #DBA993",
"v. c #E5A78D",
"b. c #E9A48E",
"n. c #F0AB8F",
"m. c #EFB297",
"M. c #E1B198",
"N. c #EEB39B",
"B. c #F6B194",
"V. c #FDBB9B",
"C. c #F3BC9D",
"Z. c #C6B9B8",
"A. c #DAC0BD",
"S. c #FDC5A2",
"D. c #FFC9A5",
"F. c #F5C4AC",
"G. c #F9CCB4",
"H. c #AEB5C1",
"J. c #CEBDC6",
"K. c #BFD8E3",
"L. c #D5CDD2",
"P. c #E9DEDB",
"I. c #E5E7EF",
"U. c #E3E7F0",
"Y. c None",
/* pixels */
"Y.Y.Y.Y.Y.Y.Y.Y.Y.Y.Y.Y.Y.Y.Y.Y.Y.Y.Y.Y.Y.Y.Y.Y.Y.Y.Y.Y.Y.Y.Y.Y.",
"Y.Y.Y.Y.Y.Y.Y.Y.Y.Y.Y.Y.Y.Y.Y.Y.Y.Y.Y.Y.Y.Y.Y.Y.Y.Y.Y.Y.Y.Y.Y.Y.",
"Y.Y.Y.Y.Y.Y.Y.Y.Y.Y.X X X . . X X X X X X X Y.Y.Y.Y.Y.Y.Y.Y.Y.Y.",
"Y.Y.Y.Y.Y.Y.Y.Y.Y.Y.@ + & < @ @ % % % % % % Y.Y.Y.Y.Y.Y.Y.Y.Y.Y.",
"Y.Y.Y.Y.Y.Y.Y.Y.X @ 2 8 8 8 8 8 8 8 7 8 8 3 + X Y.Y.Y.Y.Y.Y.Y.Y.",
"Y.Y.Y.Y.Y.Y.Y.Y.+ < 9 q h q q q h h h h q 9 < @ Y.Y.Y.Y.Y.Y.Y.Y.",
"Y.Y.Y.Y.Y.Y.X % 2 0 q h q q q q q h q h q q 9 2 % X Y.Y.Y.Y.Y.Y.",
"Y.Y.Y.Y.Y.Y.X % 8 q 0 0 q q q q q q q 0 0 q q 8 % X Y.Y.Y.Y.Y.Y.",
"Y.Y.Y.Y.Y.Y.X % 8 q 0 0 0 q q q q h q 0 0 0 q 7 % X Y.Y.Y.Y.Y.Y.",
"Y.Y.Y.Y.Y.Y.X % 8 A L G S 0 0 0 0 0 0 S L G A 7 % X Y.Y.Y.Y.Y.Y.",
"Y.Y.Y.Y.Y.Y.X @ 7 L 7.7.F 0 0 0 0 0 0 F 7.7.G 7 @ X Y.Y.Y.Y.Y.Y.",
"Y.Y.Y.Y.Y.Y.. O 7 R x.c.| P P P P P P | M.z.R 7 @ . Y.Y.Y.Y.Y.Y.",
"Y.Y.Y.Y.Y.Y.. O 3 P z.S.M.z.z.k.k.k.z.M.S.z.R 2 O . Y.Y.Y.Y.Y.Y.",
"Y.Y.Y.Y.Y.Y.r l q F 8.s.f.c.C.S.D.C.c.s.s.8.F q l t Y.Y.Y.Y.Y.Y.",
"Y.Y.Y.Y.. e $.%.F q v b b ` c.D.D.c.` b b x g F %.$.t . Y.Y.Y.Y.",
"Y.Y.Y.Y.. l s.x.R q x t 1 v a.D.D.s.v 1 t v q R x.s.l . Y.Y.Y.Y.",
"Y.Y.Y.Y.  l j.x.P F %.} 5 l i.D.D.i.t 5 } %.F R x.i.l . Y.Y.Y.Y.",
"Y.Y.Y.Y.. l $.&.I ' x.s.r - *.B.B.*.5 r a.c.[ I %.$.l . Y.Y.Y.Y.",
"Y.Y.Y.Y.Y.Y.5 z ~ @.m.i.w = ( -.-.( ; w i.m.#.~ z w Y.Y.Y.Y.Y.Y.",
"Y.Y.Y.Y.Y.Y.f H { =.b.u.Z N  .#.#. .N Z u.d. .m *   Y.Y.Y.Y.Y.Y.",
"Y.Y.Y.Y.  f 6.t.t.0.y.=.u.f.b.n.n.v.f.u.=. .u * Y.Y.Y.Y.Y.Y.Y.Y.",
"Y.Y.Y.Y.> W Z.L.e.1.(  .y.N.F.G.G.F.N.d.X.~ n g Y.Y.Y.Y.Y.Y.Y.Y.",
"Y.Y.. w } x.F.l.P 6 i M ^ y.L.P.P.Z.y.^ M _ w.q.f   Y.Y.Y.Y.Y.Y.",
"Y.Y.. l s.D.V.*.y + : s Q +.Z.U.I.J.o.d : C r.r.T w Y.Y.Y.Y.Y.Y.",
"Y.Y.. l i.V.h.) - $ s ! ! o.J.U.I.J.o.a * y { y.u.} w . Y.Y.Y.Y.",
"Y.Y.. l } *...m & $ i m V 2.H.K.K.H.| B 6 t ..;.V.a.l . Y.Y.Y.Y.",
"Y.Y.Y.Y.w l - & + o $ 6 D <.4.5.5.4.<.K J E a.V.D.i.l . Y.Y.Y.Y.",
"Y.Y.Y.Y.. . X X X o * t G ,.>.3.:.:.k j j Y 8.i.s.} w . Y.Y.Y.Y.",
"Y.Y.Y.Y.Y.Y.Y.Y.. = m ( ..' c , 3 , < < < 4 w l l w Y.Y.Y.Y.Y.Y.",
"Y.Y.Y.Y.Y.Y.Y.Y.. - M / / M ; . . X X . X X . . . . Y.Y.Y.Y.Y.Y.",
"Y.Y.Y.Y.Y.Y.Y.Y.Y.Y.; > > ; Y.Y.Y.Y.Y.Y.Y.Y.Y.Y.Y.Y.Y.Y.Y.Y.Y.Y.",
"Y.Y.Y.Y.Y.Y.Y.Y.Y.Y.X . . X Y.Y.Y.Y.Y.Y.Y.Y.Y.Y.Y.Y.Y.Y.Y.Y.Y.Y."
};
