/* XPM */
static char *result[] = {
/* columns rows colors chars-per-pixel */
"32 32 241 2 ",
"   c #060F28",
".  c #091029",
"X  c #0E1128",
"o  c #0D1229",
"O  c #0F1228",
"+  c #0C122A",
"@  c #0E132A",
"#  c #0E132B",
"$  c #0F142A",
"%  c #0E152C",
"&  c #0F152C",
"*  c #11152A",
"=  c #10142B",
"-  c #12142A",
";  c #12152A",
":  c #12152B",
">  c #14152B",
",  c #16152B",
"<  c #11162C",
"1  c #12162C",
"2  c #19182D",
"3  c #1D1C30",
"4  c #1F1F32",
"5  c #181E37",
"6  c #1B1F37",
"7  c #181F38",
"8  c #1A1F38",
"9  c #231C2F",
"0  c #241C2F",
"q  c #221C30",
"w  c #221D30",
"e  c #291F31",
"r  c #1C2038",
"t  c #1C2139",
"y  c #1D2139",
"u  c #2B2032",
"i  c #2C2033",
"p  c #2C2133",
"a  c #212238",
"s  c #222238",
"d  c #332233",
"f  c #312334",
"g  c #322235",
"h  c #322536",
"j  c #322637",
"k  c #352434",
"l  c #382736",
"z  c #332839",
"x  c #3A2938",
"c  c #392A39",
"v  c #3B2B3A",
"b  c #3E2B3A",
"n  c #3E2C3A",
"m  c #412937",
"M  c #432B39",
"N  c #482F3B",
"B  c #492F3B",
"V  c #4C2E3C",
"C  c #4D2F3C",
"Z  c #44303F",
"A  c #1D394F",
"S  c #1F394F",
"D  c #202B43",
"F  c #242842",
"G  c #212F46",
"H  c #292B40",
"J  c #282E45",
"K  c #2A2E4A",
"L  c #2C3145",
"P  c #21364C",
"I  c #3C3440",
"U  c #3D3542",
"Y  c #2B3351",
"T  c #2F3451",
"R  c #303551",
"E  c #303552",
"W  c #313552",
"Q  c #333855",
"!  c #323A5C",
"~  c #333B5C",
"^  c #343D5D",
"/  c #353D5D",
"(  c #363C5C",
")  c #363C5D",
"_  c #373D5D",
"`  c #373E5D",
"'  c #363E5F",
"]  c #383D5B",
"[  c #3E3F59",
"{  c #383E5D",
"}  c #393E5D",
"|  c #393E5E",
" . c #393F5E",
".. c #3A3F5E",
"X. c #3A3F5F",
"o. c #463443",
"O. c #4D3745",
"+. c #463C46",
"@. c #473C46",
"#. c #463D46",
"$. c #473D47",
"%. c #483C46",
"&. c #483D47",
"*. c #483E47",
"=. c #493E47",
"-. c #4A3E47",
";. c #423C48",
":. c #433A4C",
">. c #4A3B4B",
",. c #4C3A4A",
"<. c #493F48",
"1. c #493E4D",
"2. c #533641",
"3. c #473C52",
"4. c #613941",
"5. c #623941",
"6. c #663845",
"7. c #663946",
"8. c #743E4A",
"9. c #3B405F",
"0. c #3F405D",
"q. c #3B4060",
"w. c #3B536F",
"e. c #3C536F",
"r. c #3E5571",
"t. c #3D607A",
"y. c #4B4149",
"u. c #4B414A",
"i. c #4C4049",
"p. c #4C4149",
"a. c #4C414A",
"s. c #4D414A",
"d. c #4E434B",
"f. c #48404E",
"g. c #48424E",
"h. c #49424E",
"j. c #464254",
"k. c #424557",
"l. c #414657",
"z. c #444657",
"x. c #42425E",
"c. c #50455E",
"v. c #51475F",
"b. c #54475F",
"n. c #53485F",
"m. c #5D4959",
"M. c #5F4A59",
"N. c #5A4D5B",
"B. c #5A4A5F",
"V. c #5B4A5F",
"C. c #5B4E5C",
"Z. c #62494F",
"A. c #724348",
"S. c #76474B",
"D. c #7B484B",
"F. c #7B4A4D",
"G. c #6A4D5D",
"H. c #7D4E54",
"J. c #65505C",
"K. c #68515E",
"L. c #404B63",
"P. c #5E5668",
"I. c #485973",
"U. c #605B6E",
"Y. c #7E5D65",
"T. c #775C69",
"R. c #785D69",
"E. c #785F69",
"W. c #5F6576",
"Q. c #6A6170",
"!. c #6B6270",
"~. c #6A6B79",
"^. c #776C71",
"/. c #875357",
"(. c #895356",
"). c #8E595A",
"_. c #8E5A5C",
"`. c #995755",
"'. c #995856",
"]. c #9E5956",
"[. c #9F5E5D",
"{. c #A65D58",
"}. c #A75D58",
"|. c #885961",
" X c #895961",
".X c #856066",
"XX c #9C6B6E",
"oX c #9A796F",
"OX c #856672",
"+X c #9F7D72",
"@X c #A46362",
"#X c #A46263",
"$X c #A36863",
"%X c #A76968",
"&X c #A27E72",
"*X c #A48074",
"=X c #A58074",
"-X c #A7857D",
";X c #B0887D",
":X c #E2947E",
">X c #3E778E",
",X c #526A82",
"<X c #546A81",
"1X c #497D92",
"2X c #607286",
"3X c #3D8398",
"4X c #3E8498",
"5X c #5D8699",
"6X c #5D869A",
"7X c #6295A6",
"8X c #A48880",
"9X c #9994A1",
"0X c #9D97A2",
"qX c #A098A3",
"wX c #B4A1A8",
"eX c #B6AFB3",
"rX c #B9B0B4",
"tX c #C39A86",
"yX c #C49A85",
"uX c #C59A85",
"iX c #C49A86",
"pX c #C59C86",
"aX c #C99A86",
"sX c #C99B86",
"dX c #C7988A",
"fX c #C79E88",
"gX c #C89F88",
"hX c #DB9B8E",
"jX c #C4A296",
"kX c #C5A396",
"lX c #D4AB96",
"zX c #D8AE97",
"xX c #FBB999",
"cX c #FEB999",
"vX c #F9BB9F",
"bX c #CABEBD",
"nX c #FFC5A2",
"mX c #F3C9B0",
"MX c #FECCB2",
"NX c #EACCC6",
"BX c None",
/* pixels */
"BXBXBXBXBXBXBXBXBXBXBXBXBXBXBXBXBXBXBXBXBXBXBXBXBXBXBXBXBXBXBXBX",
"BXBXBXBXBXBXBXBXBXBXBXBXBXBXBXBXBXBXBXBXBXBXBXBXBXBXBXBXBXBXBXBX",
"BXBXBXBXBXBXBXBXBXBX1 1 1 1 1 1 1 1 1 1 1 1 BXBXBXBXBXBXBXBXBXBX",
"BXBXBXBXBXBXBXBXBXBXr y y t t t t t t y y r BXBXBXBXBXBXBXBXBXBX",
"BXBXBXBXBXBXBXBX* 6 K E E R R R R R R E E K 6 * BXBXBXBXBXBXBXBX",
"BXBXBXBXBXBXBXBX6 F Q q.9.X.X.X.X.X.X.9.q.Q F 6 BXBXBXBXBXBXBXBX",
"BXBXBXBXBXBX1 r K Q ] X.................X.] Q K r 1 BXBXBXBXBXBX",
"BXBXBXBXBXBX1 y W q...} } ............} } ..q.W y 1 BXBXBXBXBXBX",
"BXBXBXBXBXBX1 y E 9...} } ............} } ..9.E y 1 BXBXBXBXBXBX",
"BXBXBXBXBXBX1 t R X.........................X.R t 1 BXBXBXBXBXBX",
"BXBXBXBXBXBX1 t R X.........................X.R t 1 BXBXBXBXBXBX",
"BXBXBXBXBXBX$ 8 T X.........................X.T 8 $ BXBXBXBXBXBX",
"BXBXBXBXBXBXo 5 T 9.........................9.T 5 o BXBXBXBXBXBX",
"BXBXBXBXBXBX&.f.[ | | ....................| | [ f.&.BXBXBXBXBXBX",
"BXBXBXBX+ -.=X-XP.) _ ...................._ ) P.-X=X-.+ BXBXBXBX",
"BXBXBXBX+ d.gXlX!.~ ( ....................( ~ !.lXgXd.+ BXBXBXBX",
"BXBXBXBX+ d.gXlXQ.! ( ....................( ! Q.lXgXd.+ BXBXBXBX",
"BXBXBXBX+ =.*X;XE.c.0.` ` { } ....} { ` ` 0.c.E.;X*X=.+ BXBXBXBX",
"BXBXBXBXBXBX#.Z._. Xv.^ / ` } ....} ` / ^ v. X_.Z.#.BXBXBXBXBXBX",
"BXBXBXBXBXBX  p A.(.G.B.V.b.x. . .x.b.V.B.G.(.A.p   BXBXBXBXBXBX",
"BXBXBXBXBXBX. > u 2./.#X@X|.n.' ' n.|.@X#X/.2.u > . BXBXBXBXBXBX",
"BXBXBXBXBXBX&.g.k.N.).}.].H.3.Y Y 3.H.].{.).C.z.h.&.BXBXBXBXBXBX",
"BXBXBXBX+ %.&XjXeX0XY.5.B z a 7 7 s z N 4.Y.qXrXkX&X@.+ BXBXBXBX",
"BXBXBXBX+ y.yXMXNXwXJ.d 0 w i g g i q e m K.9XbXmXpXp.+ BXBXBXBX",
"BXBXBXBX+ p.uXvXhXXXo.9 k C 7.8.8.6.V M C O.j.^.zXfXd.+ BXBXBXBX",
"BXBXBXBX+ a.iXxX:X$X1.J :.M.R.OXOXT.m.,.Z f , I oX*X<.+ BXBXBXBX",
"BXBXBXBX+ u.tXnXcXdX~.r.I.<X5X7X7X6X,XL.H 2 - 4 U *.BXBXBXBXBXBX",
"BXBXBXBX+ +.+XaXsX8XW.w.e.t.>X4X3X1X2XU.>.h 3 < # + BXBXBXBXBXBX",
"BXBXBXBXBXBX$.i.s.;.L D D G P S A l..X%X[.S.j & BXBXBXBXBXBXBXBX",
"BXBXBXBXBXBX+ + + @ = : : ; - O X l D.`.'.F.c % BXBXBXBXBXBXBXBX",
"BXBXBXBXBXBXBXBXBXBXBXBXBXBXBXBXBXBXx b n v BXBXBXBXBXBXBXBXBXBX",
"BXBXBXBXBXBXBXBXBXBXBXBXBXBXBXBXBXBX% % % % BXBXBXBXBXBXBXBXBXBX"
};
