/* XPM */
static char *result[] = {
/* columns rows colors chars-per-pixel */
"32 32 123 2 ",
"   c #060F28",
".  c #0D122A",
"X  c #12162C",
"o  c #1A172C",
"O  c #16182D",
"+  c #1E1A2E",
"@  c #1B1E35",
"#  c #1A1F38",
"$  c #221D31",
"%  c #291F33",
"&  c #1C2139",
"*  c #2B2133",
"=  c #222239",
"-  c #332536",
";  c #392636",
":  c #322839",
">  c #3D2B39",
",  c #442D3B",
"<  c #4A2E3C",
"1  c #4D303E",
"2  c #1E394F",
"3  c #222A43",
"4  c #292C43",
"5  c #2A2F4A",
"6  c #21364C",
"7  c #3C3541",
"8  c #2E3451",
"9  c #303552",
"0  c #333855",
"q  c #363D5D",
"w  c #3A3F5E",
"e  c #463544",
"r  c #4A3644",
"t  c #463C46",
"y  c #493D47",
"u  c #41394B",
"i  c #493C4A",
"p  c #533641",
"a  c #5B3642",
"s  c #483D52",
"d  c #613943",
"f  c #6B3C47",
"g  c #663B48",
"h  c #693C49",
"j  c #3C405F",
"k  c #3B4060",
"l  c #354863",
"z  c #3F4A63",
"x  c #3F5571",
"c  c #3D607A",
"v  c #4C424B",
"b  c #434556",
"n  c #494653",
"m  c #42425E",
"M  c #52465F",
"N  c #53485F",
"B  c #5B4B5C",
"V  c #62494F",
"C  c #734449",
"Z  c #7C434D",
"A  c #7D4A4D",
"S  c #6A4D5D",
"D  c #7C4E54",
"F  c #66515D",
"G  c #425168",
"H  c #5E5668",
"J  c #425773",
"K  c #495A74",
"L  c #605B6E",
"P  c #7E5D65",
"I  c #765C69",
"U  c #785F69",
"Y  c #6B6270",
"T  c #776C71",
"R  c #83454F",
"E  c #875357",
"W  c #895356",
"Q  c #8E5A5B",
"!  c #9C5956",
"~  c #9F5E5D",
"^  c #A65D58",
"/  c #9E635D",
"(  c #895961",
")  c #856066",
"_  c #9C6B6E",
"`  c #9A796F",
"'  c #836672",
"]  c #9E7E74",
"[  c #A46363",
"{  c #A76968",
"}  c #A27E72",
"|  c #A48074",
" . c #A7857D",
".. c #B0887D",
"X. c #BC8878",
"o. c #E2947F",
"O. c #3E778E",
"+. c #516981",
"@. c #497D92",
"#. c #607286",
"$. c #3E8498",
"%. c #5C8699",
"&. c #6194A5",
"*. c #9B96A1",
"=. c #A098A3",
"-. c #B4A1A9",
";. c #B6AFB3",
":. c #B9B0B4",
">. c #C49A86",
",. c #CA9C87",
"<. c #C79E88",
"1. c #C89F88",
"2. c #DB9B8E",
"3. c #C5A396",
"4. c #D4AB96",
"5. c #D8AE97",
"6. c #FCBA9C",
"7. c #CABEBD",
"8. c #FFC6A3",
"9. c #F3C9B0",
"0. c #FDCCB2",
"q. c #EACCC6",
"w. c None",
/* pixels */
"w.w.w.w.w.w.w.w.w.w.X X X X X X X X X X X X w.w.w.w.w.w.w.w.w.w.",
"w.w.w.w.w.w.w.w.w.w.& & & & & & & & & & $ # w.w.w.w.w.w.w.w.w.w.",
"w.w.w.w.w.w.w.w.X # 5 9 9 9 9 9 9 9 9 9 0 5 # X w.w.w.w.w.w.w.w.",
"w.w.w.w.w.w.w.w.# 3 0 j j w k k w k w k w 0 3 # w.w.w.w.w.w.w.w.",
"w.w.w.w.w.w.X & 5 0 q w j j j q w w w w w w 0 5 & X w.w.w.w.w.w.",
"w.w.w.w.w.w.X & 9 k j w q q j j w w w w w w k 9 & X w.w.w.w.w.w.",
"w.w.w.w.w.w.X & 9 j j q w j q j w w w w q w w 9 & X w.w.w.w.w.w.",
"w.w.w.w.w.w.X & 9 q j w w w j j w w w w w w w 9 & X w.w.w.w.w.w.",
"w.w.w.w.w.w.X & 9 k w w j q j j w w w w w w w 9 & X w.w.w.w.w.w.",
"w.w.w.w.w.w.. & 8 w w w j q j q w w w w w w w 9 # X w.w.w.w.w.w.",
"w.w.w.w.w.w.. # 8 k w w j j j q w w k w w w k 8 # . w.w.w.w.w.w.",
"w.w.w.w.w.w.t v w w w w j q j j w w w w w w q s i y w.w.w.w.w.w.",
"w.w.w.w.. y |  .L 0 q j w w q j w w w w w w q L  .| y . w.w.w.w.",
"w.w.w.w.. v 1.4.Y q q j w w j w w w w k w q q L 5.1.v . w.w.w.w.",
"w.w.w.w.. v 1.5.I q q q w j j j w w w w w q q Y 4.1.v . w.w.w.w.",
"w.w.w.w.. y | ..U M w q q q q j w w w q q w M U ..| y . w.w.w.w.",
"w.w.w.w.w.w.y V Q ( M q q w q k w w q q q M ( Q B t w.w.w.w.w.w.",
"w.w.w.w.w.w.  % C E S B B N m k w m N B B S E C *   w.w.w.w.w.w.",
"w.w.w.w.w.w.  O % p E [ [ ( N q q N ( [ [ E p % X   w.w.w.w.w.w.",
"w.w.w.w.w.w.y v b B Q ^ ! D s 8 8 s D ! ^ Q B m v t w.w.w.w.w.w.",
"w.w.w.w.. y } 3.:.=.P d , : = # & = : < d P *.;.3.} y . w.w.w.w.",
"w.w.w.w.. v >.9.7.*.F , : * $ $ $ $ % - ; F -.9.0.>.y . w.w.w.w.",
"w.w.w.w.. v <.5.T n r a h g < , > r g a - e _ 2.6.>.v . w.w.w.w.",
"w.w.w.w.. y } ` 7 o > a Z Z f a d f R d % > / 2.6.>.v . w.w.w.w.",
"w.w.w.w.w.w.y 7 + + , p d f Z R R R f < + t X.6.8.>.v . w.w.w.w.",
"w.w.w.w.w.w.. . X @ ; , y B I ' ' I B u 4 n ] ,.,.] t . w.w.w.w.",
"w.w.w.w.w.w.w.w.X O o 4 z +.%.&.&.%.+.K J G n v y y w.w.w.w.w.w.",
"w.w.w.w.w.w.w.w.X @ - i H #.@.$.$.O.c x x l & . . . w.w.w.w.w.w.",
"w.w.w.w.w.w.w.w.X : C / { ) b 2 2 6 3 3 3 3 w.w.w.w.w.w.w.w.w.w.",
"w.w.w.w.w.w.w.w.X > D ! ! A ; . . X X X X X w.w.w.w.w.w.w.w.w.w.",
"w.w.w.w.w.w.w.w.w.w.> > > > w.w.w.w.w.w.w.w.w.w.w.w.w.w.w.w.w.w.",
"w.w.w.w.w.w.w.w.w.w.. X . . w.w.w.w.w.w.w.w.w.w.w.w.w.w.w.w.w.w."
};
