/* XPM */
static char *result[] = {
/* columns rows colors chars-per-pixel */
"32 32 161 2 ",
"   c #0D132B",
".  c #11162C",
"X  c #18182D",
"o  c #141A33",
"O  c #1B1E35",
"+  c #261E33",
"@  c #281E31",
"#  c #1C2139",
"$  c #2D2234",
"%  c #21283F",
"&  c #2B283D",
"*  c #282338",
"=  c #312436",
"-  c #392736",
";  c #3B2937",
":  c #372938",
">  c #3B2B3A",
",  c #37323F",
"<  c #472A38",
"1  c #43323F",
"2  c #1E2D45",
"3  c #1E374D",
"4  c #1E394F",
"5  c #232843",
"6  c #2A2E4A",
"7  c #252841",
"8  c #3C3543",
"9  c #37354B",
"0  c #2D3352",
"q  c #303552",
"w  c #333855",
"e  c #363C5C",
"r  c #3A3F5E",
"t  c #453C46",
"y  c #4A3D47",
"u  c #5E3A43",
"i  c #5A3544",
"p  c #483F50",
"a  c #623745",
"s  c #6B3843",
"d  c #3C425D",
"f  c #3B4060",
"g  c #3C5F79",
"h  c #4C414A",
"j  c #5B434A",
"k  c #41435B",
"l  c #4F4655",
"z  c #554750",
"x  c #534B5C",
"c  c #5B4C59",
"v  c #554959",
"b  c #664A4F",
"n  c #74424C",
"m  c #7B494D",
"M  c #78474B",
"N  c #6A4B5C",
"B  c #654853",
"V  c #7D4E52",
"C  c #66545F",
"Z  c #454662",
"A  c #494F68",
"S  c #5D5462",
"D  c #5D5669",
"F  c #435873",
"G  c #555F79",
"H  c #645B6D",
"J  c #6A5F6F",
"K  c #685661",
"L  c #7A5863",
"P  c #556079",
"I  c #6B606F",
"U  c #796260",
"Y  c #7E646D",
"T  c #6D6173",
"R  c #84444D",
"E  c #894A54",
"W  c #985755",
"Q  c #995957",
"!  c #975459",
"~  c #A45D59",
"^  c #A5625D",
"/  c #BC675F",
"(  c #8A5662",
")  c #815B69",
"_  c #83696D",
"`  c #986769",
"'  c #8B706F",
"]  c #97776E",
"[  c #8D6D71",
"{  c #8E797C",
"}  c #9E7C73",
"|  c #927B7D",
" . c #A66A64",
".. c #B96C65",
"X. c #B2746C",
"o. c #A06770",
"O. c #A46F79",
"+. c #A17E74",
"@. c #A47379",
"#. c #AF7A79",
"$. c #B47775",
"%. c #C97A6D",
"&. c #C1726A",
"*. c #A9847C",
"=. c #BD8A7B",
"-. c #D38876",
";. c #C8907E",
":. c #E0947E",
">. c #3D778D",
",. c #5F6E85",
"<. c #8F7F8B",
"1. c #3D8196",
"2. c #458598",
"3. c #5F8699",
"4. c #5B91A0",
"5. c #649BAD",
"6. c #779DAA",
"7. c #6EADBE",
"8. c #6FB7C9",
"9. c #72B7C9",
"0. c #868C97",
"q. c #AC8B85",
"w. c #A88680",
"e. c #B19EA9",
"r. c #9CAAB6",
"t. c #B8A5AD",
"y. c #AFB2BD",
"u. c #B0B2BD",
"i. c #C69A86",
"p. c #CA9C86",
"a. c #CC9E8A",
"s. c #C69386",
"d. c #D69883",
"f. c #D19E88",
"g. c #CFA08C",
"h. c #D7A78E",
"j. c #C8A497",
"k. c #D3A693",
"l. c #D2A895",
"z. c #DEAC94",
"x. c #DBAB95",
"c. c #E7A88D",
"v. c #ECAD92",
"b. c #F2AE92",
"n. c #E1B198",
"m. c #F3BE9E",
"M. c #FBBA99",
"N. c #C5A5AB",
"B. c #C2B4B6",
"V. c #F4BEA0",
"C. c #FBC3A1",
"Z. c #FFCEA9",
"A. c #FFCCA7",
"S. c #AEB8C4",
"D. c #B8B7C1",
"F. c #CFBFC7",
"G. c #BFD8E3",
"H. c #CEC1C8",
"J. c #EAEBF2",
"K. c #E7EAF2",
"L. c None",
/* pixels */
"L.L.L.L.L.L.L.L.L.L.. . . . . . . . . . . . L.L.L.L.L.L.L.L.L.L.",
"L.L.L.L.L.L.L.L.L.L.# # # # # # # # # # # O L.L.L.L.L.L.L.L.L.L.",
"L.L.L.L.L.L.L.L.. O 6 0 w q q q q q w q w 6 O . L.L.L.L.L.L.L.L.",
"L.L.L.L.L.L.L.L.O 7 w f r f r r f r f r f w 7 O L.L.L.L.L.L.L.L.",
"L.L.L.L.L.L.. # 6 w r r r r r r r r r r r e w 6 # . L.L.L.L.L.L.",
"L.L.L.L.L.L.. # q f r r e e r r r r r r r r f q # . L.L.L.L.L.L.",
"L.L.L.L.L.L.. # q d r e e e r d r r r r e r d q # . L.L.L.L.L.L.",
"L.L.L.L.L.L.. # 0 e e Z D H Z e r r r r r r r q # . L.L.L.L.L.L.",
"L.L.L.L.L.L.. # 0 e w D q.q.H e r r r r r r r q # . L.L.L.L.L.L.",
"L.L.L.L.L.L.. & x J H <.n.l.I e e r r r r r r q # . L.L.L.L.L.L.",
"L.L.L.L.L.L.  t +.k.h.z.C.j.T e e r r r r r r q # o L.L.L.L.L.L.",
"L.L.L.L.L.L.  h i.C.z.g.a.*.D e e e e r r r r q # . L.L.L.L.L.L.",
"L.L.L.L.L.L.  h i.z.' c c x f e e e e e r r r q # . L.L.L.L.L.L.",
"L.L.L.L.L.L.  h p.a.c 7 p x p Z D I J H Z r f 0 # . L.L.L.L.L.L.",
"L.L.L.L.L.L.  h p.a.h 8 } *.D D q.x.k.w.D e d q # . L.L.L.L.L.L.",
"L.L.L.L.L.L.  y =.=.t t i.j.J D s.M.C.k.J e w 6 # . L.L.L.L.L.L.",
"L.L.L.L.L.L.  1 ` ^ > t s.k.H v  .d.M.k.T 0 5 O L.L.L.L.L.L.L.L.",
"L.L.L.L.L.L.. > m E j U k.x.{ _ X.-.d.*.S 5 o   L.L.L.L.L.L.L.L.",
"L.L.L.L.L.L.L.L.= j +.h.m.V.n.h.v.d.` b & o .       L.L.L.L.L.L.",
"L.L.L.L.L.L.L.L.$ b ;.b.f.f.c.b.v.s.' N z y h y y t L.L.L.L.L.L.",
"L.L.L.L.L.L.. : M ^ -. .b b X.%...<.t.B.j.p.i.i.i.} t   L.L.L.L.",
"L.L.L.L.L.L.. > Q / ~ V l C +.$.~ o.e.B.j.h.m.A.Z.i.y   L.L.L.L.",
"L.L.L.L.L.L.  1 W ~ 1 c 0.u.H.N.o.E L K z U h.Z.Z.i.h   L.L.L.L.",
"L.L.L.L.L.L.  ; m M $ k y.J.K.H.O.R s < X > ] p.p.} t   L.L.L.L.",
"L.L.L.L.L.L.L.L.: $ . d y.J.K.H.O.E R a @ O 8 p h h L.L.L.L.L.L.",
"L.L.L.L.L.L.L.L.: ; - S r.G.G.y.<.L ( N 9 5 * + .   L.L.L.L.L.L.",
"L.L.L.L.L.L.. > M W W ' 6.8.8.7.5.3.,.G F A N i +   L.L.L.L.L.L.",
"L.L.L.L.L.L.. = n ~ / $.0.4.2.1.1.>.g F G T ( s = . L.L.L.L.L.L.",
"L.L.L.L.L.L.. O = j ~ &.$._ d 3 0 3 2 9 N ( ! n =   L.L.L.L.L.L.",
"L.L.L.L.L.L.X .   : m W W m ;         $ i n n i = . L.L.L.L.L.L.",
"L.L.L.L.L.L.L.L.L.L.> > > ; L.L.L.L.L.L.= = = $ L.L.L.L.L.L.L.L.",
"L.L.L.L.L.L.L.L.L.L..     . L.L.L.L.L.L.. .   o L.L.L.L.L.L.L.L."
};
