/* XPM */
static char *result[] = {
/* columns rows colors chars-per-pixel */
"32 32 134 2 ",
"   c #070D25",
".  c #090F27",
"X  c #070F28",
"o  c #0B1027",
"O  c #0D132A",
"+  c #12162C",
"@  c #14182E",
"#  c #1A1A2F",
"$  c #161A33",
"%  c #1B1E35",
"&  c #271F34",
"*  c #1C2139",
"=  c #2C2235",
"-  c #20253C",
";  c #292439",
":  c #28283D",
">  c #322436",
",  c #332538",
"<  c #372838",
"1  c #3B2B3A",
"2  c #42313F",
"3  c #212641",
"4  c #242843",
"5  c #292A42",
"6  c #242F48",
"7  c #2A2E4A",
"8  c #293349",
"9  c #3E3645",
"0  c #3D3448",
"q  c #32394E",
"w  c #2D3352",
"e  c #303552",
"r  c #343A54",
"t  c #393C52",
"y  c #363C5C",
"u  c #3A3F5E",
"i  c #453B45",
"p  c #493D47",
"a  c #5A3544",
"s  c #593A49",
"d  c #483F50",
"f  c #603847",
"g  c #3D4357",
"h  c #3B405F",
"j  c #3B4060",
"k  c #4D424A",
"l  c #5D454B",
"z  c #41445A",
"x  c #584B56",
"c  c #54475E",
"v  c #534A5A",
"b  c #5B4C59",
"n  c #61444B",
"m  c #75434C",
"M  c #78474B",
"N  c #634354",
"B  c #6A4D50",
"V  c #7A4754",
"C  c #7F5155",
"Z  c #454662",
"A  c #474D66",
"S  c #544E60",
"D  c #5F5162",
"F  c #52526A",
"G  c #5D5669",
"H  c #615161",
"J  c #645B6D",
"K  c #695F6C",
"L  c #6B606F",
"P  c #7B6361",
"I  c #7E646D",
"U  c #6B6271",
"Y  c #804E50",
"T  c #855757",
"R  c #80505E",
"E  c #8D575D",
"W  c #955554",
"Q  c #9A5958",
"!  c #9C6161",
"~  c #8B706F",
"^  c #8A6D70",
"/  c #8C7378",
"(  c #8E797C",
")  c #9D7B73",
"_  c #927B7D",
"`  c #A26561",
"'  c #A56962",
"]  c #A56B69",
"[  c #B4726B",
"{  c #A37F75",
"}  c #CE7E72",
"|  c #A58175",
" . c #A6847E",
".. c #B88477",
"X. c #B28A7E",
"o. c #BC897A",
"O. c #D88575",
"+. c #D28979",
"@. c #E0947E",
"#. c #596E86",
"$. c #8A8E9C",
"%. c #93919E",
"&. c #A88680",
"*. c #AB8A84",
"=. c #B98A80",
"-. c #9396A4",
";. c #9A97A3",
":. c #969FAE",
">. c #A7A0A8",
",. c #C29084",
"<. c #C49A85",
"1. c #CB9C87",
"2. c #CC9E8A",
"3. c #D29D8B",
"4. c #CFA08C",
"5. c #D7A78E",
"6. c #DEA48C",
"7. c #D3A693",
"8. c #D9A792",
"9. c #D2A894",
"0. c #DDAC93",
"q. c #DDAE98",
"w. c #E5A68F",
"e. c #EAAA8F",
"r. c #ECAC93",
"t. c #E1B198",
"y. c #F5B094",
"u. c #FAB396",
"i. c #F5BE9E",
"p. c #FBB999",
"a. c #F4BEA0",
"s. c #FBC2A1",
"d. c #FFCCA8",
"f. c None",
/* pixels */
"f.f.f.f.f.f.f.f.f.f.f.f.f.f.f.f.f.f.f.f.f.f.f.f.f.f.f.f.f.f.f.f.",
"f.f.f.f.f.f.f.f.f.f.f.f.f.f.f.f.f.f.f.f.f.f.f.f.f.f.f.f.f.f.f.f.",
"f.f.f.f.f.f.f.f.f.f.+ @ + + + + + + + + + + f.f.f.f.f.f.f.f.f.f.",
"f.f.f.f.f.f.f.f.f.f.* * * * * * * * * * * * f.f.f.f.f.f.f.f.f.f.",
"f.f.f.f.f.f.f.f.+ % 7 e e e e e e e e e e 7 % + f.f.f.f.f.f.f.f.",
"f.f.f.f.f.f.f.f.% 4 e j h u u u j j u h j r 4 % f.f.f.f.f.f.f.f.",
"f.f.f.f.f.f.+ * 7 r y u u u u u u u u u j y r 7 * + f.f.f.f.f.f.",
"f.f.f.f.f.f.+ * e j u u u y u u u u u u u u j e * + f.f.f.f.f.f.",
"f.f.f.f.f.f.+ * e j u y y y u u h u u u u u h e * + f.f.f.f.f.f.",
"f.f.f.f.f.f.+ * w u y Z G J Z u u u u u u u u e * + f.f.f.f.f.f.",
"f.f.f.f.f.f.O % w y y G *.*.G y u u u u u u u e * + f.f.f.f.f.f.",
"f.f.f.f.f.f.+ : c L L ( t.9.U y y u h u u u u e * + f.f.f.f.f.f.",
"f.f.f.f.f.f.O i ) 9.7.t.a.9.L y y u u u u u u e * + f.f.f.f.f.f.",
"f.f.f.f.f.f.o k <.s.0.5.2. .G y y y y u u u u e * + f.f.f.f.f.f.",
"f.f.f.f.f.f.O k <.q.~ b b c d y u y y y u u u e * + f.f.f.f.f.f.",
"f.f.f.f.f.f.O k <.2.x 5 d v j Z G K K G Z u j e * + f.f.f.f.f.f.",
"f.f.f.f.f.f.O k <.1.k 9 )  .G G *.8.8.*.G y j e * + f.f.f.f.f.f.",
"f.f.f.f.f.f.O p o.o.i p <.9.J G ,.p.s.9.U y e 7 * + f.f.f.f.f.f.",
"f.f.f.f.f.f.O 2 ] ` 1 i <.9.J c ' 3.p.9.U w 3 % f.f.f.f.f.f.f.f.",
"f.f.f.f.f.f.O 1 M Y l P 5.q./ ^ [ +.3.&.S 4 $ + f.f.f.f.f.f.f.f.",
"f.f.f.f.f.f.f.f., l | 0.i.i.q.5.r.3./ S 5 $ + + f.f.f.f.f.f.f.f.",
"f.f.f.f.f.f.f.f.  p | 1.<.1.e.y.r.=.H r z t ; + f.f.f.f.f.f.f.f.",
"f.f.f.f.f.f.f.f.f.f.p k p B [ } [ E f H ;.$.t O f.f.f.f.f.f.f.f.",
"f.f.f.f.f.f.f.f.f.f.o * q v C Q ` ! T ^ >.-.z + f.f.f.f.f.f.f.f.",
"f.f.f.f.f.f.f.f.f.f.o q $.%.v n ..w.6.X.K z f.f.f.f.f.f.f.f.f.f.",
"f.f.f.f.f.f.f.f.f.f.O g :.:.t i =.d.d.<.i   f.f.f.f.f.f.f.f.f.f.",
"f.f.f.f.f.f.f.f.f.f.O 7 #.#.6 p 4.d.d.<.p o f.f.f.f.f.f.f.f.f.f.",
"f.f.f.f.f.f.f.f.f.f.> 0 F A - i o.y.u.o.i O f.f.f.f.f.f.f.f.f.f.",
"f.f.f.f.f.f.f.f.+ > a V T B : 1 ` O.O.` 9 O f.f.f.f.f.f.f.f.f.f.",
"f.f.f.f.f.f.f.f.+ & a V m 2 & > m W W M 1 O f.f.f.f.f.f.f.f.f.f.",
"f.f.f.f.f.f.f.f.+ % & , < & # % > 1 < < f.f.f.f.f.f.f.f.f.f.f.f.",
"f.f.f.f.f.f.f.f.@ @ + + + @ @ + + O O O f.f.f.f.f.f.f.f.f.f.f.f."
};
