/* XPM */
static char *c3caa9f10c394bfeda81bfa215cea001qY5JXZYtpwDBkArn[] = {
/* columns rows colors chars-per-pixel */
"30 30 2 1 ",
"  c #757474",
". c #00FF66",
/* pixels */
"..............................",
"..............................",
"..............................",
"..............................",
"..............................",
"..............................",
"..............................",
".....                    .....",
".....                    .....",
".....                    .....",
".....                    .....",
".....                    .....",
".....                    .....",
".....                    .....",
".....                    .....",
".....                    .....",
".....                    .....",
".....                    .....",
".....                    .....",
".....                    .....",
".....                    .....",
".....                    .....",
".....                    .....",
".....                    .....",
"..............................",
"..............................",
"..............................",
"..............................",
"..............................",
".............................."
};
