/* XPM */
static char *_6738de467c64d00f1b855a6b07a4e01yViRpFj4EeSTGeAY[] = {
/* columns rows colors chars-per-pixel */
"30 30 2 1 ",
"  c black",
". c #757474",
/* pixels */
"                              ",
"                              ",
"                              ",
"                              ",
"                              ",
"                              ",
"                              ",
"     ....................     ",
"     ....................     ",
"     ....................     ",
"     ....................     ",
"     ....................     ",
"     ....................     ",
"     ....................     ",
"     ....................     ",
"     ....................     ",
"     ....................     ",
"     ....................     ",
"     ....................     ",
"     ....................     ",
"     ....................     ",
"     ....................     ",
"     ....................     ",
"     ....................     ",
"                              ",
"                              ",
"                              ",
"                              ",
"                              ",
"                              "
};
