/* XPM */
static char *_8357295d2044f74a3e82319194b0ffe5VebcPbYiJxgGuaL[] = {
/* columns rows colors chars-per-pixel */
"30 30 23 1 ",
"  c black",
". c #070700",
"X c #101000",
"o c #1E1E00",
"O c #202100",
"+ c #2F3000",
"@ c #383900",
"# c #444500",
"$ c #6A6C00",
"% c #6F7100",
"& c #717300",
"* c #797B00",
"= c #878900",
"- c #9EA100",
"; c #A7AA00",
": c #A9AC00",
"> c #B1B300",
", c #D6D900",
"< c #DADE00",
"1 c #E8EC00",
"2 c #EFF300",
"3 c #F3F700",
"4 c #FBFF00",
/* pixels */
"                              ",
"                              ",
"               $              ",
"               ;              ",
"              ;4              ",
"             ;44              ",
"     $+      ;44       +$     ",
"     O2-o    ;44;    o-2O     ",
"      *43=X ;4444; X=34*      ",
"      .,441%:4444:%144,.      ",
"       #44444444444444#       ",
"        ;444444444444;        ",
"        >244444444442@O       ",
"     OO;44444444444444;;      ",
"  $;44444444444444444444;     ",
"    ;44444444444444444444;$   ",
"     ;;;44444444444444;O      ",
"        ;44444444444&O        ",
"        o244444444442o        ",
"        ;444444444444;        ",
"       #4444<4444<4444#       ",
"      .,441%:4444:%144,.      ",
"      *43=X  ;44;  X=34*      ",
"     O2-o    O44;    o-2O     ",
"     $+      O44;      +$     ",
"              4;              ",
"              ;               ",
"              $               ",
"                              ",
"                              "
};
