/* XPM */
static char *_1e2fe1b638e4de898bfc69c3256b3f76unveb6JvaS43XTp[] = {
/* columns rows colors chars-per-pixel */
"30 30 2 1 ",
"  c #00FF66",
". c #FFF700",
/* pixels */
"                              ",
"                              ",
"                              ",
"                              ",
"                              ",
"                              ",
"                              ",
"     ....................     ",
"     ....................     ",
"     ....................     ",
"     ....................     ",
"     ....................     ",
"     ....................     ",
"     ....................     ",
"     ....................     ",
"     ....................     ",
"     ....................     ",
"     ....................     ",
"     ....................     ",
"     ....................     ",
"     ....................     ",
"     ....................     ",
"     ....................     ",
"     ....................     ",
"                              ",
"                              ",
"                              ",
"                              ",
"                              ",
"                              "
};
