/* XPM */
static char *_6abe26b0d6c4497b0ea35d2b4261677o8C5EgoSs0xxpe4c[] = {
/* columns rows colors chars-per-pixel */
"30 30 7 1 ",
"  c black",
". c #030178",
"X c #00FF66",
"o c #9D9A31",
"O c #A19D2F",
"+ c #FFF700",
"@ c #0400FF",
/* pixels */
"XXXXXXXXXXXXXXXXXXXXXXXXXXXXXX",
"XXXXXXXXXXXXXXXXXXXXXXXXXXXXXX",
"XXXXXXXXXXXXXXXXXXXXXXXXXXXXXX",
"XXXXXXXXXXXXXXXXXXXXXXXXXXXXXX",
"XXXXXXXXXXXXXXXXXXXXXXXXXXXXXX",
"XXXXXXXXXXXXXXXXXXXXXXXXXXXXXX",
"XXXXXXXXXXXXXXXXXXXXXXXXXXXXXX",
"XXXXX++++++++++++++++++++XXXXX",
"XXXXX++++++++++++++++++++XXXXX",
"XXXXX++++++++++++++++++++XXXXX",
"XXXXX++++++++++++++++++++XXXXX",
"XXXXX++++++++++++++++++++XXXXX",
"XXXXX+++++++++++++++O  O+XXXXX",
"XXXXX++++++++++++++o.@@.oXXXXX",
"XXXXX++++++++++++++ @@@@ XXXXX",
"XXXXX++++++++++++++ @@@@ XXXXX",
"XXXXX++++++++++++++O.@@.oXXXXX",
"XXXXX+++++++++++++++o  o+XXXXX",
"XXXXX++++++++++++++++++++XXXXX",
"XXXXX++++++++++++++++++++XXXXX",
"XXXXX++++++++++++++++++++XXXXX",
"XXXXX++++++++++++++++++++XXXXX",
"XXXXX++++++++++++++++++++XXXXX",
"XXXXX++++++++++++++++++++XXXXX",
"XXXXXXXXXXXXXXXXXXXXXXXXXXXXXX",
"XXXXXXXXXXXXXXXXXXXXXXXXXXXXXX",
"XXXXXXXXXXXXXXXXXXXXXXXXXXXXXX",
"XXXXXXXXXXXXXXXXXXXXXXXXXXXXXX",
"XXXXXXXXXXXXXXXXXXXXXXXXXXXXXX",
"XXXXXXXXXXXXXXXXXXXXXXXXXXXXXX"
};
