/* XPM */
static char *_696fdb5d74748e3b25dc7ca3c8b07c3urRQmGbl4bAQUANK[] = {
/* columns rows colors chars-per-pixel */
"30 30 7 1 ",
"  c black",
". c #030178",
"X c #00FF66",
"o c #A29E2F",
"O c #FFF700",
"+ c #F8F007",
"@ c #0400FF",
/* pixels */
"XXXXXXXXXXXXXXXXXXXXXXXXXXXXXX",
"XXXXXXXXXXXXXXXXXXXXXXXXXXXXXX",
"XXXXXXXXXXXXXXXXXXXXXXXXXXXXXX",
"XXXXXXXXXXXXXXXXXXXXXXXXXXXXXX",
"XXXXXXXXXXXXXXXXXXXXXXXXXXXXXX",
"XXXXXXXXXXXXXXXXXXXXXXXXXXXXXX",
"XXXXXXXXXXXXXXXXXXXXXXXXXXXXXX",
"XXXXXOOOOOOOOOOOOOO+o  o+XXXXX",
"XXXXXOOOOOOOOOOOOOOo.@@.oXXXXX",
"XXXXXOOOOOOOOOOOOOO @@@@ XXXXX",
"XXXXXOOOOOOOOOOOOOO @@@@ XXXXX",
"XXXXXOOOOOOOOOOOOOOo.@@.oXXXXX",
"XXXXXOOOOOOOOOOOOOO+o  o+XXXXX",
"XXXXXOOOOOOOOOOOOOOOOOOOOXXXXX",
"XXXXXOOOOOOOOOOOOOOOOOOOOXXXXX",
"XXXXXOOOOOOOOOOOOOOOOOOOOXXXXX",
"XXXXXOOOOOOOOOOOOOOOOOOOOXXXXX",
"XXXXXOOOOOOOOOOOOOOOOOOOOXXXXX",
"XXXXXOOOOOOOOOOOOOOOOOOOOXXXXX",
"XXXXXOOOOOOOOOOOOOOOOOOOOXXXXX",
"XXXXXOOOOOOOOOOOOOOOOOOOOXXXXX",
"XXXXXOOOOOOOOOOOOOOOOOOOOXXXXX",
"XXXXXOOOOOOOOOOOOOOOOOOOOXXXXX",
"XXXXXOOOOOOOOOOOOOOOOOOOOXXXXX",
"XXXXXXXXXXXXXXXXXXXXXXXXXXXXXX",
"XXXXXXXXXXXXXXXXXXXXXXXXXXXXXX",
"XXXXXXXXXXXXXXXXXXXXXXXXXXXXXX",
"XXXXXXXXXXXXXXXXXXXXXXXXXXXXXX",
"XXXXXXXXXXXXXXXXXXXXXXXXXXXXXX",
"XXXXXXXXXXXXXXXXXXXXXXXXXXXXXX"
};
