/* XPM */
static char *c5d23ff2a87f41c6ec1a31c1f83948c3eA1p9kUbWaVCHCGf[] = {
/* columns rows colors chars-per-pixel */
"30 30 7 1 ",
"  c black",
". c #030178",
"X c #00FF66",
"o c #A29E2F",
"O c #FFF700",
"+ c #F8F007",
"@ c #0400FF",
/* pixels */
"XXXXXXXXXXXXXXXXXXXXXXXXXXXXXX",
"XXXXXXXXXXXXXXXXXXXXXXXXXXXXXX",
"XXXXXXXXXXXXXXXXXXXXXXXXXXXXXX",
"XXXXXXXXXXXXXXXXXXXXXXXXXXXXXX",
"XXXXXXXXXXXXXXXXXXXXXXXXXXXXXX",
"XXXXXXXXXXXXXXXXXXXXXXXXXXXXXX",
"XXXXXXXXXXXXXXXXXXXXXXXXXXXXXX",
"XXXXXOOOOOOOOOOOOOO+OOOO+XXXXX",
"XXXXXOOOOOOOOOOOOOOOOOOOOXXXXX",
"XXXXXOOOOOOOOOOOOOOOOOOOOXXXXX",
"XXXXXOOOOOOOOOOOOOOOOOOOOXXXXX",
"XXXXXOOOOOOOOOOOOOOOOOOOOXXXXX",
"XXXXXOOOOOOOOOOOOOOOOOOO+XXXXX",
"XXXXXOOOOOOOOOOOOOOOOOOOOXXXXX",
"XXXXXOOOOOOOOOOOOOOOOOOOOXXXXX",
"XXXXXOOOOOOOOOOOOOOOOOOOOXXXXX",
"XXXXXOOOOOOOOOOOOOOOOOOOOXXXXX",
"XXXXXOOOOOOOOOOOOOOOOOOOOXXXXX",
"XXXXXOOOOOOOOOOOOOO+o  o+XXXXX",
"XXXXXOOOOOOOOOOOOOOo.@@.oXXXXX",
"XXXXXOOOOOOOOOOOOOO @@@@ XXXXX",
"XXXXXOOOOOOOOOOOOOO @@@@ XXXXX",
"XXXXXOOOOOOOOOOOOOOo.@@.oXXXXX",
"XXXXXOOOOOOOOOOOOOO+o  o+XXXXX",
"XXXXXXXXXXXXXXXXXXXXXXXXXXXXXX",
"XXXXXXXXXXXXXXXXXXXXXXXXXXXXXX",
"XXXXXXXXXXXXXXXXXXXXXXXXXXXXXX",
"XXXXXXXXXXXXXXXXXXXXXXXXXXXXXX",
"XXXXXXXXXXXXXXXXXXXXXXXXXXXXXX",
"XXXXXXXXXXXXXXXXXXXXXXXXXXXXXX"
};
