/* XPM */
static char *_62bb960c27f4c7bec395a55fb66e68d9bnF3oQ3t7J68DoS[] = {
/* columns rows colors chars-per-pixel */
"30 30 6 1 ",
"  c black",
". c #030178",
"X c #00FF66",
"o c #A19D2F",
"O c #FFF700",
"+ c #0400FF",
/* pixels */
"XXXXXXXXXXXXXXXXXXXXXXXXXXXXXX",
"XXXXXXXXXXXXXXXXXXXXXXXXXXXXXX",
"XXXXXXXXXXXXXXXXXXXXXXXXXXXXXX",
"XXXXXXXXXXXXXXXXXXXXXXXXXXXXXX",
"XXXXXXXXXXXXXXXXXXXXXXXXXXXXXX",
"XXXXXXXXXXXXXXXXXXXXXXXXXXXXXX",
"XXXXXXXXXXXXXXXXXXXXXXXXXXXXXX",
"XXXXXOOOOOOOOOOOOOOOOOOOOXXXXX",
"XXXXXOOOOOOOOOOOOOOOOOOOOXXXXX",
"XXXXXOOOOOOOOOOOOOOOOOOOOXXXXX",
"XXXXXOOOOOOOOOOOOOOOOOOOOXXXXX",
"XXXXXOOOOOOOOOOOOOOOOOOOOXXXXX",
"XXXXXOOOOOOOOOOOOOOOOOOOOXXXXX",
"XXXXXOOOOOOOOOOOOOOOOOOOOXXXXX",
"XXXXXOOOOOOOOOOOOOOOOOOOOXXXXX",
"XXXXXOOOOOOOOOOOOOOOOOOOOXXXXX",
"XXXXXOOOOOOOOOOOOOOOOOOOOXXXXX",
"XXXXXOOOOOOOOOOOOOOOOOOOOXXXXX",
"XXXXXOOOOOOOOo  oOOOOOOOOXXXXX",
"XXXXXOOOOOOOo.++.oOOOOOOOXXXXX",
"XXXXXOOOOOOO ++++ OOOOOOOXXXXX",
"XXXXXOOOOOOO ++++ OOOOOOOXXXXX",
"XXXXXOOOOOOOo.++.oOOOOOOOXXXXX",
"XXXXXOOOOOOOOo  oOOOOOOOOXXXXX",
"XXXXXXXXXXXXXXXXXXXXXXXXXXXXXX",
"XXXXXXXXXXXXXXXXXXXXXXXXXXXXXX",
"XXXXXXXXXXXXXXXXXXXXXXXXXXXXXX",
"XXXXXXXXXXXXXXXXXXXXXXXXXXXXXX",
"XXXXXXXXXXXXXXXXXXXXXXXXXXXXXX",
"XXXXXXXXXXXXXXXXXXXXXXXXXXXXXX"
};
