/* XPM */
static char *cc0c3d3771e946b8859b033449340114zqH5j4aaUjxnFDxS[] = {
/* columns rows colors chars-per-pixel */
"30 30 6 1 ",
"  c black",
". c #030178",
"X c #00FF66",
"o c #A19D2F",
"O c #FFF700",
"+ c #0400FF",
/* pixels */
"XXXXXXXXXXXXXXXXXXXXXXXXXXXXXX",
"XXXXXXXXXXXXXXXXXXXXXXXXXXXXXX",
"XXXXXXXXXXXXXXXXXXXXXXXXXXXXXX",
"XXXXXXXXXXXXXXXXXXXXXXXXXXXXXX",
"XXXXXXXXXXXXXXXXXXXXXXXXXXXXXX",
"XXXXXXXXXXXXXXXXXXXXXXXXXXXXXX",
"XXXXXXXXXXXXXXXXXXXXXXXXXXXXXX",
"XXXXXOOOOOOOOo  oOOOOOOOOXXXXX",
"XXXXXOOOOOOOo.++.oOOOOOOOXXXXX",
"XXXXXOOOOOOO ++++ OOOOOOOXXXXX",
"XXXXXOOOOOOO ++++ OOOOOOOXXXXX",
"XXXXXOOOOOOOo.++.oOOOOOOOXXXXX",
"XXXXXOOOOOOOOo  oOOOOOOOOXXXXX",
"XXXXXOOOOOOOOOOOOOOOOOOOOXXXXX",
"XXXXXOOOOOOOOOOOOOOOOOOOOXXXXX",
"XXXXXOOOOOOOOOOOOOOOOOOOOXXXXX",
"XXXXXOOOOOOOOOOOOOOOOOOOOXXXXX",
"XXXXXOOOOOOOOOOOOOOOOOOOOXXXXX",
"XXXXXOOOOOOOOOOOOOOOOOOOOXXXXX",
"XXXXXOOOOOOOOOOOOOOOOOOOOXXXXX",
"XXXXXOOOOOOOOOOOOOOOOOOOOXXXXX",
"XXXXXOOOOOOOOOOOOOOOOOOOOXXXXX",
"XXXXXOOOOOOOOOOOOOOOOOOOOXXXXX",
"XXXXXOOOOOOOOOOOOOOOOOOOOXXXXX",
"XXXXXXXXXXXXXXXXXXXXXXXXXXXXXX",
"XXXXXXXXXXXXXXXXXXXXXXXXXXXXXX",
"XXXXXXXXXXXXXXXXXXXXXXXXXXXXXX",
"XXXXXXXXXXXXXXXXXXXXXXXXXXXXXX",
"XXXXXXXXXXXXXXXXXXXXXXXXXXXXXX",
"XXXXXXXXXXXXXXXXXXXXXXXXXXXXXX"
};
