/* XPM */
static char *bfe3e002f414471eedd89549070fb91drqt3KHOr6nmkavcr[] = {
/* columns rows colors chars-per-pixel */
"30 30 7 1 ",
"  c black",
". c #030178",
"X c #00FF66",
"o c #9C9932",
"O c #A29E2F",
"+ c #FFF700",
"@ c #0400FF",
/* pixels */
"XXXXXXXXXXXXXXXXXXXXXXXXXXXXXX",
"XXXXXXXXXXXXXXXXXXXXXXXXXXXXXX",
"XXXXXXXXXXXXXXXXXXXXXXXXXXXXXX",
"XXXXXXXXXXXXXXXXXXXXXXXXXXXXXX",
"XXXXXXXXXXXXXXXXXXXXXXXXXXXXXX",
"XXXXXXXXXXXXXXXXXXXXXXXXXXXXXX",
"XXXXXXXXXXXXXXXXXXXXXXXXXXXXXX",
"XXXXX++++++++++++++++++++XXXXX",
"XXXXX++++++++++++++++++++XXXXX",
"XXXXX++++++++++++++++++++XXXXX",
"XXXXX++++++++++++++++++++XXXXX",
"XXXXX++++++++++++++++++++XXXXX",
"XXXXX+O  O+++++++++++++++XXXXX",
"XXXXXo.@@.o++++++++++++++XXXXX",
"XXXXX @@@@ ++++++++++++++XXXXX",
"XXXXX @@@@ ++++++++++++++XXXXX",
"XXXXXo.@@.O++++++++++++++XXXXX",
"XXXXX+o  o+++++++++++++++XXXXX",
"XXXXX++++++++++++++++++++XXXXX",
"XXXXX++++++++++++++++++++XXXXX",
"XXXXX++++++++++++++++++++XXXXX",
"XXXXX++++++++++++++++++++XXXXX",
"XXXXX++++++++++++++++++++XXXXX",
"XXXXX++++++++++++++++++++XXXXX",
"XXXXXXXXXXXXXXXXXXXXXXXXXXXXXX",
"XXXXXXXXXXXXXXXXXXXXXXXXXXXXXX",
"XXXXXXXXXXXXXXXXXXXXXXXXXXXXXX",
"XXXXXXXXXXXXXXXXXXXXXXXXXXXXXX",
"XXXXXXXXXXXXXXXXXXXXXXXXXXXXXX",
"XXXXXXXXXXXXXXXXXXXXXXXXXXXXXX"
};
