/* XPM */
static char *result[] = {
/* columns rows colors chars-per-pixel */
"32 32 256 2 ",
"   c #09122A",
".  c #0C132B",
"X  c #0D152B",
"o  c #0F152B",
"O  c #0E152C",
"+  c #11142A",
"@  c #12152B",
"#  c #10152C",
"$  c #10162C",
"%  c #12162C",
"&  c #13162C",
"*  c #12172D",
"=  c #13172D",
"-  c #16192E",
";  c #121B32",
":  c #121B33",
">  c #141930",
",  c #151C32",
"<  c #161C33",
"1  c #171D33",
"2  c #171E37",
"3  c #181C32",
"4  c #1D1C30",
"5  c #181D34",
"6  c #181E35",
"7  c #191E35",
"8  c #1A1E36",
"9  c #1C1E34",
"0  c #36192F",
"q  c #182038",
"w  c #182139",
"e  c #1B2138",
"r  c #1C2038",
"t  c #1D2139",
"y  c #1C223A",
"u  c #1D223A",
"i  c #1A253C",
"p  c #1A253D",
"a  c #1B263C",
"s  c #1F283F",
"d  c #2F2133",
"f  c #2C2236",
"g  c #2F2435",
"h  c #2E2436",
"j  c #2F213F",
"k  c #21283F",
"l  c #312535",
"z  c #312637",
"x  c #322637",
"c  c #352636",
"v  c #372636",
"b  c #382837",
"n  c #332738",
"m  c #3C213B",
"M  c #352838",
"N  c #342A3C",
"B  c #352B3C",
"V  c #382939",
"C  c #392A39",
"Z  c #3A2A39",
"A  c #3B2A39",
"S  c #3C2B3A",
"D  c #3D2C3A",
"F  c #3F2C3B",
"G  c #3F2D3B",
"H  c #392E3F",
"J  c #1F2940",
"K  c #1E2941",
"L  c #1F2A43",
"P  c #202941",
"I  c #242B42",
"U  c #222C43",
"Y  c #242C43",
"T  c #222C44",
"R  c #222D45",
"E  c #232D45",
"W  c #232E47",
"Q  c #252D45",
"!  c #262D45",
"~  c #262E45",
"^  c #282B41",
"/  c #292D49",
"(  c #322B48",
")  c #27324B",
"_  c #29304B",
"`  c #2B304B",
"'  c #28334B",
"]  c #29334B",
"[  c #2A324A",
"{  c #2A334A",
"}  c #2B334B",
"|  c #2B344B",
" . c #28334C",
".. c #29334C",
"X. c #29344C",
"o. c #2B344C",
"O. c #2B364E",
"+. c #2C344C",
"@. c #2C354D",
"#. c #2C374F",
"$. c #3E3547",
"%. c #303349",
"&. c #2C3850",
"*. c #2F3E57",
"=. c #303754",
"-. c #323754",
";. c #383655",
":. c #313D56",
">. c #313E57",
",. c #313B58",
"<. c #303F58",
"1. c #3A3F5C",
"2. c #57234C",
"3. c #413140",
"4. c #423140",
"5. c #443949",
"6. c #443A4E",
"7. c #4D3D4D",
"8. c #4D3E4D",
"9. c #513440",
"0. c #583742",
"q. c #5A3842",
"w. c #5E3B44",
"e. c #462F50",
"r. c #5A2C55",
"t. c #473E50",
"y. c #45375A",
"u. c #7F2441",
"i. c #72244D",
"p. c #34425B",
"a. c #31455F",
"s. c #374565",
"d. c #3A4665",
"f. c #354862",
"g. c #394963",
"h. c #384B65",
"j. c #384C68",
"k. c #3A4D68",
"l. c #3E536E",
"z. c #3F546F",
"x. c #3F5672",
"c. c #3F5772",
"v. c #4D4051",
"b. c #4F4151",
"n. c #4E4152",
"m. c #41465C",
"M. c #4E495C",
"N. c #4F495C",
"B. c #514251",
"V. c #5C4D5C",
"C. c #74464A",
"Z. c #74464B",
"A. c #75434D",
"S. c #79474A",
"D. c #78434D",
"F. c #76484D",
"G. c #78484C",
"H. c #7C4A4D",
"J. c #7D4A4E",
"K. c #7A4C51",
"L. c #7D4F54",
"P. c #714E5F",
"I. c #514962",
"U. c #41516F",
"Y. c #525467",
"T. c #435572",
"R. c #415772",
"E. c #415773",
"W. c #485771",
"Q. c #4F5375",
"!. c #415B7A",
"~. c #425B7A",
"^. c #465F7B",
"/. c #455F7D",
"(. c #545A75",
"). c #615C6F",
"_. c #605E74",
"`. c #675F76",
"'. c #756474",
"]. c #86253A",
"[. c #833860",
"{. c #814951",
"}. c #804C56",
"|. c #884F52",
" X c #8C5052",
".X c #87525B",
"XX c #84505C",
"oX c #84585D",
"OX c #925554",
"+X c #935555",
"@X c #975454",
"#X c #975755",
"$X c #965756",
"%X c #975756",
"&X c #9A5054",
"*X c #995655",
"=X c #985656",
"-X c #985856",
";X c #9A5957",
":X c #9B5957",
">X c #9D5957",
",X c #9D5558",
"<X c #9C5559",
"1X c #9D555A",
"2X c #9E555B",
"3X c #95595B",
"4X c #9B5A58",
"5X c #9C5B59",
"6X c #995D5C",
"7X c #9C5E5D",
"8X c #9F5E5D",
"9X c #9F5F5D",
"0X c #A05C58",
"qX c #A45D59",
"wX c #A15F5D",
"eX c #AB5D5E",
"rX c #AB605C",
"tX c #B2615C",
"yX c #B3635F",
"uX c #B8675F",
"iX c #8D5760",
"pX c #AB4F69",
"aX c #BF5B6D",
"sX c #9B6266",
"dX c #8C6E7D",
"fX c #AF6461",
"gX c #A96968",
"hX c #B76561",
"jX c #BF6963",
"kX c #A17173",
"lX c #A47079",
"zX c #B97A79",
"xX c #C16B62",
"cX c #C06A63",
"vX c #C46D63",
"bX c #C46D64",
"nX c #C66E65",
"mX c #476582",
"MX c #486280",
"NX c #5E6A83",
"BX c #766C89",
"VX c #697D95",
"CX c #6F879F",
"ZX c #6F889F",
"AX c #9498A8",
"SX c #9F9FAF",
"DX c #B79EAF",
"FX c #B7A4AA",
"GX c #B3A6AE",
"HX c #ACA8B6",
"JX c #CFBFC7",
"KX c #D9B9C3",
"LX c #BDC8D5",
"PX c #E7EAF1",
"IX c #E7EBF1",
"UX c None",
/* pixels */
"UXUXUXUXUXUXUXUXUXUX= = = = = = = = = = = = UXUXUXUXUXUXUXUXUXUX",
"UXUXUXUXUXUXUXUXUXUX5 7 7 7 7 7 7 7 7 7 7 5 UXUXUXUXUXUXUXUXUXUX",
"UXUXUXUXUXUXUXUX+ 3 k ~ ! Q Q Q Q Q Q ! ~ k 3 + UXUXUXUXUXUXUXUX",
"UXUXUXUXUXUXUXUXJ E ] @.@.@.@.@.@.@.@.@.@.] E J UXUXUXUXUXUXUXUX",
"UXUXUXUXUXUX@ P f.k.:.o.+.@.@.@.@.@.@.+.o.:.k.f.P @ UXUXUXUXUXUX",
"UXUXUXUXUXUX@ T c.^.p.{ | @.@.@.@.@.@.| { p.^.c.T @ UXUXUXUXUXUX",
"UXUXUXUXUXUX@ U x.^.p.[ } @.@.@.@.@.@.} [ p.^.x.U @ UXUXUXUXUXUX",
"UXUXUXUXUXUX@ s h.R.g.>.#...X.X.X.X...#.>.g.R.h.s @ UXUXUXUXUXUX",
"UXUXUXUXUXUX& e O.g.E.l.*.) '  . .' ) *.l.E.g.O.e & UXUXUXUXUXUX",
"UXUXUXUXUXUX# 1 I >.z.W.N.B.b.n.n.b.B.N.W.z.>.I 1 # UXUXUXUXUXUX",
"UXUXUXUXUXUXo < Y &.<.M.oX9X7X6X6X7X9XoXM.<.&.Y < o UXUXUXUXUXUX",
"UXUXUXUXUXUXZ H %.) R $.K.qXuXxXxXuXqXK.$.R ) %.H Z UXUXUXUXUXUX",
"UXUXUXUXO Z H.L.t.W w 9 z w.0XvXvX0Xw.z 9 w W t.L.H.Z O UXUXUXUX",
"UXUXUXUXO F ;XwX8.^ B g - V +XbXbX+XV - g B ^ 8.wX;XF O UXUXUXUX",
"UXUXUXUXO G :X5X4.N F.Z.h V OXbXbXOXV h Z.F.N 4.5X:XG O UXUXUXUX",
"UXUXUXUXO A J.F.N 3.4X-XZ n |.hXhX|.n Z -X4X3.N F.J.A O UXUXUXUX",
"UXUXUXUXUXUXZ B ^ 7.8X#XC f A.2X2XA.f C #X8X7.^ B Z UXUXUXUXUXUX",
"UXUXUXUXUXUX. : L v.3X=Xq.9.{.1X1X{.9.q.=X3Xv.L : . UXUXUXUXUXUX",
"UXUXUXUXUXUX. ; K 6.}.,X*X>XrXyXyXrX>X*X,X}.6.K ; . UXUXUXUXUXUX",
"UXUXUXUXUXUXb 5.Y.).P.XXsXgXfXtXtXfXgXsXXXP.).Y.5.b UXUXUXUXUXUX",
"UXUXUXUX  c S.kXGXSX`.I._.'.iX&X&XiX'._.I.`.SXGXkXS.c   UXUXUXUX",
"UXUXUXUXM 0.@XzXFXAX(.s.!.NXdXlXlXdXNX!.s.(.AXFXzX@X0.M UXUXUXUX",
"UXUXO V G.=X<X.XV.m.1.d.~.VXHXJXJXHXVX~.d.1.m.V..X<X=XG.V O UXUX",
"UXUXO D -XcXeXD.d 2 ,.U./.CXLXPXPXLXCX/.U.,.2 d D.eXcX-XD O UXUX",
"UXUXO D %XnXjX Xv p j.MXmXZXLXIXIXLXZXmXMXj.p v  XjXnX%XD O UXUX",
"UXUXO V G.$X%XC.l i a.T.Q.BXDXKXKXDXBXQ.T.a.i l C.%X$XG.V O UXUX",
"UXUXUXUXV S D x 4 , a ( r.[.pXaXaXpX[.r.( a , 4 x D S V UXUXUXUX",
"UXUXUXUXO O O $ * > 6 j 2.i.u.].].u.i.2.j 6 > * $ O O O UXUXUXUX",
"UXUXUXUXUXUXUXUX% 8 / ;.y.e.m 0 0 m e.y.;./ 8 % UXUXUXUXUXUXUXUX",
"UXUXUXUXUXUXUXUX% r ` -.=._ q X X q _ =.-.` r % UXUXUXUXUXUXUXUX",
"UXUXUXUXUXUXUXUXUXUXt u y e UXUXUXUXe y u t UXUXUXUXUXUXUXUXUXUX",
"UXUXUXUXUXUXUXUXUXUX% % % % UXUXUXUX% % % % UXUXUXUXUXUXUXUXUXUX"
};
