/* XPM */
static char *result[] = {
/* columns rows colors chars-per-pixel */
"32 32 127 2 ",
"   c #0E142B",
".  c #13172D",
"X  c #15192F",
"o  c #161D34",
"O  c #191E35",
"+  c #33192F",
"@  c #2E1D34",
"#  c #341B31",
"$  c #1C2239",
"%  c #212136",
"&  c #2E2336",
"*  c #22253D",
"=  c #2C243A",
"-  c #21283F",
";  c #332536",
":  c #3A2837",
">  c #37263B",
",  c #3F223A",
"<  c #36293A",
"1  c #3B2B3A",
"2  c #40303F",
"3  c #49303E",
"4  c #6D2238",
"5  c #1F2B44",
"6  c #252D45",
"7  c #2A2C42",
"8  c #272F4A",
"9  c #2B2E4A",
"0  c #372E40",
"q  c #392E40",
"w  c #273047",
"e  c #25314A",
"r  c #2B344C",
"t  c #353147",
"y  c #3E3547",
"u  c #33354E",
"i  c #3E3649",
"p  c #34384E",
"a  c #2F3653",
"s  c #2E3A52",
"d  c #313653",
"f  c #323D56",
"g  c #3B3855",
"h  c #323F58",
"j  c #403343",
"k  c #403748",
"l  c #443C4F",
"z  c #4A3C4C",
"x  c #5B3646",
"c  c #5F3C44",
"v  c #50334E",
"b  c #443C51",
"n  c #493F53",
"m  c #4F3A58",
"M  c #762D46",
"N  c #613D45",
"B  c #633A48",
"V  c #743148",
"C  c #3E4457",
"Z  c #34415B",
"A  c #3E445A",
"S  c #384862",
"D  c #3F4E69",
"F  c #3E526E",
"G  c #3A5572",
"H  c #454355",
"J  c #4D4252",
"K  c #424558",
"L  c #474A5C",
"P  c #4F495C",
"I  c #514252",
"U  c #5A4454",
"Y  c #5C4D5C",
"T  c #6A404D",
"R  c #74464B",
"E  c #7B464F",
"W  c #76494E",
"Q  c #7A494D",
"!  c #674253",
"~  c #6A4B56",
"^  c #6B4558",
"/  c #654B5E",
"(  c #7D4750",
")  c #7B4C53",
"_  c #744958",
"`  c #7F5459",
"'  c #4C4661",
"]  c #415671",
"[  c #485771",
"{  c #455E7A",
"}  c #8C283F",
"|  c #942F47",
" . c #924A5D",
".. c #8D5154",
"X. c #82545A",
"o. c #89535B",
"O. c #84585D",
"+. c #8B585E",
"@. c #965755",
"#. c #985654",
"$. c #985856",
"%. c #9F575A",
"&. c #93585A",
"*. c #9D5E5D",
"=. c #A6455B",
"-. c #A55E5A",
";. c #AB5C5D",
":. c #A1605E",
">. c #B95568",
",. c #9E6F71",
"<. c #BD6660",
"1. c #BD6961",
"2. c #B87A79",
"3. c #C36B63",
"4. c #586B83",
"5. c #84748B",
"6. c #748DA5",
"7. c #8D919F",
"8. c #A78F9D",
"9. c #8E92A0",
"0. c #939BAB",
"q. c #AFA1A8",
"w. c #B6A4AB",
"e. c #BFA4B3",
"r. c #B3B5C0",
"t. c #C4CEDB",
"y. c None",
/* pixels */
"y.y.y.y.y.y.y.y.y.y.. . . . . . . . . . . . y.y.y.y.y.y.y.y.y.y.",
"y.y.y.y.y.y.y.y.y.y.O O O O O O O O O O O $ y.y.y.y.y.y.y.y.y.y.",
"y.y.y.y.y.y.y.y.. o - w 6 6 6 6 6 6 6 7 w - O . y.y.y.y.y.y.y.y.",
"y.y.y.y.y.y.y.y.o - s Z Z f s r r r r r r w $ O y.y.y.y.y.y.y.y.",
"y.y.y.y.y.y.. O - p F { { F s r r r r r r r w - O . y.y.y.y.y.y.",
"y.y.y.y.y.y.. O - Z F { { ] S Z Z f s r r r r 6 O . y.y.y.y.y.y.",
"y.y.y.y.y.y.. O 6 s Z Z Z S F { { ] f e r r s 6 O X y.y.y.y.y.y.",
"y.y.y.y.y.y.. O 6 r r w r f F { { ] A h r r r 6 O . y.y.y.y.y.y.",
"y.y.y.y.y.y.. O 6 r r r r r Z Z Z S F F s r e 6 O . y.y.y.y.y.y.",
"y.y.y.y.y.y.. O 6 r r r r r r r e Z F [ P I I i % . y.y.y.y.y.y.",
"y.y.y.y.y.y.. O 6 r r u r r r r r s Z P O.:.*.) < . y.y.y.y.y.y.",
"y.y.y.y.y.y.X O 6 r r r r r e r r w 6 y ) :.1.@.1   y.y.y.y.y.y.",
"y.y.y.y.y.y.. O 8 r r r r r r r r w $ $ ; N -.@.1   y.y.y.y.y.y.",
"y.y.y.y.y.y.. O 6 r r p l J I l t 6 < & o 1 @.@.1   y.y.y.y.y.y.",
"y.y.y.y.y.y.. O 6 r r H X.*.:.) < < R R & : @.$.2 . y.y.y.y.y.y.",
"y.y.y.y.y.y.X O 6 r r J *.3.1...1 2 $.#.: < ....1   y.y.y.y.y.y.",
"y.y.y.y.y.y.. O 6 r r I *.<.;.) i z *.@.: ; E ( <   y.y.y.y.y.y.",
"y.y.y.y.y.y.X O 6 r e n ` *.%.) H J *.:.N 3 B x & . y.y.y.y.y.y.",
"y.y.y.y.y.y.. O 6 r r d n / -.&.J J *.1.-.Q 2 & y.y.y.y.y.y.y.y.",
"y.y.y.y.y.y.X O 6 s r 8 5 k X.+.U I ) @.#.Q <   y.y.y.y.y.y.y.y.",
"y.y.y.y.y.y.. O 6 r r w o * n / W T j 2 , ; y.y.y.y.y.y.y.y.y.y.",
"y.y.y.y.y.y.. O 6 r 6 r C A a g ^ ! u e p H y.y.y.y.y.y.y.y.y.y.",
"y.y.y.y.y.y.. O 6 w $ K 9.9.A * b ' D 4.0.0.C   y.y.y.y.y.y.y.y.",
"y.y.y.y.y.y.X O 6 $ X H q.w.Y = 9 h G 6.t.e.L   y.y.y.y.y.y.y.y.",
"y.y.y.y.y.y.y.y.O o   j ,.2.o.x 7 5 G 6.t.e.L   y.y.y.y.y.y.y.y.",
"y.y.y.y.y.y.y.y.. .   1 @.<.;.E ; @ ' 5.e.8.b   y.y.y.y.y.y.y.y.",
"y.y.y.y.y.y.y.y.y.y.  1 @.3.1...> @ V  .>.o.1   y.y.y.y.y.y.y.y.",
"y.y.y.y.y.y.y.y.y.y.. : E @.$.W 0 > V | | 4 # . y.y.y.y.y.y.y.y.",
"y.y.y.y.y.y.y.y.y.y.y.y.> 1 1 t u g m v , + y.y.y.y.y.y.y.y.y.y.",
"y.y.y.y.y.y.y.y.y.y.y.y.  .   O 9 d a 8 $   y.y.y.y.y.y.y.y.y.y.",
"y.y.y.y.y.y.y.y.y.y.y.y.y.y.y.y.O $ O O y.y.y.y.y.y.y.y.y.y.y.y.",
"y.y.y.y.y.y.y.y.y.y.y.y.y.y.y.y.X . . X y.y.y.y.y.y.y.y.y.y.y.y."
};
