/* XPM */
static char *result[] = {
/* columns rows colors chars-per-pixel */
"32 32 119 2 ",
"   c #0D1127",
".  c #0E152C",
"X  c #13172D",
"o  c #15192F",
"O  c #161C34",
"+  c #191E35",
"@  c #33192F",
"#  c #201E36",
"$  c #2F1C33",
"%  c #341B31",
"&  c #1B223A",
"*  c #212136",
"=  c #2E2336",
"-  c #22263D",
";  c #2C253B",
":  c #21283F",
">  c #332637",
",  c #3B2937",
"<  c #362739",
"1  c #38273F",
"2  c #362A3A",
"3  c #3B2B3A",
"4  c #40233A",
"5  c #40303F",
"6  c #48303E",
"7  c #6D2238",
"8  c #1F2B44",
"9  c #252D45",
"0  c #2A2C42",
"q  c #242E49",
"w  c #2C2D48",
"e  c #392E40",
"r  c #273047",
"t  c #263149",
"y  c #2B344C",
"u  c #3E3547",
"i  c #33374E",
"p  c #3E3649",
"a  c #34384E",
"s  c #2F3655",
"d  c #2E3A52",
"f  c #333652",
"g  c #313D56",
"h  c #333E59",
"j  c #3C3D5A",
"k  c #403343",
"l  c #43354B",
"z  c #443C4F",
"x  c #4A3C4C",
"c  c #573545",
"v  c #5D3746",
"b  c #5F3C44",
"n  c #51334F",
"m  c #453E51",
"M  c #4A3F53",
"N  c #732A42",
"B  c #613D45",
"V  c #633A48",
"C  c #79354D",
"Z  c #3C4356",
"A  c #34425B",
"S  c #3E4559",
"D  c #394463",
"F  c #384862",
"G  c #374E6B",
"H  c #3E526E",
"J  c #454355",
"K  c #4C4153",
"L  c #41445B",
"P  c #4F495C",
"I  c #514252",
"U  c #5C4D5C",
"Y  c #74464B",
"T  c #7B464F",
"R  c #77484D",
"E  c #7A494D",
"W  c #6A4B56",
"Q  c #7D4750",
"!  c #7A4C53",
"~  c #7F5459",
"^  c #534860",
"/  c #56506C",
"(  c #415671",
")  c #485771",
"_  c #455E7A",
"`  c #8C283F",
"'  c #942F47",
"]  c #954C5F",
"[  c #8E5254",
"{  c #84565C",
"}  c #89535B",
"|  c #84585D",
" . c #965755",
".. c #985654",
"X. c #985856",
"o. c #9F575A",
"O. c #93585A",
"+. c #9D5E5D",
"@. c #A7465D",
"#. c #A55E5A",
"$. c #AB5C5D",
"%. c #A1605E",
"&. c #BC576B",
"*. c #9E6F71",
"=. c #BD6660",
"-. c #BD6961",
";. c #B87A79",
":. c #C36B63",
">. c #576D85",
",. c #86758D",
"<. c #8D919F",
"1. c #8D91A0",
"2. c #9095A3",
"3. c #939FAE",
"4. c #AA93A0",
"5. c #AFA1A8",
"6. c #B6A4AB",
"7. c #C3A7B6",
"8. c None",
/* pixels */
"8.8.8.8.8.8.8.8.8.8.8.8.8.8.8.8.8.8.8.8.8.8.8.8.8.8.8.8.8.8.8.8.",
"8.8.8.8.8.8.8.8.8.8.8.8.8.8.8.8.8.8.8.8.8.8.8.8.8.8.8.8.8.8.8.8.",
"8.8.8.8.8.8.8.8.8.8.X X X X X X X X X X X X 8.8.8.8.8.8.8.8.8.8.",
"8.8.8.8.8.8.8.8.8.8.+ + + + + + + + + + + + 8.8.8.8.8.8.8.8.8.8.",
"8.8.8.8.8.8.8.8.X + : 9 9 9 9 9 9 9 9 9 9 9 + X 8.8.8.8.8.8.8.8.",
"8.8.8.8.8.8.8.8.O - d A A A y y y y y y i 9 & O 8.8.8.8.8.8.8.8.",
"8.8.8.8.8.8.X + : d H _ _ H g y y y y y y y 9 9 + X 8.8.8.8.8.8.",
"8.8.8.8.8.8.X + 9 g H _ _ ( F A A h d y y y i 9 + o 8.8.8.8.8.8.",
"8.8.8.8.8.8.X + 9 g g A g F ( _ _ H d y y y y 9 + X 8.8.8.8.8.8.",
"8.8.8.8.8.8.X + 9 y y y y g H _ _ ( F A y y y 9 + X 8.8.8.8.8.8.",
"8.8.8.8.8.8.X + 9 y y y y y g A A F ( H A t y 9 + X 8.8.8.8.8.8.",
"8.8.8.8.8.8.X + 9 y y y y y y y r A H ) P K K u * X 8.8.8.8.8.8.",
"8.8.8.8.8.8.o + 9 y y y y y y y y d d P | %.%.! 2 . 8.8.8.8.8.8.",
"8.8.8.8.8.8.X + 9 y y y y y y y y r 9 u ! #.-.X.3 . 8.8.8.8.8.8.",
"8.8.8.8.8.8.X + 9 i y y y y y y y r & & > B #.X.3 . 8.8.8.8.8.8.",
"8.8.8.8.8.8.X + 9 y y a m I K z i : 2 = X 3 X.X.3 . 8.8.8.8.8.8.",
"8.8.8.8.8.8.X + 9 y y z ~ +.+.! 2 2 R Y = 3 X.X.3 . 8.8.8.8.8.8.",
"8.8.8.8.8.8.X + 9 y y K +.:.=.[ 3 5 X.X., 2 [ [ 3 . 8.8.8.8.8.8.",
"8.8.8.8.8.8.X + 9 y y M +.-.$.Q u x +.X.3 = T T < . 8.8.8.8.8.8.",
"8.8.8.8.8.8.X + 9 y s m ~ +.#.! z I +.%.B 6 V c = X 8.8.8.8.8.8.",
"8.8.8.8.8.8.o + 9 y y y m W +.O.K K +.-.#.E 6 = 8.8.8.8.8.8.8.8.",
"8.8.8.8.8.8.X + 9 d d t 8 l { { J z ! X.X.E < . 8.8.8.8.8.8.8.8.",
"8.8.8.8.8.8.X + 9 i y 9 + - M ^ S f e , , , 8.8.8.8.8.8.8.8.8.8.",
"8.8.8.8.8.8.X + 9 y 9 y Z L g s j g q q g L 8.8.8.8.8.8.8.8.8.8.",
"8.8.8.8.8.8.o + 9 9 & L <.1.Z & f D G >.3.2.L   8.8.8.8.8.8.8.8.",
"8.8.8.8.8.8.X + 9 & X J 5.6.U ; w j / ,.7.4.J   8.8.8.8.8.8.8.8.",
"8.8.8.8.8.8.8.8.+ O X k *.;.} c ; e C @.&.] 3 . 8.8.8.8.8.8.8.8.",
"8.8.8.8.8.8.8.8.X . . 3  .=.$.T = $ N ' ` 7 % X 8.8.8.8.8.8.8.8.",
"8.8.8.8.8.8.8.8.8.8.. 3  .:.:.[ < # l n , @ 8.8.8.8.8.8.8.8.8.8.",
"8.8.8.8.8.8.8.8.8.8.. 3 Q  . .Y > + q w & . 8.8.8.8.8.8.8.8.8.8.",
"8.8.8.8.8.8.8.8.8.8.8.8.< 3 3 > + o + + 8.8.8.8.8.8.8.8.8.8.8.8.",
"8.8.8.8.8.8.8.8.8.8.8.8.. . . . X o o o 8.8.8.8.8.8.8.8.8.8.8.8."
};
