/* XPM */
static char *result[] = {
/* columns rows colors chars-per-pixel */
"32 32 121 2 ",
"   c #0E152B",
".  c #12162C",
"X  c #14192F",
"o  c #151C33",
"O  c #1A1E34",
"+  c #36192F",
"@  c #1B223A",
"#  c #1F283F",
"$  c #2E2336",
"%  c #2F213F",
"&  c #22283F",
"*  c #332536",
"=  c #332738",
"-  c #3C213B",
";  c #352A3B",
":  c #3B2B3A",
">  c #1F2941",
",  c #232C44",
"<  c #282B41",
"1  c #282D49",
"2  c #322B48",
"3  c #27324B",
"4  c #2B344C",
"5  c #3E3547",
"6  c #303349",
"7  c #2E3B54",
"8  c #313754",
"9  c #383655",
"0  c #313D57",
"q  c #393E52",
"w  c #303F58",
"e  c #3A3F5C",
"r  c #57234C",
"t  c #423140",
"y  c #443A4E",
"u  c #4D3E4D",
"i  c #513440",
"p  c #5C3A43",
"a  c #462F50",
"s  c #5A2C55",
"d  c #473E50",
"f  c #45375A",
"g  c #7F2441",
"h  c #72244D",
"j  c #33435C",
"k  c #374565",
"l  c #3A4665",
"z  c #354862",
"x  c #394A64",
"c  c #3A4D68",
"v  c #3F546F",
"b  c #3F5772",
"n  c #4E4151",
"m  c #41465C",
"M  c #4F495C",
"N  c #514251",
"B  c #5C4E5B",
"V  c #74454C",
"C  c #79444E",
"Z  c #76484D",
"A  c #7A494D",
"S  c #7C4E53",
"D  c #714F5F",
"F  c #474E63",
"G  c #514962",
"H  c #41516F",
"J  c #425672",
"K  c #4C5573",
"L  c #445D7B",
"P  c #565B76",
"I  c #625C6F",
"U  c #605E74",
"Y  c #696077",
"T  c #756474",
"R  c #86253A",
"E  c #833860",
"W  c #814B54",
"Q  c #884F52",
"!  c #8E5153",
"~  c #85535A",
"^  c #84585D",
"/  c #955655",
"(  c #995556",
")  c #9A5957",
"_  c #9D555A",
"`  c #95595B",
"'  c #9C5C5B",
"]  c #A25D5A",
"[  c #AA5D5E",
"{  c #AB605C",
"}  c #B3625E",
"|  c #B8675F",
" . c #8D5760",
".. c #AB4F69",
"X. c #BF5B6D",
"o. c #9B6266",
"O. c #8C6E7D",
"+. c #AF6461",
"@. c #A96968",
"#. c #B76561",
"$. c #BF6A63",
"%. c #A47079",
"&. c #C46D64",
"*. c #476582",
"=. c #486280",
"-. c #5E6A83",
";. c #766C89",
":. c #697D95",
">. c #6F879F",
",. c #6F889F",
"<. c #9094A2",
"1. c #9894A0",
"2. c #9799A9",
"3. c #B79EAF",
"4. c #A2A1B0",
"5. c #ACA8B6",
"6. c #CFBFC7",
"7. c #D9B9C3",
"8. c #BDC8D5",
"9. c #E7EBF1",
"0. c None",
/* pixels */
"0.0.0.0.0.0.0.0.0.0.X . . . . X . . . . . X 0.0.0.0.0.0.0.0.0.0.",
"0.0.0.0.0.0.0.0.0.0.@ @ o @ O @ @ O O @ O @ 0.0.0.0.0.0.0.0.0.0.",
"0.0.0.0.0.0.0.0.. o & & & 3 & , < , & < , & O X 0.0.0.0.0.0.0.0.",
"0.0.0.0.0.0.0.0.# , 4 3 4 4 7 6 4 7 4 4 4 4 & & 0.0.0.0.0.0.0.0.",
"0.0.0.0.0.0.. , x c j 6 4 4 4 7 4 4 4 4 4 j v j # X 0.0.0.0.0.0.",
"0.0.0.0.0.0.. , J L j 6 4 4 4 4 4 7 4 4 6 j L J , X 0.0.0.0.0.0.",
"0.0.0.0.0.0.  , J L j , 6 4 4 4 4 4 4 4 3 j L J , X 0.0.0.0.0.0.",
"0.0.0.0.0.0.  # c J j j 7 4 4 3 4 4 4 4 j j J j #   0.0.0.0.0.0.",
"0.0.0.0.0.0.. @ 4 x J v j 3 3 3 3 3 3 j v b x 4 @ . 0.0.0.0.0.0.",
"0.0.0.0.0.0.. o , 0 v K M N n n n n n M J v j & X . 0.0.0.0.0.0.",
"0.0.0.0.0.0.  o , 4 j M ^ ' ' ) ) ' ' ^ M j 4 , X X 0.0.0.0.0.0.",
"0.0.0.0.0.0.: 5 6 3 > 5 Z { | &.$.| { S 5 & 3 6 : : 0.0.0.0.0.0.",
"0.0.0.0.  : A S n , @ @ $ p ' &.&.] N * @ @ , n S A :   0.0.0.0.",
"0.0.0.0.. : ) ] n , ; $ X : / &.&./ : . $ ; & n { ' :   0.0.0.0.",
"0.0.0.0.  : ' ' t ; Z V $ : / &.&.! : * V Z ; t ' ) : X 0.0.0.0.",
"0.0.0.0.. : A A = t ) ) : = Q } | Q * : ) ' t ; Z A :   0.0.0.0.",
"0.0.0.0.0.0.: = , u ] ( : $ V _ ) V $ * ( ' u , ; : 0.0.0.0.0.0.",
"0.0.0.0.0.0.  o , n ` ( p i W _ ] W i p ( ` u , o   0.0.0.0.0.0.",
"0.0.0.0.0.0.. o # y W _ / ( { | } [ ( ( _ W y , o . 0.0.0.0.0.0.",
"0.0.0.0.0.0.  & F I D ~ o.@...} } { @.@.~ D U F &   0.0.0.0.0.0.",
"0.0.0.0.0.0.  q <.4.U G P T  .( ( ` T P G U 4.<.q   0.0.0.0.0.0.",
"0.0.0.0.0.0.* B 1.2.P l =.-.O.%.%.O.-.L l P 2.1.B * 0.0.0.0.0.0.",
"0.0.0.0.  * A ~ B m e l b :.5.6.6.5.:.b l e m B ~ A :   0.0.0.0.",
"0.0.0.0.; p ) / * O 0 H =.>.8.9.9.8.>.L K 8 o ; ! ) p = 0.0.0.0.",
"0.0.  : Z / _ A $ @ c =.=.>.8.9.9.8.>.=.=.c @ * C _ ) V :   0.0.",
"0.0.. : ) $.[ C * > z J K ;.3.7.7.3.;.K J z @ * C [ $.) :   0.0.",
"0.0.  : ) &.$.Q :   @ 2 s E ..X.X...E s 2 @ o * ! $.&./ : . 0.0.",
"0.0.  : A / ) V * . o 2 r h g R R R h r < o . * V / ) Z :   0.0.",
"0.0.0.0.; : : * O O 1 9 f a 2 + + - a f 9 1 O O = : : : 0.0.0.0.",
"0.0.0.0.      . X @ 2 8 9 1 O     O 3 8 9 4 @ . .       0.0.0.0.",
"0.0.0.0.0.0.0.0.0.0.O @ @ O 0.0.0.0.@ @ @ @ 0.0.0.0.0.0.0.0.0.0.",
"0.0.0.0.0.0.0.0.0.0.X . X X 0.0.0.0.. . . . 0.0.0.0.0.0.0.0.0.0."
};
