/* XPM */
static char *result[] = {
/* columns rows colors chars-per-pixel */
"32 32 162 2 ",
"   c #09122A",
".  c #0C132A",
"X  c #0D152B",
"o  c #0F152B",
"O  c #0E152C",
"+  c #11142A",
"@  c #12152B",
"#  c #10152C",
"$  c #10162C",
"%  c #12162C",
"&  c #13162C",
"*  c #12172D",
"=  c #13172D",
"-  c #13192F",
";  c #151A30",
":  c #141C33",
">  c #171C32",
",  c #161D34",
"<  c #171D34",
"1  c #171D35",
"2  c #1D1C30",
"3  c #181D34",
"4  c #191D34",
"5  c #191E34",
"6  c #181E35",
"7  c #191E35",
"8  c #191F35",
"9  c #181E37",
"0  c #1A1F36",
"q  c #381B30",
"w  c #182038",
"e  c #1B2138",
"r  c #1B233A",
"t  c #1C2038",
"y  c #1D2139",
"u  c #1C223A",
"i  c #1D223A",
"p  c #2E213F",
"a  c #2F223F",
"s  c #21283F",
"d  c #332437",
"f  c #322636",
"g  c #322637",
"h  c #3E233C",
"j  c #352838",
"k  c #372838",
"l  c #392938",
"z  c #382939",
"x  c #3A2A38",
"c  c #3A2A39",
"v  c #3C2B3A",
"b  c #3D2C3A",
"n  c #3F2C3B",
"m  c #382B3D",
"M  c #392E3E",
"N  c #392E3F",
"B  c #1F2840",
"V  c #202941",
"C  c #202A41",
"Z  c #242B43",
"A  c #242C44",
"S  c #252C44",
"D  c #242D44",
"F  c #242D45",
"G  c #252D45",
"H  c #262D45",
"J  c #262E45",
"K  c #242E46",
"L  c #252E46",
"P  c #272D48",
"I  c #272F48",
"U  c #292E49",
"Y  c #29304B",
"T  c #2B304B",
"R  c #28324A",
"E  c #29324A",
"W  c #2B334B",
"Q  c #2B344B",
"!  c #28334C",
"~  c #2C334F",
"^  c #29344C",
"/  c #29344D",
"(  c #2A344C",
")  c #2B344C",
"_  c #2B354C",
"`  c #2A344D",
"'  c #2B354D",
"]  c #2B374F",
"[  c #2C344C",
"{  c #2C354D",
"}  c #303248",
"|  c #303348",
" . c #2D3750",
".. c #2E3850",
"X. c #2F3851",
"o. c #2F3A53",
"O. c #303754",
"+. c #323754",
"@. c #373554",
"#. c #383756",
"$. c #303852",
"%. c #303C55",
"&. c #313E57",
"*. c #323E57",
"=. c #323F57",
"-. c #313F59",
";. c #323F58",
":. c #353D5A",
">. c #373D5B",
",. c #56234C",
"<. c #57244D",
"1. c #463D4F",
"2. c #4A3B4C",
"3. c #5A3943",
"4. c #473051",
"5. c #473E50",
"6. c #433558",
"7. c #45375A",
"8. c #74254E",
"9. c #772A53",
"0. c #513F61",
"q. c #32425B",
"w. c #384561",
"e. c #364963",
"r. c #394A64",
"t. c #394C67",
"y. c #3A4E68",
"u. c #3F536E",
"i. c #3F546F",
"p. c #3E5571",
"a. c #534353",
"s. c #74464B",
"d. c #79444E",
"f. c #78484C",
"g. c #7C4A4D",
"h. c #7C4751",
"j. c #7D4F54",
"k. c #7E5054",
"l. c #425873",
"z. c #425874",
"x. c #425E7A",
"c. c #5F5270",
"v. c #675D78",
"b. c #89273C",
"n. c #822743",
"m. c #8F3755",
"M. c #9B3F55",
"N. c #8D5153",
"B. c #965756",
"V. c #975756",
"C. c #985657",
"Z. c #9A5757",
"A. c #985856",
"S. c #9A5856",
"D. c #9D565A",
"F. c #95585A",
"G. c #AA5D5E",
"H. c #A3615F",
"J. c #BF6963",
"K. c #BF6A63",
"L. c #C66E65",
"P. c None",
/* pixels */
"P.P.P.P.P.P.P.P.P.P.= & % % % % & = = = = = P.P.P.P.P.P.P.P.P.P.",
"P.P.P.P.P.P.P.P.P.P.3 7 8 8 8 7 7 7 7 7 7 3 P.P.P.P.P.P.P.P.P.P.",
"P.P.P.P.P.P.P.P.+ > s J J J J H H G G H J s > + P.P.P.P.P.P.P.P.",
"P.P.P.P.P.P.P.P.V F E { { { { { { { { { { E F V P.P.P.P.P.P.P.P.",
"P.P.P.P.P.P.@ C e.y.%.W ) { { { { { { ) W %.y.e.C @ P.P.P.P.P.P.",
"P.P.P.P.P.P.@ B t.z.r.&. .) ) { { ) )  .&.r.z.t.B @ P.P.P.P.P.P.",
"P.P.P.P.P.P.% e ] r.l.u.=.Q ) { { ) Q =.u.l.r.] e % P.P.P.P.P.P.",
"P.P.P.P.P.P.= 4 Z *.i.i.;.Q ) { { ) Q ;.i.i.*.Z 4 = P.P.P.P.P.P.",
"P.P.P.P.P.P.= 5 S ..;.;...) ) { { ) ) ..;.;...S 5 = P.P.P.P.P.P.",
"P.P.P.P.P.P.# < G { ) Q ) { { { { { { ) Q ) { G < # P.P.P.P.P.P.",
"P.P.P.P.P.P.o , D { [ ) ) { { { { { { ) ) [ { D , o P.P.P.P.P.P.",
"P.P.P.P.P.P.c M } ' ' { { { { { { { { { { ' ' } M c P.P.P.P.P.P.",
"P.P.P.P.O c g.j.1.^ ( { { { { { { { { { { ( ^ 1.j.g.c O P.P.P.P.",
"P.P.P.P.O n S.H.a.! ^ { { { { { { { { { { ^ ! a.H.S.n O P.P.P.P.",
"P.P.P.P.O n S.H.a.! ^ { { { { { { { { { { ^ ! a.H.S.n O P.P.P.P.",
"P.P.P.P.O c g.j.1.^ ( { { { { { { { { { { ( ^ 1.j.g.c O P.P.P.P.",
"P.P.P.P.P.P.c M } ' ' { { { { { { { { { { ' ' } M c P.P.P.P.P.P.",
"P.P.P.P.P.P.. : A { { { { { { { { { { { { { { A : . P.P.P.P.P.P.",
"P.P.P.P.P.P.. : A { { { { { { { { { { { { { { A : . P.P.P.P.P.P.",
"P.P.P.P.P.P.x N | ' ' ) ) { { { { { { ) ) ' ' | N x P.P.P.P.P.P.",
"P.P.P.P.  k g.k.5./ ` ) ) { { { { { { ) ) ` / 5.k.g.k   P.P.P.P.",
"P.P.P.P.j 3.Z.F.2.K R _ ) ) ) ) ) ) ) ) _ R K 2.F.Z.3.j P.P.P.P.",
"P.P.O z f.C.D.h.m r L { _ ) Q W W Q ) _ { L r m h.D.C.f.z O P.P.",
"P.P.O b A.K.G.d.d 1 I $.X.o.-.q.q.-.o.X.$.I 1 d d.G.K.A.b O P.P.",
"P.P.O b V.L.J.N.l 9 ~ >.:.w.p.x.x.p.w.:.>.~ 9 l N.J.L.V.b O P.P.",
"P.P.O z f.B.V.s.f 1 P @.6.0.c.v.v.c.0.6.@.P 1 f s.V.B.f.z O P.P.",
"P.P.P.P.z v b g 2 - 6 p ,.9.m.M.M.m.9.,.p 6 - 2 g b v z P.P.P.P.",
"P.P.P.P.O O O $ * ; 6 a <.8.n.b.b.n.8.<.a 6 ; * $ O O O P.P.P.P.",
"P.P.P.P.P.P.P.P.% 0 U #.7.4.h q q h 4.7.#.U 0 % P.P.P.P.P.P.P.P.",
"P.P.P.P.P.P.P.P.% t T +.O.Y w X X w Y O.+.T t % P.P.P.P.P.P.P.P.",
"P.P.P.P.P.P.P.P.P.P.y i u e P.P.P.P.e u i y P.P.P.P.P.P.P.P.P.P.",
"P.P.P.P.P.P.P.P.P.P.% % % % P.P.P.P.% % % % P.P.P.P.P.P.P.P.P.P."
};
