/* XPM */
static char *result[] = {
/* columns rows colors chars-per-pixel */
"32 32 126 2 ",
"   c #0E142B",
".  c #13172D",
"X  c #15192F",
"o  c #161B32",
"O  c #191E35",
"+  c #33192F",
"@  c #201E36",
"#  c #2F1C33",
"$  c #341B31",
"%  c #1C223A",
"&  c #212136",
"*  c #2E2336",
"=  c #20273E",
"-  c #2C253B",
";  c #23283F",
":  c #332637",
">  c #3A2837",
",  c #362739",
"<  c #38263F",
"1  c #362A3A",
"2  c #3B2B3A",
"3  c #40233A",
"4  c #40303F",
"5  c #49303E",
"6  c #6D2238",
"7  c #252D45",
"8  c #2A2C42",
"9  c #262E49",
"0  c #2C2D48",
"q  c #263047",
"w  c #2B344C",
"e  c #343046",
"r  c #3E3547",
"t  c #33374E",
"y  c #3D3549",
"u  c #34384E",
"i  c #2E3451",
"p  c #2E3A52",
"a  c #303654",
"s  c #323D56",
"d  c #3A3E52",
"f  c #323E58",
"g  c #3B3D5A",
"h  c #403343",
"j  c #43354B",
"k  c #433B4E",
"l  c #4A3C4C",
"z  c #573545",
"x  c #5D3746",
"c  c #5F3C44",
"v  c #51334F",
"b  c #453E51",
"n  c #493F53",
"m  c #732A42",
"M  c #613D45",
"N  c #633A48",
"B  c #78344C",
"V  c #3E4457",
"C  c #34425B",
"Z  c #3F435D",
"A  c #394863",
"S  c #3D4B68",
"D  c #3E526E",
"F  c #464456",
"G  c #4D4252",
"H  c #42455A",
"J  c #4A435E",
"K  c #474A5C",
"L  c #4F495C",
"P  c #514252",
"I  c #5A4453",
"U  c #5C4D5C",
"Y  c #6A404D",
"T  c #74464B",
"R  c #7B464F",
"E  c #77484D",
"W  c #7A494D",
"Q  c #664252",
"!  c #6A4B56",
"~  c #644A5D",
"^  c #6E485B",
"/  c #7D4750",
"(  c #7B4C53",
")  c #744958",
"_  c #7F5459",
"`  c #554F6B",
"'  c #415671",
"]  c #485771",
"[  c #455E7B",
"{  c #8C283F",
"}  c #942F47",
"|  c #924A5D",
" . c #8E5254",
".. c #82545A",
"X. c #89535B",
"o. c #84585D",
"O. c #8A585D",
"+. c #965655",
"@. c #985654",
"#. c #985856",
"$. c #9F575A",
"%. c #93585A",
"&. c #9D5E5D",
"*. c #A6455B",
"=. c #A55E5A",
"-. c #AB5C5D",
";. c #A1605E",
":. c #B95468",
">. c #9D6E70",
",. c #BD6660",
"<. c #BD6961",
"1. c #B87A79",
"2. c #C36B63",
"3. c #586B83",
"4. c #84738A",
"5. c #738CA4",
"6. c #8C909E",
"7. c #A78F9D",
"8. c #8F92A0",
"9. c #939BAB",
"0. c #AEA1A8",
"q. c #B6A4AB",
"w. c #BFA3B2",
"e. c #B3B5C0",
"r. c #C4CEDB",
"t. c None",
/* pixels */
"t.t.t.t.t.t.t.t.t.t.. . . . . . . . . . . . t.t.t.t.t.t.t.t.t.t.",
"t.t.t.t.t.t.t.t.t.t.O O % o O % O O O O O % t.t.t.t.t.t.t.t.t.t.",
"t.t.t.t.t.t.t.t.. O ; q 7 ; 7 q q 8 7 7 7 ; O . t.t.t.t.t.t.t.t.",
"t.t.t.t.t.t.t.t.o ; p C C C w w w w w w t q % O t.t.t.t.t.t.t.t.",
"t.t.t.t.t.t.. O = w D [ [ D C w w w w w w w q ; O . t.t.t.t.t.t.",
"t.t.t.t.t.t.. O 7 C D [ [ D A C C s u w w w w q % . t.t.t.t.t.t.",
"t.t.t.t.t.t.. O 9 u C C C A D [ [ D s q w w p 7 O . t.t.t.t.t.t.",
"t.t.t.t.t.t.. O q w w q q s D [ [ ' C C w w w q O . t.t.t.t.t.t.",
"t.t.t.t.t.t.. O 7 w w w w w C C C A D D p w w 7 o . t.t.t.t.t.t.",
"t.t.t.t.t.t.. O 7 w w w w w w q w C D ] L P G y & . t.t.t.t.t.t.",
"t.t.t.t.t.t.. O 9 w t w w w w w w q C L o.;.&.( 1   t.t.t.t.t.t.",
"t.t.t.t.t.t.. O 7 w w w w w w w w w 7 r ( ;.<.+.2   t.t.t.t.t.t.",
"t.t.t.t.t.t.. % 7 w w w w w w w w q % O : M =.+.2   t.t.t.t.t.t.",
"t.t.t.t.t.t.. O q w w u F G G k w 8 1 : . 2 +.+.4   t.t.t.t.t.t.",
"t.t.t.t.t.t.. O 9 w w b _ &.=.( 1 1 E T * 2 +.+.2 . t.t.t.t.t.t.",
"t.t.t.t.t.t.. O 8 w w G &.2.<. .2 4 #.#.2 :  .+.2   t.t.t.t.t.t.",
"t.t.t.t.t.t.. O 7 w w G &.2.-.( y l &.+.2 * R W : . t.t.t.t.t.t.",
"t.t.t.t.t.t.. O 7 w w b ..&.$.) F G &.=.M 5 N x * . t.t.t.t.t.t.",
"t.t.t.t.t.t.. % 7 i w u b ^ &.%.G G &.<.=.W 4 * t.t.t.t.t.t.t.t.",
"t.t.t.t.t.t.. O 7 w i 9 9 y ..O.I P ( +.@.W >   t.t.t.t.t.t.t.t.",
"t.t.t.t.t.t.. O 7 w w q % 7 n ~ ) Y h 3 > > t.t.t.t.t.t.t.t.t.t.",
"t.t.t.t.t.t.. O q w q = . O i n ! Q e 9 u H t.t.t.t.t.t.t.t.t.t.",
"t.t.t.t.t.t.. O q q % O   O i Z J J ' 3.9.9.V   t.t.t.t.t.t.t.t.",
"t.t.t.t.t.t.. O 7 ; o % d J a a f A ' 5.r.w.K   t.t.t.t.t.t.t.t.",
"t.t.t.t.t.t.t.t.O o . d 6.6.V % i S [ 5.r.e.F   t.t.t.t.t.t.t.t.",
"t.t.t.t.t.t.t.t.. .   F 0.q.U - 0 g ` 4.w.7.k   t.t.t.t.t.t.t.t.",
"t.t.t.t.t.t.t.t.t.t.  h >.1.X.z - e B *.:.| e . t.t.t.t.t.t.t.t.",
"t.t.t.t.t.t.t.t.t.t.  2 +.,.-.R $ + m } { 6 $ . t.t.t.t.t.t.t.t.",
"t.t.t.t.t.t.t.t.t.t.  2 +.2.2. .: @ j v > + t.t.t.t.t.t.t.t.t.t.",
"t.t.t.t.t.t.t.t.t.t.. 1 R +.+.T : O 9 i %   t.t.t.t.t.t.t.t.t.t.",
"t.t.t.t.t.t.t.t.t.t.t.t.: 2 2 : O o O O t.t.t.t.t.t.t.t.t.t.t.t.",
"t.t.t.t.t.t.t.t.t.t.t.t.      . . . . . t.t.t.t.t.t.t.t.t.t.t.t."
};
