/* XPM */
static char *result[] = {
/* columns rows colors chars-per-pixel */
"32 32 153 2 ",
"   c #09122A",
".  c #0C132A",
"X  c #0D152B",
"o  c #0F152B",
"O  c #0E152C",
"+  c #0F152C",
"@  c #0F172D",
"#  c #11142A",
"$  c #12152B",
"%  c #10152C",
"&  c #11162C",
"*  c #12162C",
"=  c #13172D",
"-  c #12182F",
";  c #131B31",
":  c #141B31",
">  c #141C33",
",  c #171C32",
"<  c #161D34",
"1  c #171D34",
"2  c #171E35",
"3  c #1D1C30",
"4  c #181D34",
"5  c #191D34",
"6  c #191E34",
"7  c #191E35",
"8  c #191E36",
"9  c #2B1E3A",
"0  c #391C31",
"q  c #182038",
"w  c #1A2038",
"e  c #1B2138",
"r  c #1B233A",
"t  c #1C2038",
"y  c #1C2139",
"u  c #1D213A",
"i  c #1E273E",
"p  c #21283F",
"a  c #332537",
"s  c #322636",
"d  c #322637",
"f  c #3E233D",
"g  c #352838",
"h  c #372838",
"j  c #382939",
"k  c #3A2939",
"l  c #3A2A38",
"z  c #3A2A39",
"x  c #3C2B3A",
"c  c #3D2C3A",
"v  c #3F2C3B",
"b  c #382B3D",
"n  c #392E3E",
"m  c #392E3F",
"M  c #1F2840",
"N  c #2F2240",
"B  c #202941",
"V  c #202A41",
"C  c #242B43",
"Z  c #242C44",
"A  c #252C44",
"S  c #242D44",
"D  c #242D45",
"F  c #252D45",
"G  c #262D45",
"H  c #262E45",
"J  c #242E46",
"K  c #262F47",
"L  c #2C2E47",
"P  c #292E49",
"I  c #282F4B",
"U  c #392E4B",
"Y  c #2B304B",
"T  c #29324A",
"R  c #28324B",
"E  c #2B334B",
"W  c #2B344B",
"Q  c #28334C",
"!  c #29344C",
"~  c #29354C",
"^  c #29344D",
"/  c #28354D",
"(  c #29354D",
")  c #2A344C",
"_  c #2B344C",
"`  c #2A354C",
"'  c #2A344D",
"]  c #2A354D",
"[  c #2B354D",
"{  c #2B374F",
"}  c #2C344C",
"|  c #2C354D",
" . c #2C364E",
".. c #303248",
"X. c #303348",
"o. c #2D3750",
"O. c #2E3850",
"+. c #303653",
"@. c #313653",
"#. c #383756",
"$. c #303C55",
"%. c #313E57",
"&. c #323E57",
"*. c #323F57",
"=. c #323F58",
"-. c #432F4D",
";. c #532048",
":. c #57244D",
">. c #4A324B",
",. c #4D344B",
"<. c #463D4F",
"1. c #4A3B4C",
"2. c #5A3943",
"3. c #473152",
"4. c #473E50",
"5. c #45385A",
"6. c #73254D",
"7. c #74264F",
"8. c #364963",
"9. c #394A64",
"0. c #394C67",
"q. c #3A4E68",
"w. c #3F536E",
"e. c #3F546F",
"r. c #534353",
"t. c #74464B",
"y. c #79444E",
"u. c #78484C",
"i. c #7C4A4D",
"p. c #7C4751",
"a. c #7D4F54",
"s. c #7E5054",
"d. c #425873",
"f. c #425874",
"g. c #8A293E",
"h. c #832844",
"j. c #882D49",
"k. c #933147",
"l. c #8D5153",
"z. c #965756",
"x. c #975756",
"c. c #985657",
"v. c #9A5757",
"b. c #985856",
"n. c #9A5856",
"m. c #9D565A",
"M. c #95585A",
"N. c #AA5D5E",
"B. c #A3615F",
"V. c #BF6963",
"C. c #BF6A63",
"Z. c #C66E65",
"A. c None",
/* pixels */
"A.A.A.A.A.A.A.A.A.A.A.A.A.A.A.A.A.A.A.A.A.A.A.A.A.A.A.A.A.A.A.A.",
"A.A.A.A.A.A.A.A.A.A.A.A.A.A.A.A.A.A.A.A.A.A.A.A.A.A.A.A.A.A.A.A.",
"A.A.A.A.A.A.A.A.A.A.= = = = = = = = = = = = A.A.A.A.A.A.A.A.A.A.",
"A.A.A.A.A.A.A.A.A.A.4 7 7 7 7 7 7 7 7 7 7 4 A.A.A.A.A.A.A.A.A.A.",
"A.A.A.A.A.A.A.A.# , p H G F F F F F F G H p , # A.A.A.A.A.A.A.A.",
"A.A.A.A.A.A.A.A.B D T | | | | | | | | | | T D B A.A.A.A.A.A.A.A.",
"A.A.A.A.A.A.$ V 8.q.$.E _ | | | | | | _ E $.q.8.V $ A.A.A.A.A.A.",
"A.A.A.A.A.A.$ M 0.f.9.%.o._ _ | | _ _ o.%.9.f.0.M $ A.A.A.A.A.A.",
"A.A.A.A.A.A.* e { 9.d.w.*.W _ | | _ W *.w.d.9.{ e * A.A.A.A.A.A.",
"A.A.A.A.A.A.= 5 C &.e.e.=.W _ | | _ W =.e.e.&.C 5 = A.A.A.A.A.A.",
"A.A.A.A.A.A.= 6 A O.=.=.O._ _ | | _ _ O.=.=.O.A 6 = A.A.A.A.A.A.",
"A.A.A.A.A.A.% 1 F | _ W _ | | | | | | _ W _ | F 1 % A.A.A.A.A.A.",
"A.A.A.A.A.A.o < S | } _ _ | | | | | | _ _ } | S < o A.A.A.A.A.A.",
"A.A.A.A.A.A.z n ..[ [ | | | | | | | | | | [ [ ..n z A.A.A.A.A.A.",
"A.A.A.A.O z i.a.<.! ) | | | | | | | | | | ) ! <.a.i.z O A.A.A.A.",
"A.A.A.A.O v n.B.r.Q ! | | | | | | | | | | ! Q r.B.n.v O A.A.A.A.",
"A.A.A.A.O v n.B.r.Q ! | | | | | | | | | | ! Q r.B.n.v O A.A.A.A.",
"A.A.A.A.O z i.a.<.! ) | | | | | | | | | | ) ! <.a.i.z O A.A.A.A.",
"A.A.A.A.A.A.z n ..[ [ | | | | | | | | | | [ [ ..n z A.A.A.A.A.A.",
"A.A.A.A.A.A.. > Z | | | | | | | | | | | | | | Z > . A.A.A.A.A.A.",
"A.A.A.A.A.A.. > Z | | | | | | | | | | | | | | Z > . A.A.A.A.A.A.",
"A.A.A.A.A.A.l m X.[ [ _ _ | | | | | | _ _ [ [ X.m l A.A.A.A.A.A.",
"A.A.A.A.  h i.s.4.^ ' _ _ | | | | | | _ _ ' ^ 4.s.i.h   A.A.A.A.",
"A.A.A.A.g 2.v.M.1.J R | [ ` ] ] ] ] ` [ | R J 1.M.v.2.g A.A.A.A.",
"A.A.O j u.c.m.p.b r K  .[ ~ ( / / ( ~ [  .K r b p.m.c.u.j O A.A.",
"A.A.O c b.C.N.y.a : i L U -.>.,.,.>.-.U L i : a y.N.C.b.c O A.A.",
"A.A.O c x.Z.V.l.k @ ; 9 ;.6.j.k.k.j.6.;.9 ; @ k l.V.Z.x.c O A.A.",
"A.A.O j u.z.x.t.d - 2 N :.7.h.g.g.h.7.:.N 2 - d t.x.z.u.j O A.A.",
"A.A.A.A.j x c s 3 8 P #.5.3.f 0 0 f 3.5.#.P 8 3 s c x j A.A.A.A.",
"A.A.A.A.O O O + & t Y @.+.I q X X q I +.@.Y t & + O O O A.A.A.A.",
"A.A.A.A.A.A.A.A.A.A.y u y w A.A.A.A.w y u y A.A.A.A.A.A.A.A.A.A.",
"A.A.A.A.A.A.A.A.A.A.* * * * A.A.A.A.* * * * A.A.A.A.A.A.A.A.A.A."
};
