/* XPM */
static char *result[] = {
/* columns rows colors chars-per-pixel */
"32 32 159 2 ",
"   c #09122A",
".  c #0D152B",
"X  c #0F152B",
"o  c #0E152C",
"O  c #0F152C",
"+  c #11142A",
"@  c #12152B",
"#  c #10152C",
"$  c #10162C",
"%  c #11162C",
"&  c #12162C",
"*  c #13162C",
"=  c #12172D",
"-  c #13172D",
";  c #11182F",
":  c #171C32",
">  c #161D34",
",  c #171D34",
"<  c #161D35",
"1  c #171D35",
"2  c #171E34",
"3  c #1D1C30",
"4  c #181D34",
"5  c #191D34",
"6  c #191E34",
"7  c #191E35",
"8  c #191F35",
"9  c #191E36",
"0  c #191F37",
"q  c #381B30",
"w  c #182038",
"e  c #1B2138",
"r  c #1B223A",
"t  c #1C2139",
"y  c #1D2139",
"u  c #1C223A",
"i  c #1D223A",
"p  c #2E213F",
"a  c #2F223F",
"s  c #21283F",
"d  c #332537",
"f  c #322636",
"g  c #322637",
"h  c #3E233C",
"j  c #352838",
"k  c #372938",
"l  c #382939",
"z  c #3A2A39",
"x  c #3B2A39",
"c  c #3C2B3A",
"v  c #3D2C3A",
"b  c #3F2C3B",
"n  c #382C3D",
"m  c #392C3D",
"M  c #392E3E",
"N  c #1F2840",
"B  c #202941",
"V  c #202A41",
"C  c #242B43",
"Z  c #252C44",
"A  c #242D44",
"S  c #252D44",
"D  c #242D45",
"F  c #252D45",
"G  c #262E45",
"H  c #252E46",
"J  c #272F47",
"K  c #2C2D42",
"L  c #272D48",
"P  c #262E48",
"I  c #282E49",
"U  c #29304B",
"Y  c #29324A",
"T  c #2A334B",
"R  c #2B334B",
"E  c #2B344B",
"W  c #28334C",
"Q  c #2C304C",
"!  c #2C334F",
"~  c #29344C",
"^  c #2A344C",
"/  c #2B344C",
"(  c #2B354C",
")  c #2B354D",
"_  c #2B374F",
"`  c #2C344C",
"'  c #2C354D",
"]  c #2C364E",
"[  c #2D364E",
"{  c #303248",
"}  c #2D3750",
"|  c #2E3850",
" . c #2F3851",
".. c #2F3A53",
"X. c #303754",
"o. c #323754",
"O. c #373554",
"+. c #383756",
"@. c #303852",
"#. c #303C55",
"$. c #313E57",
"%. c #323E57",
"&. c #323F57",
"*. c #313F59",
"=. c #323F58",
"-. c #353D5A",
";. c #373D5B",
":. c #56234C",
">. c #57244D",
",. c #463D4F",
"<. c #5B3A44",
"1. c #473051",
"2. c #433558",
"3. c #45375A",
"4. c #74254E",
"5. c #772A53",
"6. c #513F61",
"7. c #32425B",
"8. c #384561",
"9. c #364963",
"0. c #394A64",
"q. c #394C67",
"w. c #3A4E68",
"e. c #3F536E",
"r. c #3F546F",
"t. c #3E5571",
"y. c #534353",
"u. c #74464B",
"i. c #79444E",
"p. c #7A454E",
"a. c #78484C",
"s. c #794A4E",
"d. c #7C4A4D",
"f. c #7C4A4E",
"g. c #7D4F54",
"h. c #425873",
"j. c #425874",
"k. c #425E7A",
"l. c #5F5270",
"z. c #675D78",
"x. c #89273C",
"c. c #822743",
"v. c #8F3755",
"b. c #9B3F55",
"n. c #8D5153",
"m. c #905254",
"M. c #965756",
"N. c #975756",
"B. c #985757",
"V. c #985856",
"C. c #9A5856",
"Z. c #9D565A",
"A. c #9A5858",
"S. c #AA5D5E",
"D. c #A3615F",
"F. c #BE6963",
"G. c #BF6A63",
"H. c #C66E65",
"J. c None",
/* pixels */
"J.J.J.J.J.J.J.J.J.J.- * & * - = % $ $ % & - J.J.J.J.J.J.J.J.J.J.",
"J.J.J.J.J.J.J.J.J.J.4 7 8 8 8 8 8 8 8 8 7 4 J.J.J.J.J.J.J.J.J.J.",
"J.J.J.J.J.J.J.J.+ : s G G G G G G G G G G s : + J.J.J.J.J.J.J.J.",
"J.J.J.J.J.J.J.J.B D Y ' ' ' ' ' ' ' ' ' ' Y D B J.J.J.J.J.J.J.J.",
"J.J.J.J.J.J.@ V 9.w.#.R / ' ' ' ' ' ' / R #.w.9.V @ J.J.J.J.J.J.",
"J.J.J.J.J.J.@ N q.j.0.$.} / / ' ' / / } $.0.j.q.N @ J.J.J.J.J.J.",
"J.J.J.J.J.J.& e _ 0.h.e.&.E / ' ' / E &.e.h.0._ e & J.J.J.J.J.J.",
"J.J.J.J.J.J.- 5 C %.r.r.=.E / ' ' / E =.r.r.%.C 5 - J.J.J.J.J.J.",
"J.J.J.J.J.J.- 6 Z | =.=.| / / ' ' / / | =.=.| Z 6 - J.J.J.J.J.J.",
"J.J.J.J.J.J.# , F ' / E / ' ' ' ' ' ' / E / ' F , # J.J.J.J.J.J.",
"J.J.J.J.J.J.X > A ' ` / / ' ' ' ' ' ' / / ` ' A > X J.J.J.J.J.J.",
"J.J.J.J.J.J.z M { ) ) ' ' ' ' ' ' ' ' ' ' ) ) { M z J.J.J.J.J.J.",
"J.J.J.J.o z d.g.,.~ ^ ' ' ' ' ' ' ' ' ' ' ^ ~ ,.g.d.z o J.J.J.J.",
"J.J.J.J.o b C.D.y.W ~ ' ' ' ' ' ' ' ' ' ' ~ W y.D.C.b o J.J.J.J.",
"J.J.J.J.o b C.D.y.W ~ ' ' ' ' ' ' ' ' ' ' ~ W y.D.C.b o J.J.J.J.",
"J.J.J.J.o z d.g.,.~ ^ ' ' ' ' ' ' ' ' ' ' ^ ~ ,.g.d.z o J.J.J.J.",
"J.J.J.J.J.J.z M { ) ) ' ' ' ' ' ' ' ' ' ' ) ) { M z J.J.J.J.J.J.",
"J.J.J.J.J.J.X > A ' ' ' ' ' ' ' ' ' ' ' ' ' ' A > X J.J.J.J.J.J.",
"J.J.J.J.J.J.# , S ' ' ' ' ' ' ' ' ' ' ' ' ' ' S , # J.J.J.J.J.J.",
"J.J.J.J.J.J.# 2 F ] ' / / ' ' ' ' ' ' / / ' ] F 2 # J.J.J.J.J.J.",
"J.J.J.J.J.J.X > F [ ' / / ' ' ' ' ' ' / / ' [ F > X J.J.J.J.J.J.",
"J.J.J.J.J.J.z n K J T ( / / / / / / / / ( T J K n z J.J.J.J.J.J.",
"J.J.J.J.  k f.s.m r H ' ( / E R R E / ( ' H r m s.f.k   J.J.J.J.",
"J.J.J.J.j <.A.m.x > P @. ...*.7.7.*... .@.P > x m.A.<.j J.J.J.J.",
"J.J.o l a.B.Z.p.d 0 ! ;.-.8.t.k.k.t.8.-.;.! 0 d p.Z.B.a.l o J.J.",
"J.J.o v V.G.S.i.d 1 L O.2.6.l.z.z.l.6.2.O.L 1 d i.S.G.V.v o J.J.",
"J.J.o v N.H.F.n.z ; > p :.5.v.b.b.v.5.:.p > ; z n.F.H.N.v o J.J.",
"J.J.o l a.M.N.u.g ; < a >.4.c.x.x.c.4.>.a < ; g u.N.M.a.l o J.J.",
"J.J.J.J.l c v f 3 9 I +.3.1.h q q h 1.3.+.I 9 3 f v c l J.J.J.J.",
"J.J.J.J.o o o O % t Q o.X.U w . . w U X.o.Q t % O o o o J.J.J.J.",
"J.J.J.J.J.J.J.J.J.J.y i u e J.J.J.J.e u i y J.J.J.J.J.J.J.J.J.J.",
"J.J.J.J.J.J.J.J.J.J.& & & & J.J.J.J.& & & & J.J.J.J.J.J.J.J.J.J."
};
