/* XPM */
static char *result[] = {
/* columns rows colors chars-per-pixel */
"32 32 128 2 ",
"   c #0E142B",
".  c #13172D",
"X  c #15192F",
"o  c #161D34",
"O  c #191E35",
"+  c #191F38",
"@  c #33192F",
"#  c #2E1D34",
"$  c #341B31",
"%  c #1C223A",
"&  c #212136",
"*  c #2E2336",
"=  c #22253D",
"-  c #2C243A",
";  c #21283F",
":  c #332536",
">  c #3A2837",
",  c #37263B",
"<  c #3F223A",
"1  c #36293A",
"2  c #3B2B3A",
"3  c #40303F",
"4  c #49303E",
"5  c #6D2238",
"6  c #1F2B44",
"7  c #252D45",
"8  c #2A2C42",
"9  c #272F4B",
"0  c #2B2D48",
"q  c #372E40",
"w  c #392E40",
"e  c #273047",
"r  c #25314A",
"t  c #2B344C",
"y  c #353147",
"u  c #3E3547",
"i  c #33354E",
"p  c #3E3649",
"a  c #34384E",
"s  c #2F3654",
"d  c #2E3A52",
"f  c #313754",
"g  c #323D56",
"h  c #3B3855",
"j  c #323F58",
"k  c #403343",
"l  c #403748",
"z  c #443C4F",
"x  c #4A3C4C",
"c  c #5B3646",
"v  c #5F3C44",
"b  c #50334E",
"n  c #443C51",
"m  c #493F53",
"M  c #4F3A58",
"N  c #762D46",
"B  c #613D45",
"V  c #633A48",
"C  c #743148",
"Z  c #3E4457",
"A  c #34415B",
"S  c #3E445A",
"D  c #384862",
"F  c #3F4E69",
"G  c #3E526E",
"H  c #3A5572",
"J  c #454355",
"K  c #4D4252",
"L  c #424558",
"P  c #474A5C",
"I  c #4F495C",
"U  c #514252",
"Y  c #5A4454",
"T  c #5C4D5C",
"R  c #6A404D",
"E  c #74464B",
"W  c #7B464F",
"Q  c #76494E",
"!  c #7A494D",
"~  c #674253",
"^  c #6A4B56",
"/  c #6B4558",
"(  c #654B5E",
")  c #7D4750",
"_  c #7B4C53",
"`  c #744958",
"'  c #7F5459",
"]  c #4C4661",
"[  c #415671",
"{  c #485771",
"}  c #455E7A",
"|  c #8C283F",
" . c #942F47",
".. c #924A5D",
"X. c #8D5154",
"o. c #82545A",
"O. c #89535B",
"+. c #84585D",
"@. c #8B585E",
"#. c #965755",
"$. c #985654",
"%. c #985856",
"&. c #9F575A",
"*. c #93585A",
"=. c #9D5E5D",
"-. c #A6455B",
";. c #A55E5A",
":. c #AB5C5D",
">. c #A1605E",
",. c #B95568",
"<. c #9E6F71",
"1. c #BD6660",
"2. c #BD6961",
"3. c #B87A79",
"4. c #C36B63",
"5. c #586B83",
"6. c #84748B",
"7. c #748DA5",
"8. c #8D919F",
"9. c #A78F9D",
"0. c #8E92A0",
"q. c #939BAB",
"w. c #AFA1A8",
"e. c #B6A4AB",
"r. c #BFA4B3",
"t. c #B3B5C0",
"y. c #C4CEDB",
"u. c None",
/* pixels */
"u.u.u.u.u.u.u.u.u.u.. . . . . . . . . .   . u.u.u.u.u.u.u.u.u.u.",
"u.u.u.u.u.u.u.u.u.u.O O O O O % O O O O % % u.u.u.u.u.u.u.u.u.u.",
"u.u.u.u.u.u.u.u.  % % e 7 7 7 7 7 7 8 8 e % % . u.u.u.u.u.u.u.u.",
"u.u.u.u.u.u.u.u.% % t t t t t t t t A A A d % % u.u.u.u.u.u.u.u.",
"u.u.u.u.u.u.. O % e t a t t t t t d [ } } G t % O . u.u.u.u.u.u.",
"u.u.u.u.u.u.. O e t t t e a A A A D [ } } [ A 7 O . u.u.u.u.u.u.",
"u.u.u.u.u.u.X O e t t t t d G } } H D A A g a e O . u.u.u.u.u.u.",
"u.u.u.u.u.u.. O e t t t A D G } } G A e e t t 8 % . u.u.u.u.u.u.",
"u.u.u.u.u.u.. O 7 t r d G [ D A A A t t t t d 7 O . u.u.u.u.u.u.",
"u.u.u.u.u.u.. & p U U I { G A t t t t t t t t 7 O . u.u.u.u.u.u.",
"u.u.u.u.u.u.  1 _ >.>.+.P d t t t t t t t t t 7 O . u.u.u.u.u.u.",
"u.u.u.u.u.u.  2 #.2.>._ u e t t t t t t t t t 7 O . u.u.u.u.u.u.",
"u.u.u.u.u.u.. 2 #.;.B : % % e a t t r t t t t 7 O X u.u.u.u.u.u.",
"u.u.u.u.u.u.  3 #.#.2 X * 1 ; i z U U z a t t 7 O . u.u.u.u.u.u.",
"u.u.u.u.u.u.  2 #.#.1 * E ! 1 y _ >.=.' m t t 7 O . u.u.u.u.u.u.",
"u.u.u.u.u.u.  2 #.X.: 2 #.%.2 2 X.2.4.=.K t t 7 O . u.u.u.u.u.u.",
"u.u.u.u.u.u.  1 ) ) * > #.=.x p _ :.1.=.K t t 7 o . u.u.u.u.u.u.",
"u.u.u.u.u.u.  : c B 4 B ;.=.K z _ &.=.' m t t 7 O . u.u.u.u.u.u.",
"u.u.u.u.u.u.u.u.* 4 ! ;.2.=.K m *.=.^ m a t t 7 O . u.u.u.u.u.u.",
"u.u.u.u.u.u.u.u.  , ! $.#._ U Y @.o.p 6 t t t 7 + . u.u.u.u.u.u.",
"u.u.u.u.u.u.u.u.u.u.> > , 4 R ` ( m = o 7 t t 7 O . u.u.u.u.u.u.",
"u.u.u.u.u.u.u.u.u.u.L g 7 y ~ / n s S S t 9 t 7 % . u.u.u.u.u.u.",
"u.u.u.u.u.u.u.u.  S 8.q.5.F ] h = S 8.8.L % 7 7 O . u.u.u.u.u.u.",
"u.u.u.u.u.u.u.u.  P r.y.7.} A 0 - T e.w.J . % 7 O . u.u.u.u.u.u.",
"u.u.u.u.u.u.u.u.  P t.y.7.H 7 - c O.3.<.k   o O u.u.u.u.u.u.u.u.",
"u.u.u.u.u.u.u.u.  n 9.r.6.] = : W :.1.#.2   . . u.u.u.u.u.u.u.u.",
"u.u.u.u.u.u.u.u.  2 ..,.-.C # , X.2.4.#.2 . u.u.u.u.u.u.u.u.u.u.",
"u.u.u.u.u.u.u.u.  $ 5 |  .N , q Q #.#.! 1   u.u.u.u.u.u.u.u.u.u.",
"u.u.u.u.u.u.u.u.u.u.$ < b M h i 2 1 2 1 u.u.u.u.u.u.u.u.u.u.u.u.",
"u.u.u.u.u.u.u.u.u.u.  + 9 s f 0 %     . u.u.u.u.u.u.u.u.u.u.u.u.",
"u.u.u.u.u.u.u.u.u.u.u.u.+ % % % u.u.u.u.u.u.u.u.u.u.u.u.u.u.u.u.",
"u.u.u.u.u.u.u.u.u.u.u.u.. . . . u.u.u.u.u.u.u.u.u.u.u.u.u.u.u.u."
};
