/* XPM */
static char *result[] = {
/* columns rows colors chars-per-pixel */
"32 32 119 2 ",
"   c #0D1127",
".  c #0E152C",
"X  c #13172D",
"o  c #15192F",
"O  c #161C34",
"+  c #191E35",
"@  c #33192F",
"#  c #201E36",
"$  c #2F1C33",
"%  c #341B31",
"&  c #1B223A",
"*  c #212136",
"=  c #2E2336",
"-  c #22263D",
";  c #2C253B",
":  c #21283F",
">  c #332637",
",  c #3B2937",
"<  c #362739",
"1  c #38273F",
"2  c #362A3A",
"3  c #3B2B3A",
"4  c #40233A",
"5  c #40303F",
"6  c #48303E",
"7  c #6D2238",
"8  c #1F2B44",
"9  c #252D45",
"0  c #2A2C42",
"q  c #242E49",
"w  c #2C2D48",
"e  c #392E40",
"r  c #273047",
"t  c #263149",
"y  c #2B344C",
"u  c #3E3547",
"i  c #33374E",
"p  c #3E3649",
"a  c #34384E",
"s  c #2F3655",
"d  c #2E3A52",
"f  c #333652",
"g  c #313D56",
"h  c #333E59",
"j  c #3C3D5A",
"k  c #403343",
"l  c #43354B",
"z  c #443C4F",
"x  c #4A3C4C",
"c  c #573545",
"v  c #5D3746",
"b  c #5F3C44",
"n  c #51334F",
"m  c #453E51",
"M  c #4A3F53",
"N  c #732A42",
"B  c #613D45",
"V  c #633A48",
"C  c #79354D",
"Z  c #3C4356",
"A  c #34425B",
"S  c #3E4559",
"D  c #394463",
"F  c #384862",
"G  c #374E6B",
"H  c #3E526E",
"J  c #454355",
"K  c #4C4153",
"L  c #41445B",
"P  c #4F495C",
"I  c #514252",
"U  c #5C4D5C",
"Y  c #74464B",
"T  c #7B464F",
"R  c #77484D",
"E  c #7A494D",
"W  c #6A4B56",
"Q  c #7D4750",
"!  c #7A4C53",
"~  c #7F5459",
"^  c #534860",
"/  c #56506C",
"(  c #415671",
")  c #485771",
"_  c #455E7A",
"`  c #8C283F",
"'  c #942F47",
"]  c #954C5F",
"[  c #8E5254",
"{  c #84565C",
"}  c #89535B",
"|  c #84585D",
" . c #965755",
".. c #985654",
"X. c #985856",
"o. c #9F575A",
"O. c #93585A",
"+. c #9D5E5D",
"@. c #A7465D",
"#. c #A55E5A",
"$. c #AB5C5D",
"%. c #A1605E",
"&. c #BC576B",
"*. c #9E6F71",
"=. c #BD6660",
"-. c #BD6961",
";. c #B87A79",
":. c #C36B63",
">. c #576D85",
",. c #86758D",
"<. c #8D919F",
"1. c #8D91A0",
"2. c #9095A3",
"3. c #939FAE",
"4. c #AA93A0",
"5. c #AFA1A8",
"6. c #B6A4AB",
"7. c #C3A7B6",
"8. c None",
/* pixels */
"8.8.8.8.8.8.8.8.8.8.8.8.8.8.8.8.8.8.8.8.8.8.8.8.8.8.8.8.8.8.8.8.",
"8.8.8.8.8.8.8.8.8.8.8.8.8.8.8.8.8.8.8.8.8.8.8.8.8.8.8.8.8.8.8.8.",
"8.8.8.8.8.8.8.8.8.8.X X X X X X X X o X X X 8.8.8.8.8.8.8.8.8.8.",
"8.8.8.8.8.8.8.8.8.8.+ & + + + + + + + + + + 8.8.8.8.8.8.8.8.8.8.",
"8.8.8.8.8.8.8.8.X o : r 9 9 9 9 9 9 9 9 9 - O X 8.8.8.8.8.8.8.8.",
"8.8.8.8.8.8.8.8.& - r y y y y y y d A A A d : O 8.8.8.8.8.8.8.8.",
"8.8.8.8.8.8.X + : r y y y y y r r h H _ _ H d - + X 8.8.8.8.8.8.",
"8.8.8.8.8.8.X + r y y y y f A A A F ( _ _ ( h 9 + X 8.8.8.8.8.8.",
"8.8.8.8.8.8.X + 9 y y y t A H _ _ H S A A A f 9 + X 8.8.8.8.8.8.",
"8.8.8.8.8.8.X + 9 y y d A F H _ _ H A y y y y 9 + X 8.8.8.8.8.8.",
"8.8.8.8.8.8.X + 9 y t g H H S A A A y y y y y 9 + X 8.8.8.8.8.8.",
"8.8.8.8.8.8.X * p I I P ) H A y y t y y y y y 9 + X 8.8.8.8.8.8.",
"8.8.8.8.8.8.X > ! +.%.| P A y y y y y y y y i 9 + X 8.8.8.8.8.8.",
"8.8.8.8.8.8.. 3  .-.%.! u 9 r y t y y y y y y r + X 8.8.8.8.8.8.",
"8.8.8.8.8.8.. 5  .#.b > + & r y y t t y y y y 9 + o 8.8.8.8.8.8.",
"8.8.8.8.8.8.. 3  . .3 o = 2 : i z I I J f y y 9 + X 8.8.8.8.8.8.",
"8.8.8.8.8.8.. 3  . .3 = R R 2 e ! +.+.~ m y y 9 + X 8.8.8.8.8.8.",
"8.8.8.8.8.8.X 3 [ [ 2 3  .o.e 2 [ -.:.+.K y y 9 + X 8.8.8.8.8.8.",
"8.8.8.8.8.8.. < E T = 2  .+.x p ! $.-.%.I y d 9 + X 8.8.8.8.8.8.",
"8.8.8.8.8.8.X = v V 6 b #.+.K m ! o.+.~ m y y 9 + X 8.8.8.8.8.8.",
"8.8.8.8.8.8.8.8.= 6 E #.-.+.K M O.#.W m i y y 9 + X 8.8.8.8.8.8.",
"8.8.8.8.8.8.8.8.. < E .. .! m M { { p 9 t y y 9 + X 8.8.8.8.8.8.",
"8.8.8.8.8.8.8.8.8.8.< , 3 e s m ^ M - + 9 y y 9 + o 8.8.8.8.8.8.",
"8.8.8.8.8.8.8.8.8.8.Z Z q q h h s g S j y t y 9 + X 8.8.8.8.8.8.",
"8.8.8.8.8.8.8.8.  J 1.3.>.G D s & S <.<.S + 9 9 + X 8.8.8.8.8.8.",
"8.8.8.8.8.8.8.8.X m 4.7.,./ j w ; U 6.5.J O & 9 + X 8.8.8.8.8.8.",
"8.8.8.8.8.8.8.8.. 1 ] &.@.C e ; c } ;.*.u X O + 8.8.8.8.8.8.8.8.",
"8.8.8.8.8.8.8.8.X % 7 ` ' N $ > Q $.=...3   X X 8.8.8.8.8.8.8.8.",
"8.8.8.8.8.8.8.8.8.8.% 1 n l # , [ -.:. .3 X 8.8.8.8.8.8.8.8.8.8.",
"8.8.8.8.8.8.8.8.8.8.. + w q + > Y  . .R 2 . 8.8.8.8.8.8.8.8.8.8.",
"8.8.8.8.8.8.8.8.8.8.8.8.+ + O + > 3 3 3 8.8.8.8.8.8.8.8.8.8.8.8.",
"8.8.8.8.8.8.8.8.8.8.8.8.o o X X . . . . 8.8.8.8.8.8.8.8.8.8.8.8."
};
