/* XPM */
static char *result[] = {
/* columns rows colors chars-per-pixel */
"64 64 155 2 ",
"   c #070B22",
".  c #060E2B",
"X  c #0D132A",
"o  c #13172D",
"O  c #15182E",
"+  c #161B32",
"@  c #191E35",
"#  c #281734",
"$  c #2B1A35",
"%  c #321A31",
"&  c #321F3E",
"*  c #1B2137",
"=  c #1C2239",
"-  c #21212F",
";  c #2D2335",
":  c #20273E",
">  c #21283F",
",  c #212136",
"<  c #302436",
"1  c #3C253A",
"2  c #352A3A",
"3  c #3B2B3A",
"4  c #3E3631",
"5  c #40352C",
"6  c #482F3E",
"7  c #452D3D",
"8  c #582F3E",
"9  c #463D32",
"0  c #40303F",
"q  c #483D32",
"w  c #6D233A",
"e  c #46463C",
"r  c #5B4239",
"t  c #675B3E",
"y  c #252D45",
"u  c #272F4A",
"i  c #282F4A",
"p  c #2A2C42",
"a  c #372E41",
"s  c #3A2F42",
"d  c #273047",
"f  c #2B344C",
"g  c #31364C",
"h  c #3E3649",
"j  c #363A4E",
"k  c #3E3547",
"l  c #2F3653",
"z  c #2E3A52",
"x  c #333D55",
"c  c #3A3E51",
"v  c #323F58",
"b  c #353752",
"n  c #4E1941",
"m  c #611C4A",
"M  c #403748",
"N  c #4F334F",
"B  c #443C4F",
"V  c #4A3C4C",
"C  c #563741",
"Z  c #5D3B44",
"A  c #412F52",
"S  c #453D51",
"D  c #4C3C57",
"F  c #543B5A",
"G  c #642247",
"H  c #633948",
"J  c #673947",
"K  c #662150",
"L  c #7E2650",
"P  c #732851",
"I  c #3F4255",
"U  c #34425B",
"Y  c #384862",
"T  c #3E526E",
"R  c #524742",
"E  c #4E4252",
"W  c #45495B",
"Q  c #4D495D",
"!  c #414154",
"~  c #514252",
"^  c #664048",
"/  c #6F444A",
"(  c #73454B",
")  c #7B454F",
"_  c #77484D",
"`  c #7B4A4F",
"'  c #6A4B56",
"]  c #7A4C53",
"[  c #7F5459",
"{  c #574B60",
"}  c #415671",
"|  c #485771",
" . c #455E7A",
".. c #6C6D6B",
"X. c #70716C",
"o. c #6A6C7C",
"O. c #9C7739",
"+. c #8A2E4E",
"@. c #8B2A41",
"#. c #903048",
"$. c #963948",
"%. c #802650",
"&. c #8A3F54",
"*. c #A8384D",
"=. c #B83E4C",
"-. c #824F4C",
";. c #964756",
":. c #8D5154",
">. c #84585D",
",. c #965756",
"<. c #9A5856",
"1. c #9E5D5C",
"2. c #975759",
"3. c #A45D5A",
"4. c #A95B5C",
"5. c #BE5D5B",
"6. c #B2595A",
"7. c #A1605E",
"8. c #825E6A",
"9. c #A15E63",
"0. c #B56760",
"q. c #BD6961",
"w. c #A76F76",
"e. c #A7787B",
"r. c #C66E64",
"t. c #C97065",
"y. c #C17F7C",
"u. c #A4813C",
"i. c #A0955F",
"p. c #A59A5D",
"a. c #C29C47",
"s. c #C5B360",
"d. c #FFD966",
"f. c #848795",
"g. c #8A8D9B",
"h. c #A39AA6",
"j. c #AFA3AB",
"k. c #B1B3BE",
"l. c #D0B0B4",
"z. c #CDC58E",
"x. c #D0C88F",
"c. c #FFED8D",
"v. c #F4EBBC",
"b. c #BBBDC7",
"n. c #BCBEC8",
"m. c #BEC0C4",
"M. c #DCDBCF",
"N. c #D6D7E0",
"B. c #D7D8E0",
"V. c #E6E6EE",
"C. c #E7E8EF",
"Z. c #E7E8F0",
"A. c #ECEDF4",
"S. c #E4E6F2",
"D. c None",
/* pixels */
"D.D.D.D.D.D.D.D.D.D.D.D.D.D.D.D.D.D.D.D.D.D.D.D.D.D.D.D.D.D.D.D.D.D.D.D.D.D.D.D.D.D.D.D.D.D.D.D.D.D.D.D.D.D.D.D.D.D.D.D.D.D.D.D.",
"D.D.D.D.D.D.D.D.D.D.D.D.D.D.D.D.D.D.D.D.D.D.D.D.D.D.D.D.D.D.D.D.D.D.D.D.D.D.D.D.D.D.D.D.D.D.D.D.D.D.D.D.D.D.D.D.D.D.D.D.D.D.D.D.",
"D.D.D.D.D.D.D.D.D.D.D.D.D.D.D.D.D.D.D.D.D.D.D.D.D.D.D.D.D.D.D.D.D.D.D.D.D.D.D.D.D.D.D.D.D.D.D.D.D.D.D.D.D.D.D.D.D.D.D.D.D.D.D.D.",
"D.D.D.D.D.D.D.D.D.D.D.D.D.D.D.D.D.D.D.D.D.D.D.D.D.D.D.D.D.D.D.D.D.D.D.D.D.D.D.D.D.D.D.D.D.D.D.D.D.D.D.D.D.D.D.D.D.D.D.D.D.D.D.D.",
"D.D.D.D.D.D.D.D.D.D.D.D.D.D.D.D.D.D.D.D.D.D.D.D.D.D.D.D.D.D.D.D.D.D.D.D.D.D.D.D.D.D.D.D.D.D.D.D.D.D.D.D.D.D.D.D.D.D.D.D.D.D.D.D.",
"D.D.D.D.D.D.D.D.D.D.D.D.D.D.D.D.D.D.D.D.D.D.D.D.D.D.D.D.D.D.D.D.D.D.D.D.D.D.D.D.D.D.D.D.D.D.D.D.D.D.D.D.D.D.D.D.D.D.D.D.D.D.D.D.",
"D.D.D.D.D.D.D.D.D.D.D.D.D.D.D.D.D.D.D.D.D.D.D.D.D.D.D.D.D.D.D.D.D.D.D.D.D.D.D.D.D.D.D.D.D.D.D.D.D.D.D.D.D.D.D.D.D.D.D.D.D.D.D.D.",
"D.D.D.D.D.D.D.D.D.D.D.D.D.D.D.D.D.D.D.D.D.D.D.D.D.D.D.D.D.D.D.D.D.D.D.D.D.D.D.D.D.D.D.D.D.D.D.D.D.D.D.D.D.D.D.D.D.D.D.D.D.D.D.D.",
"D.D.D.D.D.D.D.D.D.D.D.D.D.D.D.D.D.D.D.D.D.D.D.D.D.D.D.D.D.D.D.D.D.D.D.D.D.D.D.D.D.D.D.D.D.D.D.D.D.D.D.D.D.D.D.D.D.D.D.D.D.D.D.D.",
"D.D.D.D.D.D.D.D.D.D.D.D.D.D.D.D.D.D.D.D.D.D.D.D.D.D.D.D.D.D.D.D.D.D.D.D.D.D.D.D.D.D.D.D.D.D.D.D.D.D.D.D.D.D.D.D.D.D.D.D.D.D.D.D.",
"D.D.D.D.D.D.D.D.D.D.D.D.D.D.D.D.D.D.D.D.D.D.D.D.D.D.D.D.D.D.D.D.D.D.D.D.D.D.D.D.D.D.D.D.D.D.D.D.D.D.D.D.D.D.D.D.D.D.D.D.D.D.D.D.",
"D.D.D.D.D.D.D.D.D.D.D.D.D.D.D.D.D.D.D.D.D.D.D.D.D.D.D.D.D.D.D.D.D.D.D.D.D.D.D.D.D.D.D.D.D.D.D.D.D.D.D.D.D.D.D.D.D.D.D.D.D.D.D.D.",
"D.D.D.D.D.D.D.D.D.D.D.D.D.D.D.D.D.D.D.D.D.D.D.D.D.D.D.D.D.D.D.D.D.D.D.D.D.D.D.D.D.D.D.D.D.D.D.D.D.D.D.D.D.D.D.D.D.D.D.D.D.D.D.D.",
"D.D.D.D.D.D.D.D.D.D.D.D.D.D.D.D.D.D.D.D.D.D.D.D.D.D.D.D.D.D.D.D.D.D.D.D.D.D.D.D.D.D.D.D.D.D.D.D.D.D.D.D.D.D.D.D.D.D.D.D.D.D.D.D.",
"D.D.D.D.D.D.D.D.D.D.D.D.D.D.D.D.D.D.D.D.D.D.D.D.D.D.D.D.D.D.D.D.D.D.D.D.D.D.D.D.D.D.D.D.D.D.D.D.D.D.D.D.D.D.D.D.D.D.D.D.D.D.D.D.",
"D.D.D.D.D.D.D.D.D.D.D.D.D.D.D.D.D.D.D.D.D.D.D.D.D.D.D.D.D.D.D.D.D.D.D.D.D.D.D.D.D.D.D.D.D.D.D.D.D.D.D.D.D.D.D.D.D.D.D.D.D.D.D.D.",
"D.D.D.D.D.D.D.D.D.D.D.D.D.D.D.D.D.D.D.D.D.D.D.D.O O O o o o O o o o o o D.D.D.D.D.D.D.D.D.D.D.D.D.D.D.D.D.D.D.D.D.D.D.D.D.D.D.D.",
"D.D.D.D.D.D.D.D.D.D.D.D.D.D.D.D.D.D.D.D.D.D.D.D.+ + + * * + @ @ @ @ @ @ D.D.D.D.D.D.D.D.D.D.D.D.D.D.D.D.D.D.D.D.D.D.D.D.D.D.D.D.",
"D.D.D.D.D.D.D.D.D.D.D.D.D.D.D.D.D.D.D.D.D.D.o + : y y p y y y y y y d p @ o D.D.D.D.D.D.D.D.D.D.D.D.D.D.D.D.D.D.D.D.D.D.D.D.D.D.",
"D.D.D.D.D.D.D.D.D.D.D.D.D.D.D.D.D.D.D.D.D.D.+ : z U U v g f f f f f f d = + D.D.D.D.D.D.D.D.D.D.D.D.D.D.D.D.D.D.D.D.D.D.D.D.D.D.",
"D.D.D.D.D.D.D.D.D.D.D.D.D.D.D.D.D.D.D.D.O + > x T  . .T v f d f f f f f d y + O D.D.D.D.D.D.D.D.D.D.D.D.D.D.D.D.D.D.D.D.D.D.D.D.",
"D.D.D.D.D.D.D.D.D.D.D.D.D.D.D.D.D.D.D.D.O + y v T  . .} U U U v z f f f f d @ O D.D.D.D.D.D.D.D.D.D.D.D.D.D.D.D.D.D.D.D.D.D.D.D.",
"D.D.D.D.D.D.D.D.D.D.D.D.D.D.D.D.D.D.D.D.o * y z U U U U }  . .T v d f f f y @ o D.D.D.D.D.D.D.D.D.D.D.D.D.D.D.D.D.D.D.D.D.D.D.D.",
"D.D.D.D.D.D.D.D.D.D.D.D.D.D.D.D.D.D.D.D.O + y f f f f v }  . .} Y v f f f y @ o D.D.D.D.D.D.D.D.D.D.D.D.D.D.D.D.D.D.D.D.D.D.D.D.",
"D.D.D.D.D.D.D.D.D.D.D.D.D.D.D.D.D.D.D.D.o @ y f f f f g v U U Y } } v d f y @ o D.D.D.D.D.D.X X X X o o D.D.D.D.D.D.D.D.D.D.D.D.",
"D.D.D.D.D.D.D.D.D.D.D.D.D.D.D.D.D.D.D.D.o @ y f f f f f f d d v T | Q ~ E M * o D.D.D.D.D.D.I W W j * o D.D.D.D.D.D.D.D.D.D.D.D.",
"D.D.D.D.D.D.D.D.D.D.D.D.D.D.D.D.D.D.D.D.o @ y f f f f f f f f z v Q >.3.7.] 2 X D.D.D.D.  c g.k.k.f.j o D.D.D.D.D.D.D.D.D.D.D.D.",
"D.D.D.D.D.D.D.D.D.D.D.D.D.D.D.D.D.D.D.D.O @ u f f f f f f f f d y h ] 3.q.,.3 X D.D.D.D.c o.b.A.A.k.W X D.D.D.D.D.D.D.D.D.D.D.D.",
"D.D.D.D.D.D.D.D.D.D.D.D.D.D.D.D.D.D.D.D.O @ y f f f f f f u f y * - < H 3.,.3 o D.D.  c g.b.N.C.A.k.W X D.D.D.D.D.D.D.D.D.D.D.D.",
"D.D.D.D.D.D.D.D.D.D.D.D.D.D.D.D.D.D.D.D.O @ y f f b S ~ ~ ! g p 2 < O 3 ,.,.3 X D.D.c o.n.Z.V.B.b.g.B X D.D.D.D.D.D.D.D.D.D.D.D.",
"D.D.D.D.D.D.D.D.D.D.D.D.D.D.D.D.D.D.D.D.o @ y f f S [ 1.1.] 2 2 _ ( ; 3 ,.,.0 X   I g.b.N.V.C.b.o.c D.D.D.D.D.D.D.D.D.D.D.D.D.D.",
"D.D.D.D.D.D.D.D.D.D.D.D.D.D.D.D.D.D.D.D.o @ y f f E 1.r.q.:.3 k 1.,.3 2 :.:.1 + g o.n.C.V.N.b.g.c   D.D.D.D.D.D.D.D.D.D.D.D.D.D.",
"D.D.D.D.D.D.D.D.D.D.D.D.D.D.D.D.D.D.D.D.o @ y f f D 9.q.4.] h V 1.,.3 < ] ) < g f.b.B.V.Z.n.o.c D.D.D.D.D.D.D.D.D.D.D.D.D.D.D.D.",
"D.D.D.D.D.D.D.D.D.D.D.D.D.D.D.D.D.D.D.D.o * y f f S [ 1.3.] B E 1.1.r 6 H J R X.m.C.V.B.b.g.c   D.D.D.D.D.D.D.D.D.D.D.D.D.D.D.D.",
"D.D.D.D.D.D.D.D.D.D.D.D.D.D.D.D.D.D.D.D.o @ y f f g c ' 3.2.D E 1.q.7.` 0 R i.x.M.S.Z.b.o.c D.D.D.D.D.D.D.D.D.D.D.D.D.D.D.D.D.D.",
"D.D.D.D.D.D.D.D.D.D.D.D.D.D.D.D.D.D.D.D.o @ y g f d y h ] ] S S ] ,.<.( $ e s.c.v.M.b.g.c   D.D.D.D.D.D.D.D.D.D.D.D.D.D.D.D.D.D.",
"D.D.D.D.D.D.D.D.D.D.D.D.D.D.D.D.D.D.D.D.O + y f f d = , ; 2 b b 3 3 3 ; o 9 a.d.c.z...b D.D.D.D.D.D.D.D.D.D.D.D.D.D.D.D.D.D.D.D.",
"D.D.D.D.D.D.D.D.D.D.D.D.D.D.D.D.D.D.D.D.O + d f z y + * x Q { S = O ; 3 3 r O.a.s.p.t 4 D.D.D.D.D.D.D.D.D.D.D.D.D.D.D.D.D.D.D.D.",
"D.D.D.D.D.D.D.D.D.D.D.D.D.D.D.D.D.D.D.D.O * d f z y + c g.j.e.) ; ; / ,.,.-.r 9 e t u.O.e X D.D.D.D.D.D.D.D.D.D.D.D.D.D.D.D.D.D.",
"D.D.D.D.D.D.D.D.D.D.D.D.D.D.D.D.D.D.D.D.O + > y y = O ! h.l.y.,.C Z 1.t.t.,.3 .   9 O.O.4 X D.D.D.D.D.D.D.D.D.D.D.D.D.D.D.D.D.D.",
"D.D.D.D.D.D.D.D.D.D.D.D.D.D.D.D.D.D.D.D.D.D.@ @ @ + o a 8.w.9.2.,.1.0.r.t.<.3 X D.D.q 4 # X D.D.D.D.D.D.D.D.D.D.D.D.D.D.D.D.D.D.",
"D.D.D.D.D.D.D.D.D.D.D.D.D.D.D.D.D.D.D.D.D.D.o o o o X < J ;.&.;.6.5.5.6.<._ 2 X D.D.X X o + D.D.D.D.D.D.D.D.D.D.D.D.D.D.D.D.D.D.",
"D.D.D.D.D.D.D.D.D.D.D.D.D.D.D.D.D.D.D.D.D.D.D.D.D.D.o $ m L L +.*.=.=.$.8 2 D.D.D.D.D.D.D.D.D.D.D.D.D.D.D.D.D.D.D.D.D.D.D.D.D.D.",
"D.D.D.D.D.D.D.D.D.D.D.D.D.D.D.D.D.D.D.D.D.D.D.D.D.D.o $ n m K P +.#.@.w $ X D.D.D.D.D.D.D.D.D.D.D.D.D.D.D.D.D.D.D.D.D.D.D.D.D.D.",
"D.D.D.D.D.D.D.D.D.D.D.D.D.D.D.D.D.D.D.D.D.D.D.D.D.D.D.D.# & b F F N 1 % D.D.D.D.D.D.D.D.D.D.D.D.D.D.D.D.D.D.D.D.D.D.D.D.D.D.D.D.",
"D.D.D.D.D.D.D.D.D.D.D.D.D.D.D.D.D.D.D.D.D.D.D.D.D.D.D.D.o @ i l l d * o D.D.D.D.D.D.D.D.D.D.D.D.D.D.D.D.D.D.D.D.D.D.D.D.D.D.D.D.",
"D.D.D.D.D.D.D.D.D.D.D.D.D.D.D.D.D.D.D.D.D.D.D.D.D.D.D.D.D.D.@ = * * D.D.D.D.D.D.D.D.D.D.D.D.D.D.D.D.D.D.D.D.D.D.D.D.D.D.D.D.D.D.",
"D.D.D.D.D.D.D.D.D.D.D.D.D.D.D.D.D.D.D.D.D.D.D.D.D.D.D.D.D.D.o o o X D.D.D.D.D.D.D.D.D.D.D.D.D.D.D.D.D.D.D.D.D.D.D.D.D.D.D.D.D.D.",
"D.D.D.D.D.D.D.D.D.D.D.D.D.D.D.D.D.D.D.D.D.D.D.D.D.D.D.D.D.D.D.D.D.D.D.D.D.D.D.D.D.D.D.D.D.D.D.D.D.D.D.D.D.D.D.D.D.D.D.D.D.D.D.D.",
"D.D.D.D.D.D.D.D.D.D.D.D.D.D.D.D.D.D.D.D.D.D.D.D.D.D.D.D.D.D.D.D.D.D.D.D.D.D.D.D.D.D.D.D.D.D.D.D.D.D.D.D.D.D.D.D.D.D.D.D.D.D.D.D.",
"D.D.D.D.D.D.D.D.D.D.D.D.D.D.D.D.D.D.D.D.D.D.D.D.D.D.D.D.D.D.D.D.D.D.D.D.D.D.D.D.D.D.D.D.D.D.D.D.D.D.D.D.D.D.D.D.D.D.D.D.D.D.D.D.",
"D.D.D.D.D.D.D.D.D.D.D.D.D.D.D.D.D.D.D.D.D.D.D.D.D.D.D.D.D.D.D.D.D.D.D.D.D.D.D.D.D.D.D.D.D.D.D.D.D.D.D.D.D.D.D.D.D.D.D.D.D.D.D.D.",
"D.D.D.D.D.D.D.D.D.D.D.D.D.D.D.D.D.D.D.D.D.D.D.D.D.D.D.D.D.D.D.D.D.D.D.D.D.D.D.D.D.D.D.D.D.D.D.D.D.D.D.D.D.D.D.D.D.D.D.D.D.D.D.D.",
"D.D.D.D.D.D.D.D.D.D.D.D.D.D.D.D.D.D.D.D.D.D.D.D.D.D.D.D.D.D.D.D.D.D.D.D.D.D.D.D.D.D.D.D.D.D.D.D.D.D.D.D.D.D.D.D.D.D.D.D.D.D.D.D.",
"D.D.D.D.D.D.D.D.D.D.D.D.D.D.D.D.D.D.D.D.D.D.D.D.D.D.D.D.D.D.D.D.D.D.D.D.D.D.D.D.D.D.D.D.D.D.D.D.D.D.D.D.D.D.D.D.D.D.D.D.D.D.D.D.",
"D.D.D.D.D.D.D.D.D.D.D.D.D.D.D.D.D.D.D.D.D.D.D.D.D.D.D.D.D.D.D.D.D.D.D.D.D.D.D.D.D.D.D.D.D.D.D.D.D.D.D.D.D.D.D.D.D.D.D.D.D.D.D.D.",
"D.D.D.D.D.D.D.D.D.D.D.D.D.D.D.D.D.D.D.D.D.D.D.D.D.D.D.D.D.D.D.D.D.D.D.D.D.D.D.D.D.D.D.D.D.D.D.D.D.D.D.D.D.D.D.D.D.D.D.D.D.D.D.D.",
"D.D.D.D.D.D.D.D.D.D.D.D.D.D.D.D.D.D.D.D.D.D.D.D.D.D.D.D.D.D.D.D.D.D.D.D.D.D.D.D.D.D.D.D.D.D.D.D.D.D.D.D.D.D.D.D.D.D.D.D.D.D.D.D.",
"D.D.D.D.D.D.D.D.D.D.D.D.D.D.D.D.D.D.D.D.D.D.D.D.D.D.D.D.D.D.D.D.D.D.D.D.D.D.D.D.D.D.D.D.D.D.D.D.D.D.D.D.D.D.D.D.D.D.D.D.D.D.D.D.",
"D.D.D.D.D.D.D.D.D.D.D.D.D.D.D.D.D.D.D.D.D.D.D.D.D.D.D.D.D.D.D.D.D.D.D.D.D.D.D.D.D.D.D.D.D.D.D.D.D.D.D.D.D.D.D.D.D.D.D.D.D.D.D.D.",
"D.D.D.D.D.D.D.D.D.D.D.D.D.D.D.D.D.D.D.D.D.D.D.D.D.D.D.D.D.D.D.D.D.D.D.D.D.D.D.D.D.D.D.D.D.D.D.D.D.D.D.D.D.D.D.D.D.D.D.D.D.D.D.D.",
"D.D.D.D.D.D.D.D.D.D.D.D.D.D.D.D.D.D.D.D.D.D.D.D.D.D.D.D.D.D.D.D.D.D.D.D.D.D.D.D.D.D.D.D.D.D.D.D.D.D.D.D.D.D.D.D.D.D.D.D.D.D.D.D.",
"D.D.D.D.D.D.D.D.D.D.D.D.D.D.D.D.D.D.D.D.D.D.D.D.D.D.D.D.D.D.D.D.D.D.D.D.D.D.D.D.D.D.D.D.D.D.D.D.D.D.D.D.D.D.D.D.D.D.D.D.D.D.D.D.",
"D.D.D.D.D.D.D.D.D.D.D.D.D.D.D.D.D.D.D.D.D.D.D.D.D.D.D.D.D.D.D.D.D.D.D.D.D.D.D.D.D.D.D.D.D.D.D.D.D.D.D.D.D.D.D.D.D.D.D.D.D.D.D.D."
};
