/* XPM */
static char *result[] = {
/* columns rows colors chars-per-pixel */
"64 64 209 2 ",
"   c #070B22",
".  c #0D1127",
"X  c #0D1128",
"o  c #0E1228",
"O  c #0F1329",
"+  c #0C132A",
"@  c #0D152B",
"#  c #0F152B",
"$  c #0E152C",
"%  c #10142A",
"&  c #11142A",
"*  c #12152B",
"=  c #10152C",
"-  c #10162C",
";  c #12162C",
":  c #13172C",
">  c #12172D",
",  c #13172D",
"<  c #12182E",
"1  c #13192E",
"2  c #14182E",
"3  c #151A30",
"4  c #141B31",
"5  c #161B32",
"6  c #151C31",
"7  c #151C32",
"8  c #141C33",
"9  c #171C32",
"0  c #171C33",
"q  c #161D34",
"w  c #171D34",
"e  c #1D1C30",
"r  c #181D34",
"t  c #191D34",
"y  c #191E34",
"u  c #191E35",
"i  c #191F35",
"p  c #191E36",
"a  c #191F36",
"s  c #1A1F36",
"d  c #2B1E3A",
"f  c #391C31",
"g  c #182038",
"h  c #1A2038",
"j  c #1B2138",
"k  c #1A223A",
"l  c #1C2038",
"z  c #1C2139",
"x  c #1F2338",
"c  c #1D213A",
"v  c #1E243B",
"b  c #1C253C",
"n  c #1D273F",
"m  c #1E273E",
"M  c #20273E",
"N  c #21283F",
"B  c #332636",
"V  c #322637",
"C  c #3E233D",
"Z  c #392A39",
"A  c #3A2A39",
"S  c #3F2C3B",
"D  c #3F2D3B",
"F  c #392E3E",
"G  c #392E3F",
"H  c #1F2840",
"J  c #2F2240",
"K  c #202941",
"L  c #222940",
"P  c #202A41",
"I  c #242B43",
"U  c #242C44",
"Y  c #252C44",
"T  c #242D44",
"R  c #252D44",
"E  c #242D45",
"W  c #252D45",
"Q  c #262D45",
"!  c #262E45",
"~  c #242E46",
"^  c #252F47",
"/  c #262F47",
"(  c #2C2E47",
")  c #292E49",
"_  c #282F4B",
"`  c #2B2F4B",
"'  c #392E4B",
"]  c #273047",
"[  c #283047",
"{  c #2B3248",
"}  c #29324A",
"|  c #28324B",
" . c #2B334B",
".. c #2B344B",
"X. c #28334C",
"o. c #29344C",
"O. c #29354C",
"+. c #28354D",
"@. c #29354D",
"#. c #2A344C",
"$. c #2B344C",
"%. c #2A354C",
"&. c #2A344D",
"*. c #2A354D",
"=. c #2B354D",
"-. c #2B364E",
";. c #2B374F",
":. c #2C344C",
">. c #2C354D",
",. c #2C364E",
"<. c #2D364E",
"1. c #303248",
"2. c #303348",
"3. c #373B4E",
"4. c #2D3750",
"5. c #2E3850",
"6. c #2F3B54",
"7. c #303653",
"8. c #313653",
"9. c #383756",
"0. c #303C55",
"q. c #313E57",
"w. c #323E57",
"e. c #323F57",
"r. c #3A3D51",
"t. c #3A3E51",
"y. c #3B3E52",
"u. c #3B3F52",
"i. c #323F58",
"p. c #432F4D",
"a. c #532048",
"s. c #57244D",
"d. c #443240",
"f. c #4A324B",
"g. c #4D344B",
"h. c #463D4F",
"j. c #4E3E4D",
"k. c #473152",
"l. c #473E50",
"z. c #45385A",
"x. c #73254D",
"c. c #74264F",
"v. c #3D4155",
"b. c #3E4154",
"n. c #3E4255",
"m. c #3F4255",
"M. c #364963",
"N. c #394A64",
"B. c #384B66",
"V. c #394C67",
"C. c #3A4E68",
"Z. c #3F516A",
"A. c #3F536E",
"S. c #3F546F",
"D. c #404356",
"F. c #404456",
"G. c #44485A",
"H. c #45485B",
"J. c #45495B",
"K. c #424A5E",
"L. c #534353",
"P. c #75474B",
"I. c #7B4A4D",
"U. c #7C4A4D",
"Y. c #7D4F54",
"T. c #434B60",
"R. c #425873",
"E. c #425874",
"W. c #6A6C7C",
"Q. c #6C6F7E",
"!. c #8A293E",
"~. c #832844",
"^. c #882D49",
"/. c #933147",
"(. c #9A5856",
"). c #9A5957",
"_. c #9B5957",
"`. c #9E5B59",
"'. c #A15F5D",
"]. c #A3615F",
"[. c #6F7181",
"{. c #858795",
"}. c #8A8C9A",
"|. c #8B8D9B",
" X c #8C8E9C",
".X c #8D919F",
"XX c #9092A0",
"oX c #B0B2BD",
"OX c #B1B2BD",
"+X c #B1B3BE",
"@X c #BBBCC7",
"#X c #BBBDC7",
"$X c #BCBDC7",
"%X c #BCBDC8",
"&X c #BCBEC8",
"*X c #BFC0CA",
"=X c #BFC1CB",
"-X c #C1C3CC",
";X c #C2C3CD",
":X c #D6D7E0",
">X c #D7D8E1",
",X c #D9DAE3",
"<X c #E5E6EE",
"1X c #E6E6EE",
"2X c #E7E8EF",
"3X c #E7E8F0",
"4X c #EBECF3",
"5X c #EDEEF5",
"6X c None",
/* pixels */
"6X6X6X6X6X6X6X6X6X6X6X6X6X6X6X6X6X6X6X6X6X6X6X6X6X6X6X6X6X6X6X6X6X6X6X6X6X6X6X6X6X6X6X6X6X6X6X6X6X6X6X6X6X6X6X6X6X6X6X6X6X6X6X6X",
"6X6X6X6X6X6X6X6X6X6X6X6X6X6X6X6X6X6X6X6X6X6X6X6X6X6X6X6X6X6X6X6X6X6X6X6X6X6X6X6X6X6X6X6X6X6X6X6X6X6X6X6X6X6X6X6X6X6X6X6X6X6X6X6X",
"6X6X6X6X6X6X6X6X6X6X6X6X6X6X6X6X6X6X6X6X6X6X6X6X6X6X6X6X6X6X6X6X6X6X6X6X6X6X6X6X6X6X6X6X6X6X6X6X6X6X6X6X6X6X6X6X6X6X6X6X6X6X6X6X",
"6X6X6X6X6X6X6X6X6X6X6X6X6X6X6X6X6X6X6X6X6X6X6X6X6X6X6X6X6X6X6X6X6X6X6X6X6X6X6X6X6X6X6X6X6X6X6X6X6X6X6X6X6X6X6X6X6X6X6X6X6X6X6X6X",
"6X6X6X6X6X6X6X6X6X6X6X6X6X6X6X6X6X6X6X6X6X6X6X6X6X6X6X6X6X6X6X6X6X6X6X6X6X6X6X6X6X6X6X6X6X6X6X6X6X6X6X6X6X6X6X6X6X6X6X6X6X6X6X6X",
"6X6X6X6X6X6X6X6X6X6X6X6X6X6X6X6X6X6X6X6X6X6X6X6X6X6X6X6X6X6X6X6X6X6X6X6X6X6X6X6X6X6X6X6X6X6X6X6X6X6X6X6X6X6X6X6X6X6X6X6X6X6X6X6X",
"6X6X6X6X6X6X6X6X6X6X6X6X6X6X6X6X6X6X6X6X6X6X6X6X6X6X6X6X6X6X6X6X6X6X6X6X6X6X6X6X6X6X6X6X6X6X6X6X6X6X6X6X6X6X6X6X6X6X6X6X6X6X6X6X",
"6X6X6X6X6X6X6X6X6X6X6X6X6X6X6X6X6X6X6X6X6X6X6X6X6X6X6X6X6X6X6X6X6X6X6X6X6X6X6X6X6X6X6X6X6X6X6X6X6X6X6X6X6X6X6X6X6X6X6X6X6X6X6X6X",
"6X6X6X6X6X6X6X6X6X6X6X6X6X6X6X6X6X6X6X6X6X6X6X6X6X6X6X6X6X6X6X6X6X6X6X6X6X6X6X6X6X6X6X6X6X6X6X6X6X6X6X6X6X6X6X6X6X6X6X6X6X6X6X6X",
"6X6X6X6X6X6X6X6X6X6X6X6X6X6X6X6X6X6X6X6X6X6X6X6X6X6X6X6X6X6X6X6X6X6X6X6X6X6X6X6X6X6X6X6X6X6X6X6X6X6X6X6X6X6X6X6X6X6X6X6X6X6X6X6X",
"6X6X6X6X6X6X6X6X6X6X6X6X6X6X6X6X6X6X6X6X6X6X6X6X6X6X6X6X6X6X6X6X6X6X6X6X6X6X6X6X6X6XX X X O ; 2 6X6X6X6X6X6X6X6X6X6X6X6X6X6X6X6X",
"6X6X6X6X6X6X6X6X6X6X6X6X6X6X6X6X6X6X6X6X6X6X6X6X6X6X6X6X6X6X6X6X6X6X6X6X6X6X6X6X6X6Xm.G.H.3.x ; 6X6X6X6X6X6X6X6X6X6X6X6X6X6X6X6X",
"6X6X6X6X6X6X6X6X6X6X6X6X6X6X6X6X6X6X6X6X6X6X6X6X6X6X6X6X6X6X6X6X6X6X6X6X6X6X6X6X  y.|.oXOX{.3.O 6X6X6X6X6X6X6X6X6X6X6X6X6X6X6X6X",
"6X6X6X6X6X6X6X6X6X6X6X6X6X6X6X6X6X6X6X6X6X6X6X6X6X6X6X6X6X6X6X6X6X6X6X6X6X6X6X6Xt.W.#X4X5X+XJ.X 6X6X6X6X6X6X6X6X6X6X6X6X6X6X6X6X",
"6X6X6X6X6X6X6X6X6X6X6X6X6X6X6X6X6X6X6X6X6X6X6X6X6X6X6X6X6X6X6X6X6X6X6X6X6X6X  r.}.#X:X2X4X+XJ.X 6X6X6X6X6X6X6X6X6X6X6X6X6X6X6X6X",
"6X6X6X6X6X6X6X6X6X6X6X6X6X6X6X6X6X6X6X6X6X6X6X6X6X6X6X6X6X6X6X6X6X6X6X6X6X6Xb.Q.&X3X1X:X@X|.n.X 6X6X6X6X6X6X6X6X6X6X6X6X6X6X6X6X",
"6X6X6X6X6X6X6X6X6X6X6X6X6X6X6X6X6X6X6X6X6X6X6X6X6X6X, , , , , , , , , % o F.XX*X>X<X3X$XW.u.6X6X6X6X6X6X6X6X6X6X6X6X6X6X6X6X6X6X",
"6X6X6X6X6X6X6X6X6X6X6X6X6X6X6X6X6X6X6X6X6X6X6X6X6X6Xr u u u u u u u u 0 5 v. X-X,X>X%X}.r.  6X6X6X6X6X6X6X6X6X6X6X6X6X6X6X6X6X6X",
"6X6X6X6X6X6X6X6X6X6X6X6X6X6X6X6X6X6X6X6X6X6X6X6X& 9 N ! Q W W W W W W R R { u.[.;X=XQ.t.6X6X6X6X6X6X6X6X6X6X6X6X6X6X6X6X6X6X6X6X",
"6X6X6X6X6X6X6X6X6X6X6X6X6X6X6X6X6X6X6X6X6X6X6X6XK E } >.>.>.>.>.>.>.>.>.>./ n K..XXXb.  6X6X6X6X6X6X6X6X6X6X6X6X6X6X6X6X6X6X6X6X",
"6X6X6X6X6X6X6X6X6X6X6X6X6X6X6X6X6X6X6X6X6X6X* P M.C.0. .$.>.>.>.>.>.>.$. .6.B.Z.T.D.6X6X6X6X6X6X6X6X6X6X6X6X6X6X6X6X6X6X6X6X6X6X",
"6X6X6X6X6X6X6X6X6X6X6X6X6X6X6X6X6X6X6X6X6X6X* H V.E.N.q.4.$.$.>.>.$.$.4.q.N.E.B.b . 6X6X6X6X6X6X6X6X6X6X6X6X6X6X6X6X6X6X6X6X6X6X",
"6X6X6X6X6X6X6X6X6X6X6X6X6X6X6X6X6X6X6X6X6X6X; j ;.N.R.A.e...$.>.>.$...e.A.R.N.-.a O 6X6X6X6X6X6X6X6X6X6X6X6X6X6X6X6X6X6X6X6X6X6X",
"6X6X6X6X6X6X6X6X6X6X6X6X6X6X6X6X6X6X6X6X6X6X, t I w.S.S.i...$.>.>.$...i.S.S.w.I t , 6X6X6X6X6X6X6X6X6X6X6X6X6X6X6X6X6X6X6X6X6X6X",
"6X6X6X6X6X6X6X6X6X6X6X6X6X6X6X6X6X6X6X6X6X6X, y Y 5.i.i.5.$.$.>.>.$.$.5.i.i.5.Y y , 6X6X6X6X6X6X6X6X6X6X6X6X6X6X6X6X6X6X6X6X6X6X",
"6X6X6X6X6X6X6X6X6X6X6X6X6X6X6X6X6X6X6X6X6X6X= w W >.$...$.>.>.>.>.>.>.$...$.>.W w = 6X6X6X6X6X6X6X6X6X6X6X6X6X6X6X6X6X6X6X6X6X6X",
"6X6X6X6X6X6X6X6X6X6X6X6X6X6X6X6X6X6X6X6X6X6X# q T >.:.$.$.>.>.>.>.>.>.$.$.:.>.T q # 6X6X6X6X6X6X6X6X6X6X6X6X6X6X6X6X6X6X6X6X6X6X",
"6X6X6X6X6X6X6X6X6X6X6X6X6X6X6X6X6X6X6X6X6X6XA F 1.=.=.>.>.>.>.>.>.>.>.>.>.=.=.1.F A 6X6X6X6X6X6X6X6X6X6X6X6X6X6X6X6X6X6X6X6X6X6X",
"6X6X6X6X6X6X6X6X6X6X6X6X6X6X6X6X6X6X6X6X$ A U.Y.h.o.#.>.>.>.>.>.>.>.>.>.>.#.o.h.Y.U.A $ 6X6X6X6X6X6X6X6X6X6X6X6X6X6X6X6X6X6X6X6X",
"6X6X6X6X6X6X6X6X6X6X6X6X6X6X6X6X6X6X6X6X$ S (.].L.X.o.>.>.>.>.>.>.>.>.>.>.o.X.L.].(.S $ 6X6X6X6X6X6X6X6X6X6X6X6X6X6X6X6X6X6X6X6X",
"6X6X6X6X6X6X6X6X6X6X6X6X6X6X6X6X6X6X6X6X$ S (.].L.X.o.>.>.>.>.>.>.>.>.>.>.o.X.L.].(.S $ 6X6X6X6X6X6X6X6X6X6X6X6X6X6X6X6X6X6X6X6X",
"6X6X6X6X6X6X6X6X6X6X6X6X6X6X6X6X6X6X6X6X$ A U.Y.h.o.#.>.>.>.>.>.>.>.>.>.>.#.o.h.Y.U.A $ 6X6X6X6X6X6X6X6X6X6X6X6X6X6X6X6X6X6X6X6X",
"6X6X6X6X6X6X6X6X6X6X6X6X6X6X6X6X6X6X6X6X6X6XA F 1.=.=.>.>.>.>.>.>.>.>.>.>.=.=.1.F A 6X6X6X6X6X6X6X6X6X6X6X6X6X6X6X6X6X6X6X6X6X6X",
"6X6X6X6X6X6X6X6X6X6X6X6X6X6X6X6X6X6X6X6X6X6X# q T >.>.>.>.>.>.>.>.>.>.>.>.>.>.U 8 + 6X6X6X6X6X6X6X6X6X6X6X6X6X6X6X6X6X6X6X6X6X6X",
"6X6X6X6X6X6X6X6X6X6X6X6X6X6X6X6X6X6X6X6X6X6X= w R >.>.>.>.>.>.>.>.>.>.>.>.>.>.U 8 + 6X6X6X6X6X6X6X6X6X6X6X6X6X6X6X6X6X6X6X6X6X6X",
"6X6X6X6X6X6X6X6X6X6X6X6X6X6X6X6X6X6X6X6X6X6X, u ! ,.>.$.$.>.>.>.>.>.>.$.$.=.=.2.G A 6X6X6X6X6X6X6X6X6X6X6X6X6X6X6X6X6X6X6X6X6X6X",
"6X6X6X6X6X6X6X6X6X6X6X6X6X6X6X6X6X6X6X6X6X6X, i ! <.>.$.$.>.>.>.>.>.>.$.$.&.&.l.Y.U.A $ 6X6X6X6X6X6X6X6X6X6X6X6X6X6X6X6X6X6X6X6X",
"6X6X6X6X6X6X6X6X6X6X6X6X6X6X6X6X6X6X6X6X6X6X, y L [  .>.=.%.*.*.*.*.%.=.>.| ~ j.'.).S $ 6X6X6X6X6X6X6X6X6X6X6X6X6X6X6X6X6X6X6X6X",
"6X6X6X6X6X6X6X6X6X6X6X6X6X6X6X6X6X6X6X6X6X6X6X6Xr v ] ,.=.O.@.+.+.@.O.=.,.^ k d.`._.D $ 6X6X6X6X6X6X6X6X6X6X6X6X6X6X6X6X6X6X6X6X",
"6X6X6X6X6X6X6X6X6X6X6X6X6X6X6X6X6X6X6X6X6X6X6X6X; 9 M ( ' p.f.g.g.f.p.' ( m 4 B P.I.A $ 6X6X6X6X6X6X6X6X6X6X6X6X6X6X6X6X6X6X6X6X",
"6X6X6X6X6X6X6X6X6X6X6X6X6X6X6X6X6X6X6X6X6X6X6X6X, 1 7 d a.x.^././.^.x.a.d 6 < e V Z 6X6X6X6X6X6X6X6X6X6X6X6X6X6X6X6X6X6X6X6X6X6X",
"6X6X6X6X6X6X6X6X6X6X6X6X6X6X6X6X6X6X6X6X6X6X6X6X, 3 p J s.c.~.!.!.~.c.s.J p 3 > - $ 6X6X6X6X6X6X6X6X6X6X6X6X6X6X6X6X6X6X6X6X6X6X",
"6X6X6X6X6X6X6X6X6X6X6X6X6X6X6X6X6X6X6X6X6X6X6X6X: s ) 9.z.k.C f f C k.z.9.) s ; 6X6X6X6X6X6X6X6X6X6X6X6X6X6X6X6X6X6X6X6X6X6X6X6X",
"6X6X6X6X6X6X6X6X6X6X6X6X6X6X6X6X6X6X6X6X6X6X6X6X; l ` 8.7._ g @ @ g _ 7.8.` l ; 6X6X6X6X6X6X6X6X6X6X6X6X6X6X6X6X6X6X6X6X6X6X6X6X",
"6X6X6X6X6X6X6X6X6X6X6X6X6X6X6X6X6X6X6X6X6X6X6X6X6X6Xz c z h 6X6X6X6Xh z c z 6X6X6X6X6X6X6X6X6X6X6X6X6X6X6X6X6X6X6X6X6X6X6X6X6X6X",
"6X6X6X6X6X6X6X6X6X6X6X6X6X6X6X6X6X6X6X6X6X6X6X6X6X6X; ; ; ; 6X6X6X6X; ; ; ; 6X6X6X6X6X6X6X6X6X6X6X6X6X6X6X6X6X6X6X6X6X6X6X6X6X6X",
"6X6X6X6X6X6X6X6X6X6X6X6X6X6X6X6X6X6X6X6X6X6X6X6X6X6X6X6X6X6X6X6X6X6X6X6X6X6X6X6X6X6X6X6X6X6X6X6X6X6X6X6X6X6X6X6X6X6X6X6X6X6X6X6X",
"6X6X6X6X6X6X6X6X6X6X6X6X6X6X6X6X6X6X6X6X6X6X6X6X6X6X6X6X6X6X6X6X6X6X6X6X6X6X6X6X6X6X6X6X6X6X6X6X6X6X6X6X6X6X6X6X6X6X6X6X6X6X6X6X",
"6X6X6X6X6X6X6X6X6X6X6X6X6X6X6X6X6X6X6X6X6X6X6X6X6X6X6X6X6X6X6X6X6X6X6X6X6X6X6X6X6X6X6X6X6X6X6X6X6X6X6X6X6X6X6X6X6X6X6X6X6X6X6X6X",
"6X6X6X6X6X6X6X6X6X6X6X6X6X6X6X6X6X6X6X6X6X6X6X6X6X6X6X6X6X6X6X6X6X6X6X6X6X6X6X6X6X6X6X6X6X6X6X6X6X6X6X6X6X6X6X6X6X6X6X6X6X6X6X6X",
"6X6X6X6X6X6X6X6X6X6X6X6X6X6X6X6X6X6X6X6X6X6X6X6X6X6X6X6X6X6X6X6X6X6X6X6X6X6X6X6X6X6X6X6X6X6X6X6X6X6X6X6X6X6X6X6X6X6X6X6X6X6X6X6X",
"6X6X6X6X6X6X6X6X6X6X6X6X6X6X6X6X6X6X6X6X6X6X6X6X6X6X6X6X6X6X6X6X6X6X6X6X6X6X6X6X6X6X6X6X6X6X6X6X6X6X6X6X6X6X6X6X6X6X6X6X6X6X6X6X",
"6X6X6X6X6X6X6X6X6X6X6X6X6X6X6X6X6X6X6X6X6X6X6X6X6X6X6X6X6X6X6X6X6X6X6X6X6X6X6X6X6X6X6X6X6X6X6X6X6X6X6X6X6X6X6X6X6X6X6X6X6X6X6X6X",
"6X6X6X6X6X6X6X6X6X6X6X6X6X6X6X6X6X6X6X6X6X6X6X6X6X6X6X6X6X6X6X6X6X6X6X6X6X6X6X6X6X6X6X6X6X6X6X6X6X6X6X6X6X6X6X6X6X6X6X6X6X6X6X6X",
"6X6X6X6X6X6X6X6X6X6X6X6X6X6X6X6X6X6X6X6X6X6X6X6X6X6X6X6X6X6X6X6X6X6X6X6X6X6X6X6X6X6X6X6X6X6X6X6X6X6X6X6X6X6X6X6X6X6X6X6X6X6X6X6X",
"6X6X6X6X6X6X6X6X6X6X6X6X6X6X6X6X6X6X6X6X6X6X6X6X6X6X6X6X6X6X6X6X6X6X6X6X6X6X6X6X6X6X6X6X6X6X6X6X6X6X6X6X6X6X6X6X6X6X6X6X6X6X6X6X",
"6X6X6X6X6X6X6X6X6X6X6X6X6X6X6X6X6X6X6X6X6X6X6X6X6X6X6X6X6X6X6X6X6X6X6X6X6X6X6X6X6X6X6X6X6X6X6X6X6X6X6X6X6X6X6X6X6X6X6X6X6X6X6X6X",
"6X6X6X6X6X6X6X6X6X6X6X6X6X6X6X6X6X6X6X6X6X6X6X6X6X6X6X6X6X6X6X6X6X6X6X6X6X6X6X6X6X6X6X6X6X6X6X6X6X6X6X6X6X6X6X6X6X6X6X6X6X6X6X6X",
"6X6X6X6X6X6X6X6X6X6X6X6X6X6X6X6X6X6X6X6X6X6X6X6X6X6X6X6X6X6X6X6X6X6X6X6X6X6X6X6X6X6X6X6X6X6X6X6X6X6X6X6X6X6X6X6X6X6X6X6X6X6X6X6X",
"6X6X6X6X6X6X6X6X6X6X6X6X6X6X6X6X6X6X6X6X6X6X6X6X6X6X6X6X6X6X6X6X6X6X6X6X6X6X6X6X6X6X6X6X6X6X6X6X6X6X6X6X6X6X6X6X6X6X6X6X6X6X6X6X",
"6X6X6X6X6X6X6X6X6X6X6X6X6X6X6X6X6X6X6X6X6X6X6X6X6X6X6X6X6X6X6X6X6X6X6X6X6X6X6X6X6X6X6X6X6X6X6X6X6X6X6X6X6X6X6X6X6X6X6X6X6X6X6X6X",
"6X6X6X6X6X6X6X6X6X6X6X6X6X6X6X6X6X6X6X6X6X6X6X6X6X6X6X6X6X6X6X6X6X6X6X6X6X6X6X6X6X6X6X6X6X6X6X6X6X6X6X6X6X6X6X6X6X6X6X6X6X6X6X6X",
"6X6X6X6X6X6X6X6X6X6X6X6X6X6X6X6X6X6X6X6X6X6X6X6X6X6X6X6X6X6X6X6X6X6X6X6X6X6X6X6X6X6X6X6X6X6X6X6X6X6X6X6X6X6X6X6X6X6X6X6X6X6X6X6X",
"6X6X6X6X6X6X6X6X6X6X6X6X6X6X6X6X6X6X6X6X6X6X6X6X6X6X6X6X6X6X6X6X6X6X6X6X6X6X6X6X6X6X6X6X6X6X6X6X6X6X6X6X6X6X6X6X6X6X6X6X6X6X6X6X"
};
