/* XPM */
static char *result[] = {
/* columns rows colors chars-per-pixel */
"64 64 254 2 ",
"   c #080E27",
".  c #0A0F27",
"X  c #0B132A",
"o  c #0A122B",
"O  c #0B122B",
"+  c #0D1128",
"@  c #0C142B",
"#  c #0D152B",
"$  c #0E152B",
"%  c #0F152B",
"&  c #0A122C",
"*  c #0C122D",
"=  c #0C132D",
"-  c #0E142C",
";  c #0E152C",
":  c #0F152C",
">  c #0E142D",
",  c #0F152D",
"<  c #0F162C",
"1  c #11142A",
"2  c #11152B",
"3  c #12152B",
"4  c #10152C",
"5  c #11162C",
"6  c #11162D",
"7  c #12162C",
"8  c #13172C",
"9  c #12162D",
"0  c #13172D",
"q  c #14182E",
"w  c #14192F",
"e  c #141930",
"r  c #141A30",
"t  c #151A30",
"y  c #141C33",
"u  c #171C32",
"i  c #161D34",
"p  c #171D34",
"a  c #171E34",
"s  c #1A1A30",
"d  c #1E1C30",
"f  c #181D34",
"g  c #191D34",
"h  c #191E34",
"j  c #181E35",
"k  c #191E35",
"l  c #191F37",
"z  c #1A1E36",
"x  c #1A1F36",
"c  c #381B30",
"v  c #1E202E",
"b  c #1F202E",
"n  c #182038",
"m  c #1A2038",
"M  c #1B2138",
"N  c #1B223A",
"B  c #1C2038",
"V  c #1C2139",
"C  c #1D213A",
"Z  c #1D233A",
"A  c #202035",
"S  c #282034",
"D  c #292034",
"F  c #2E213F",
"G  c #2F223F",
"H  c #21283F",
"J  c #332637",
"K  c #332737",
"L  c #342537",
"P  c #322738",
"I  c #342538",
"U  c #342638",
"Y  c #3E233C",
"T  c #372C3C",
"R  c #372C3D",
"E  c #392839",
"W  c #382939",
"Q  c #392939",
"!  c #3A2938",
"~  c #392A39",
"^  c #3A2A39",
"/  c #3C2A3A",
"(  c #3C2B3A",
")  c #3D2C3A",
"_  c #3F2C3B",
"`  c #392E3E",
"'  c #392E3F",
"]  c #3A2F3F",
"[  c #3A3330",
"{  c #3B3330",
"}  c #3B3430",
"|  c #43382D",
" . c #443930",
".. c #6C523F",
"X. c #1F2840",
"o. c #202941",
"O. c #202A41",
"+. c #242B43",
"@. c #252C44",
"#. c #242D44",
"$. c #252D44",
"%. c #242D45",
"&. c #252D45",
"*. c #262D45",
"=. c #262E45",
"-. c #242E46",
";. c #252E46",
":. c #262F46",
">. c #272F47",
",. c #2B2D42",
"<. c #272D48",
"1. c #262E48",
"2. c #282D48",
"3. c #292E49",
"4. c #282F4B",
"5. c #2B2F4B",
"6. c #293048",
"7. c #28324A",
"8. c #29324A",
"9. c #2A334B",
"0. c #2B334B",
"q. c #2B344B",
"w. c #28334C",
"e. c #2C334F",
"r. c #29344C",
"t. c #29344D",
"y. c #2A344C",
"u. c #2B344C",
"i. c #2B354C",
"p. c #2A344D",
"a. c #2B354D",
"s. c #2B374F",
"d. c #2C344C",
"f. c #2C354D",
"g. c #2E344F",
"h. c #2C364E",
"j. c #2D364E",
"k. c #303248",
"l. c #303348",
"z. c #303349",
"x. c #2D3750",
"c. c #2E3850",
"v. c #2F3851",
"b. c #2F3A53",
"n. c #303653",
"m. c #313653",
"M. c #373554",
"N. c #383756",
"B. c #303852",
"V. c #303C55",
"C. c #313E57",
"Z. c #323E57",
"A. c #323F57",
"S. c #313F59",
"D. c #323F58",
"F. c #353D5A",
"G. c #373D5B",
"H. c #56234C",
"J. c #57244D",
"K. c #403749",
"L. c #463D4F",
"P. c #473D4F",
"I. c #463E4F",
"U. c #573444",
"Y. c #5E3A44",
"T. c #473051",
"R. c #433558",
"E. c #45375A",
"W. c #74254E",
"Q. c #772A53",
"!. c #513F61",
"~. c #3F4356",
"^. c #32425B",
"/. c #3F445A",
"(. c #384561",
"). c #364963",
"_. c #394A64",
"`. c #394C67",
"'. c #3A4E68",
"]. c #3F536E",
"[. c #3F546F",
"{. c #3E5571",
"}. c #404356",
"|. c #414559",
" X c #434759",
".X c #44475A",
"XX c #45485B",
"oX c #534353",
"OX c #76474B",
"+X c #77464C",
"@X c #7B464F",
"#X c #7C464F",
"$X c #77494D",
"%X c #78484C",
"&X c #79494D",
"*X c #7C4A4D",
"=X c #7A4C51",
"-X c #7D4F54",
";X c #7E4F54",
":X c #726858",
">X c #425873",
",X c #425874",
"<X c #425E7A",
"1X c #5F5270",
"2X c #675D78",
"3X c #89273C",
"4X c #907037",
"5X c #927137",
"6X c #9B7737",
"7X c #822743",
"8X c #8F3755",
"9X c #9B3F55",
"0X c #8D5153",
"qX c #8F5254",
"wX c #945355",
"eX c #975756",
"rX c #985656",
"tX c #985856",
"yX c #9A5856",
"uX c #A25A59",
"iX c #A25B59",
"pX c #AE5E5F",
"aX c #A3615F",
"sX c #AF785B",
"dX c #B1795C",
"fX c #B86560",
"gX c #C06A63",
"hX c #C76E65",
"jX c #CEA24B",
"kX c #CFA44B",
"lX c #D1AB53",
"zX c #D38D6A",
"xX c #D58E6B",
"cX c #E6C16A",
"vX c #E8C26A",
"bX c #F1D17B",
"nX c #F3D17B",
"mX c #8C8F9C",
"MX c #ABADB9",
"NX c #A9ACBA",
"BX c #AAACBA",
"VX c #ADAFBA",
"CX c #AEB0BB",
"ZX c #B1B3BE",
"AX c #C1BCA8",
"SX c #EDD984",
"DX c #FAF19F",
"FX c #EDEBD6",
"GX c #E6E7EF",
"HX c #E6E7F0",
"JX c #E6E7F1",
"KX c #E9EAF1",
"LX c #EBECF3",
"PX c None",
/* pixels */
"PXPXPXPXPXPXPXPXPXPXPXPXPXPXPXPXPXPXPXPXPXPXPXPXPXPXPXPXPXPXPXPXPXPXPXPXPXPXPXPXPXPXPXPXPXPXPXPXPXPXPXPXPXPXPXPXPXPXPXPXPXPXPXPX",
"PXPXPXPXPXPXPXPXPXPXPXPXPXPXPXPXPXPXPXPXPXPXPXPXPXPXPXPXPXPXPXPXPXPXPXPXPXPXPXPXPXPXPXPXPXPXPXPXPXPXPXPXPXPXPXPXPXPXPXPXPXPXPXPX",
"PXPXPXPXPXPXPXPXPXPXPXPXPXPXPXPXPXPXPXPXPXPXPXPXPXPXPXPXPXPXPXPXPXPXPXPXPXPXPXPXPXPXPXPXPXPXPXPXPXPXPXPXPXPXPXPXPXPXPXPXPXPXPXPX",
"PXPXPXPXPXPXPXPXPXPXPXPXPXPXPXPXPXPXPXPXPXPXPXPXPXPXPXPXPXPXPXPXPXPXPXPXPXPXPXPXPXPXPXPXPXPXPXPXPXPXPXPXPXPXPXPXPXPXPXPXPXPXPXPX",
"PXPXPXPXPXPXPXPXPXPXPXPXPXPXPXPXPXPXPXPXPXPXPXPXPXPXPXPXPXPXPXPXPXPXPXPXPXPXPXPXPXPXPXPXPXPXPXPXPXPXPXPXPXPXPXPXPXPXPXPXPXPXPXPX",
"PXPXPXPXPXPXPXPXPXPXPXPXPXPXPXPXPXPXPXPXPXPXPXPXPXPXPXPXPXPXPXPXPXPXPXPXPXPXPXPXPXPXPXPXPXPXPXPXPXPXPXPXPXPXPXPXPXPXPXPXPXPXPXPX",
"PXPXPXPXPXPXPXPXPXPXPXPXPXPXPXPXPXPXPXPXPXPXPXPXPXPXPXPXPXPXPXPXPXPXPXPXPXPXPXPXPXPXPXPXPXPXPXPXPXPXPXPXPXPXPXPXPXPXPXPXPXPXPXPX",
"PXPXPXPXPXPXPXPXPXPXPXPXPXPXPXPXPXPXPXPXPXPXPXPXPXPXPXPXPXPXPXPXPXPXPXPXPXPXPXPXPXPXPXPXPXPXPXPXPXPXPXPXPXPXPXPXPXPXPXPXPXPXPXPX",
"PXPXPXPXPXPXPXPXPXPXPXPXPXPXPXPXPXPXPXPXPXPXPXPXPXPXPXPXPXPXPXPXPXPXPXPXPXPXPXPXPXPXPXPXPXPXPXPXPXPXPXPXPXPXPXPXPXPXPXPXPXPXPXPX",
"PXPXPXPXPXPXPXPXPXPXPXPXPXPXPXPXPXPXPXPXPXPXPXPXPXPXPXPXPXPXPXPXPXPXPXPXPXPXPXPXPXPXPXPXPXPXPXPXPXPXPXPXPXPXPXPXPXPXPXPXPXPXPXPX",
"PXPXPXPXPXPXPXPXPXPXPXPXPXPXPXPXPXPXPXPXPXPXPXPXPXPXPXPXPXPXPXPXPXPXPXPXPXPXPXPXPXPXPXPXPXPXPXPXPXPXPXPXPXPXPXPXPXPXPXPXPXPXPXPX",
"PXPXPXPXPXPXPXPXPXPXPXPXPXPXPXPXPXPXPXPXPXPXPXPXPXPXPXPXPXPXPXPXPXPXPXPXPXPXPXPXPXPXPXPXPXPXPXPXPXPXPXPXPXPXPXPXPXPXPXPXPXPXPXPX",
"PXPXPXPXPXPXPXPXPXPXPXPXPXPXPXPXPXPXPXPXPXPXPXPXPXPXPXPXPXPXPXPXPXPXPXPXPXPXPXPXPXPXPXPXPXPXPXPXPXPXPXPXPXPXPXPXPXPXPXPXPXPXPXPX",
"PXPXPXPXPXPXPXPXPXPXPXPXPXPXPXPXPXPXPXPXPXPXPXPXPXPXPXPXPXPXPXPXPXPXPXPXPXPXPXPXPXPXPXPXPXPXPXPXPXPXPXPXPXPXPXPXPXPXPXPXPXPXPXPX",
"PXPXPXPXPXPXPXPXPXPXPXPXPXPXPXPXPXPXPXPXPXPXPXPXPXPX0 0 0 0 0 0 0 0 0 0 0 0 PXPXPXPXPXPXPXPXPXPXPXPXPXPXPXPXPXPXPXPXPXPXPXPXPXPX",
"PXPXPXPXPXPXPXPXPXPXPXPXPXPXPXPXPXPXPXPXPXPXPXPXPXPXf k k k k k k k k k k f PXPXPXPXPXPXPXPXPXPXPXPXPXPXPXPXPXPXPXPXPXPXPXPXPXPX",
"PXPXPXPXPXPXPXPXPXPXPXPXPXPXPXPXPXPXPXPXPXPXPXPX1 u H =.*.&.&.&.&.&.&.*.=.H u 1 PXPXPXPXPXPXPXPXPXPXPXPXPXPXPXPXPXPXPXPXPXPXPXPX",
"PXPXPXPXPXPXPXPXPXPXPXPXPXPXPXPXPXPXPXPXPXPXPXPXo.%.8.f.f.f.f.f.f.f.f.f.f.8.%.o.PXPXPXPXPXPXPXPXPXPXPXPXPXPXPXPXPXPXPXPXPXPXPXPX",
"PXPXPXPXPXPXPXPXPXPXPXPXPXPXPXPXPXPXPXPXPXPX3 O.).'.V.0.u.f.f.f.f.f.f.u.0.V.'.).O.3 PXPXPXPXPXPXPXPXPXPXPXPXPXPXPXPXPXPXPXPXPXPX",
"PXPXPXPXPXPXPXPXPXPXPXPXPXPXPXPXPXPXPXPXPXPX3 X.`.,X_.C.x.u.u.f.f.u.u.x.C._.,X`.X.3 PXPXPXPXPXPXPXPXPXPXPXPXPXPXPXPXPXPXPXPXPXPX",
"PXPXPXPXPXPXPXPXPXPXPXPXPXPXPXPXPXPXPXPXPXPX7 M s._.>X].A.q.u.f.f.u.q.A.].>X_.s.M 7 PXPXPXPXPXPXPXPXPXPXPXPXPXPXPXPXPXPXPXPXPXPX",
"PXPXPXPXPXPXPXPXPXPXPXPXPXPXPXPXPXPXPXPXPXPX0 g +.Z.[.[.D.q.u.f.f.u.q.D.[.[.Z.+.g 0 PXPXPXPXPXPXPXPXPXPXPXPXPXPXPXPXPXPXPXPXPXPX",
"PXPXPXPXPXPXPXPXPXPXPXPXPXPXPXPXPXPXPXPXPXPX0 h @.c.D.D.c.u.u.f.f.u.u.c.D.D.c.@.h 0 PXPXPXPXPXPXPXPXPXPXPXPXPXPXPXPXPXPXPXPXPXPX",
"PXPXPXPXPXPXPXPXPXPXPXPXPXPXPXPXPXPXPXPXPXPX4 p &.f.u.q.u.f.f.f.f.f.f.u.q.u.f.&.p 4 PXPXPXPXPXPXPXPXPXPXPXPXPXPXPXPXPXPXPXPXPXPX",
"PXPXPXPXPXPXPXPXPXPXPXPXPXPXPXPXPXPXPXPXPXPX% i #.f.d.u.u.f.f.f.f.f.f.u.u.d.f.#.i % PXPXPXPXPXPXPXPXPXPXPXPXPXPXPXPXPXPXPXPXPXPX",
"PXPXPXPXPXPXPXPXPXPXPXPXPXPXPXPXPXPXPXPXPXPX^ ` k.a.a.f.f.f.f.f.f.f.f.f.f.a.a.k.` ^ PXPXPXPXPXPXPXPXPXPXPXPXPXPXPXPXPXPXPXPXPXPX",
"PXPXPXPXPXPXPXPXPXPXPXPXPXPXPXPXPXPXPXPX; ^ *X-XL.r.y.f.f.f.f.f.f.f.f.f.f.y.r.L.-X*X^ ; PXPXPXPXPXPXPXPXPXPXPXPXPXPXPXPXPXPXPXPX",
"PXPXPXPXPXPXPXPXPXPXPXPXPXPXPXPXPXPXPXPX; _ yXaXoXw.r.f.f.f.f.f.f.f.f.f.f.r.w.oXaXyX_ ; PXPXPXPXPXPXPXPXPXPXPXPXPXPXPXPXPXPXPXPX",
"PXPXPXPXPXPXPXPXPXPXPXPXPXPXPXPXPXPXPXPX; _ yXaXoXw.r.f.f.f.f.f.f.f.f.f.f.r.w.oXaXyX_ ; PXPXPXPXPXPXPXPXPXPXPXPXPXPXPXPXPXPXPXPX",
"PXPXPXPXPXPXPXPXPXPXPXPXPXPXPXPXPXPXPXPX: K OX;XP.r.y.f.f.f.f.f.f.f.f.f.f.y.r.L.-X*X^ ; PXPXPXPXPXPXPXPXPXPXPXPXPXPXPXPXPXPXPXPX",
"PXPXPXPXPXPXPXPXPXPXPXPXPXPXPXPXPXPX* > 6 d J ' l.a.a.f.f.f.f.f.f.f.f.f.f.a.a.k.` ^ PXPXPXPXPXPXPXPXPXPXPXPXPXPXPXPXPXPXPXPXPXPX",
"PXPXPXPXPXPXPXPXPXPXPXPXPXPXPXPXPXPX .{ b - @ y %.f.f.f.f.f.f.f.f.f.f.f.f.f.f.#.i % PXPXPXPXPXPXPXPXPXPXPXPXPXPXPXPXPXPXPXPXPXPX",
"PXPXPXPX+ + + + + + + + + + + .   | 6X5X} O o y %.f.f.f.f.f.f.f.f.f.f.f.f.f.f.$.p 4 PXPXPXPXPXPXPXPXPXPXPXPXPXPXPXPXPXPXPXPXPXPX",
"PXPXPXPX}..X.X X X X X X X X X|./.:XlXkX..E / ] z.a.a.u.u.f.f.f.f.f.f.u.u.f.h.&.a 4 PXPXPXPXPXPXPXPXPXPXPXPXPXPXPXPXPXPXPXPXPXPX",
"PXPX+ ~.mXCXVXMXMXMXMXMXMXMXMXBXNXAXSXcXsXwXrX;XI.t.p.u.u.f.f.f.f.f.f.u.u.f.j.&.i % $ ; PXPXPXPXPXPXPXPXPXPXPXPXPXPXPXPXPXPXPXPX",
"PXPX+ XXZXLXKXGXGXGXGXGXGXGXGXHXJXFXDXbXzXfXiX=XK.-.7.i.u.u.u.u.u.u.u.u.i.9.>.,.R ) ( W PXPXPXPXPXPXPXPXPXPXPXPXPXPXPXPXPXPXPXPX",
"PXPX+ XXZXLXKXGXGXGXGXGXGXGXGXHXJXFXDXnXxXuXY.P A Z :.f.i.u.q.0.0.q.u.i.f.;.N T $XtXeX%XW ; PXPXPXPXPXPXPXPXPXPXPXPXPXPXPXPXPXPX",
"PXPX+ ~.mXCXVXMXMXMXMXMXMXMXMXBXNXAXSXvXdX+XU X % x 6.B.v.b.S.^.^.S.b.v.B.1.i ! qXgXhXeX) ; PXPXPXPXPXPXPXPXPXPXPXPXPXPXPXPXPXPX",
"PXPXPXPX}..X.X X X X X X X X X|./.:XlXjX..I PXPX2 B g.G.F.(.{.<X<X{.(.F.G.e.l L #XpXgXtX) ; PXPXPXPXPXPXPXPXPXPXPXPXPXPXPXPXPXPX",
"PXPXPXPX+ + + + + + + + + + + .   | 6X4X[ & PXPX8 z 2.M.R.!.1X2X2X1X!.R.M.<.j S U.@X0X&X~ ; PXPXPXPXPXPXPXPXPXPXPXPXPXPXPXPXPXPX",
"PXPXPXPXPXPXPXPXPXPXPXPXPXPXPXPXPXPX .[ v , PXPX0 e j F H.Q.8X9X9X8XQ.H.F j w s D U Q ~ PXPXPXPXPXPXPXPXPXPXPXPXPXPXPXPXPXPXPXPX",
"PXPXPXPXPXPXPXPXPXPXPXPXPXPXPXPXPXPX= > 9 q PXPX0 r j G J.W.7X3X3X7XW.J.G j t 0 5 < : ; PXPXPXPXPXPXPXPXPXPXPXPXPXPXPXPXPXPXPXPX",
"PXPXPXPXPXPXPXPXPXPXPXPXPXPXPXPXPXPXPXPXPXPXPXPX8 x 3.N.E.T.Y c c Y T.E.N.3.x 7 PXPXPXPXPXPXPXPXPXPXPXPXPXPXPXPXPXPXPXPXPXPXPXPX",
"PXPXPXPXPXPXPXPXPXPXPXPXPXPXPXPXPXPXPXPXPXPXPXPX7 B 5.m.n.4.n # # n 4.n.m.5.B 7 PXPXPXPXPXPXPXPXPXPXPXPXPXPXPXPXPXPXPXPXPXPXPXPX",
"PXPXPXPXPXPXPXPXPXPXPXPXPXPXPXPXPXPXPXPXPXPXPXPXPXPXV C V m PXPXPXPXm V C V PXPXPXPXPXPXPXPXPXPXPXPXPXPXPXPXPXPXPXPXPXPXPXPXPXPX",
"PXPXPXPXPXPXPXPXPXPXPXPXPXPXPXPXPXPXPXPXPXPXPXPXPXPX7 7 7 7 PXPXPXPX7 7 7 7 PXPXPXPXPXPXPXPXPXPXPXPXPXPXPXPXPXPXPXPXPXPXPXPXPXPX",
"PXPXPXPXPXPXPXPXPXPXPXPXPXPXPXPXPXPXPXPXPXPXPXPXPXPXPXPXPXPXPXPXPXPXPXPXPXPXPXPXPXPXPXPXPXPXPXPXPXPXPXPXPXPXPXPXPXPXPXPXPXPXPXPX",
"PXPXPXPXPXPXPXPXPXPXPXPXPXPXPXPXPXPXPXPXPXPXPXPXPXPXPXPXPXPXPXPXPXPXPXPXPXPXPXPXPXPXPXPXPXPXPXPXPXPXPXPXPXPXPXPXPXPXPXPXPXPXPXPX",
"PXPXPXPXPXPXPXPXPXPXPXPXPXPXPXPXPXPXPXPXPXPXPXPXPXPXPXPXPXPXPXPXPXPXPXPXPXPXPXPXPXPXPXPXPXPXPXPXPXPXPXPXPXPXPXPXPXPXPXPXPXPXPXPX",
"PXPXPXPXPXPXPXPXPXPXPXPXPXPXPXPXPXPXPXPXPXPXPXPXPXPXPXPXPXPXPXPXPXPXPXPXPXPXPXPXPXPXPXPXPXPXPXPXPXPXPXPXPXPXPXPXPXPXPXPXPXPXPXPX",
"PXPXPXPXPXPXPXPXPXPXPXPXPXPXPXPXPXPXPXPXPXPXPXPXPXPXPXPXPXPXPXPXPXPXPXPXPXPXPXPXPXPXPXPXPXPXPXPXPXPXPXPXPXPXPXPXPXPXPXPXPXPXPXPX",
"PXPXPXPXPXPXPXPXPXPXPXPXPXPXPXPXPXPXPXPXPXPXPXPXPXPXPXPXPXPXPXPXPXPXPXPXPXPXPXPXPXPXPXPXPXPXPXPXPXPXPXPXPXPXPXPXPXPXPXPXPXPXPXPX",
"PXPXPXPXPXPXPXPXPXPXPXPXPXPXPXPXPXPXPXPXPXPXPXPXPXPXPXPXPXPXPXPXPXPXPXPXPXPXPXPXPXPXPXPXPXPXPXPXPXPXPXPXPXPXPXPXPXPXPXPXPXPXPXPX",
"PXPXPXPXPXPXPXPXPXPXPXPXPXPXPXPXPXPXPXPXPXPXPXPXPXPXPXPXPXPXPXPXPXPXPXPXPXPXPXPXPXPXPXPXPXPXPXPXPXPXPXPXPXPXPXPXPXPXPXPXPXPXPXPX",
"PXPXPXPXPXPXPXPXPXPXPXPXPXPXPXPXPXPXPXPXPXPXPXPXPXPXPXPXPXPXPXPXPXPXPXPXPXPXPXPXPXPXPXPXPXPXPXPXPXPXPXPXPXPXPXPXPXPXPXPXPXPXPXPX",
"PXPXPXPXPXPXPXPXPXPXPXPXPXPXPXPXPXPXPXPXPXPXPXPXPXPXPXPXPXPXPXPXPXPXPXPXPXPXPXPXPXPXPXPXPXPXPXPXPXPXPXPXPXPXPXPXPXPXPXPXPXPXPXPX",
"PXPXPXPXPXPXPXPXPXPXPXPXPXPXPXPXPXPXPXPXPXPXPXPXPXPXPXPXPXPXPXPXPXPXPXPXPXPXPXPXPXPXPXPXPXPXPXPXPXPXPXPXPXPXPXPXPXPXPXPXPXPXPXPX",
"PXPXPXPXPXPXPXPXPXPXPXPXPXPXPXPXPXPXPXPXPXPXPXPXPXPXPXPXPXPXPXPXPXPXPXPXPXPXPXPXPXPXPXPXPXPXPXPXPXPXPXPXPXPXPXPXPXPXPXPXPXPXPXPX",
"PXPXPXPXPXPXPXPXPXPXPXPXPXPXPXPXPXPXPXPXPXPXPXPXPXPXPXPXPXPXPXPXPXPXPXPXPXPXPXPXPXPXPXPXPXPXPXPXPXPXPXPXPXPXPXPXPXPXPXPXPXPXPXPX",
"PXPXPXPXPXPXPXPXPXPXPXPXPXPXPXPXPXPXPXPXPXPXPXPXPXPXPXPXPXPXPXPXPXPXPXPXPXPXPXPXPXPXPXPXPXPXPXPXPXPXPXPXPXPXPXPXPXPXPXPXPXPXPXPX",
"PXPXPXPXPXPXPXPXPXPXPXPXPXPXPXPXPXPXPXPXPXPXPXPXPXPXPXPXPXPXPXPXPXPXPXPXPXPXPXPXPXPXPXPXPXPXPXPXPXPXPXPXPXPXPXPXPXPXPXPXPXPXPXPX",
"PXPXPXPXPXPXPXPXPXPXPXPXPXPXPXPXPXPXPXPXPXPXPXPXPXPXPXPXPXPXPXPXPXPXPXPXPXPXPXPXPXPXPXPXPXPXPXPXPXPXPXPXPXPXPXPXPXPXPXPXPXPXPXPX",
"PXPXPXPXPXPXPXPXPXPXPXPXPXPXPXPXPXPXPXPXPXPXPXPXPXPXPXPXPXPXPXPXPXPXPXPXPXPXPXPXPXPXPXPXPXPXPXPXPXPXPXPXPXPXPXPXPXPXPXPXPXPXPXPX",
"PXPXPXPXPXPXPXPXPXPXPXPXPXPXPXPXPXPXPXPXPXPXPXPXPXPXPXPXPXPXPXPXPXPXPXPXPXPXPXPXPXPXPXPXPXPXPXPXPXPXPXPXPXPXPXPXPXPXPXPXPXPXPXPX"
};
