/* XPM */
static char *result[] = {
/* columns rows colors chars-per-pixel */
"32 32 251 2 ",
"   c #050D26",
".  c #060F28",
"X  c #0B1027",
"o  c #091029",
"O  c #0B122A",
"+  c #0D1229",
"@  c #0C122A",
"#  c #0F142A",
"$  c #0E142B",
"%  c #0E152C",
"&  c #12132A",
"*  c #11152A",
"=  c #13152B",
"-  c #12162C",
";  c #18182D",
":  c #151C36",
">  c #171D37",
",  c #1B1F37",
"<  c #1A1F38",
"1  c #211B30",
"2  c #231C31",
"3  c #2A1F32",
"4  c #1E2033",
"5  c #1C2038",
"6  c #1C2039",
"7  c #1C2139",
"8  c #1D2139",
"9  c #2A2031",
"0  c #2F2334",
"q  c #312636",
"w  c #382736",
"e  c #362838",
"r  c #3A2938",
"t  c #3A2A39",
"y  c #3A2B39",
"u  c #3B2B3A",
"i  c #3E2B3A",
"p  c #3E2C3A",
"a  c #1A364C",
"s  c #242842",
"d  c #292941",
"f  c #2A2E4A",
"g  c #2A314F",
"h  c #3F3541",
"j  c #3C3642",
"k  c #3D3642",
"l  c #393146",
"z  c #3E3645",
"x  c #2C3250",
"c  c #2F3451",
"v  c #303551",
"b  c #303552",
"n  c #313552",
"m  c #333855",
"M  c #31395B",
"N  c #333A5B",
"B  c #353B5C",
"V  c #353C5C",
"C  c #363C5C",
"Z  c #373D5D",
"A  c #3B3D58",
"S  c #383D5B",
"D  c #3C3F5B",
"F  c #3E3F5B",
"G  c #383E5D",
"H  c #393E5D",
"J  c #383E5E",
"K  c #3A3F5E",
"L  c #3A3F5F",
"P  c #463943",
"I  c #423944",
"U  c #433944",
"Y  c #453D47",
"T  c #463C46",
"R  c #463D46",
"E  c #463D47",
"W  c #473D47",
"Q  c #463E47",
"!  c #483D47",
"~  c #483E47",
"^  c #493E47",
"/  c #4A3E47",
"(  c #463F4E",
")  c #483B4A",
"_  c #553242",
"`  c #5F3D44",
"'  c #493F50",
"]  c #673743",
"[  c #3A405F",
"{  c #3B405F",
"}  c #3B4060",
"|  c #4B414A",
" . c #4A404B",
".. c #4C4149",
"X. c #4C424A",
"o. c #4D424A",
"O. c #4E434B",
"+. c #4A444F",
"@. c #5F474E",
"#. c #404455",
"$. c #444758",
"%. c #4F4759",
"&. c #544854",
"*. c #52485A",
"=. c #594B58",
"-. c #594C5A",
";. c #5C4D5A",
":. c #6F4146",
">. c #77444A",
",. c #75464B",
"<. c #7F404B",
"1. c #7B484B",
"2. c #7D4B4E",
"3. c #684E51",
"4. c #744351",
"5. c #714754",
"6. c #794C5A",
"7. c #745A5A",
"8. c #735C5C",
"9. c #434561",
"0. c #474863",
"q. c #4F5068",
"w. c #585368",
"e. c #5B5568",
"r. c #5D5668",
"t. c #5C5669",
"y. c #5E576A",
"u. c #5F586B",
"i. c #5F5B6D",
"p. c #675762",
"a. c #61596C",
"s. c #675F6F",
"d. c #685D6D",
"f. c #695E6E",
"g. c #715662",
"h. c #785963",
"j. c #745C68",
"k. c #6B6170",
"l. c #6A6171",
"z. c #6C6270",
"x. c #84454F",
"c. c #8A4650",
"v. c #885457",
"b. c #8A575A",
"n. c #995755",
"m. c #995856",
"M. c #9A5C5D",
"N. c #9E5E5C",
"B. c #9A615D",
"V. c #9E635E",
"C. c #845F65",
"Z. c #876D6D",
"A. c #846971",
"S. c #997970",
"D. c #9D7B73",
"F. c #9F7D72",
"G. c #927B7D",
"H. c #AC6A63",
"J. c #AB6D64",
"K. c #A66968",
"L. c #B06C64",
"P. c #B46D65",
"I. c #AD726C",
"U. c #A36F78",
"Y. c #A26E79",
"T. c #A27E72",
"R. c #BD7D74",
"E. c #D07E70",
"W. c #A48074",
"Q. c #A58074",
"!. c #A7857D",
"~. c #A5847F",
"^. c #A6857F",
"/. c #AD867C",
"(. c #B48476",
"). c #BC8979",
"_. c #D28172",
"`. c #D18877",
"'. c #D08878",
"]. c #477B8F",
"[. c #5E7085",
"{. c #60778E",
"}. c #8C7281",
"|. c #3B8094",
" X c #6DA2B5",
".X c #74B8C9",
"XX c #AD8B85",
"oX c #AF8D86",
"OX c #BD8785",
"+X c #9C96A2",
"@X c #9D96A2",
"#X c #B9B1B4",
"$X c #CB9380",
"%X c #CB9481",
"&X c #C99582",
"*X c #CB9682",
"=X c #C49986",
"-X c #C39C87",
";X c #C49C87",
":X c #C59C87",
">X c #C99B87",
",X c #C49D88",
"<X c #C89B89",
"1X c #CA9D88",
"2X c #C89F88",
"3X c #CD9E8A",
"4X c #D89682",
"5X c #D19F89",
"6X c #E29681",
"7X c #E09B85",
"8X c #CFA08C",
"9X c #C6A497",
"0X c #CFA290",
"qX c #D0A291",
"wX c #D2A492",
"eX c #D1A794",
"rX c #D3A995",
"tX c #D2A996",
"yX c #D4AB97",
"uX c #D9A891",
"iX c #DCA992",
"pX c #DBAB95",
"aX c #E5A78D",
"sX c #F0AB8F",
"dX c #EFB297",
"fX c #E1B098",
"gX c #E0B198",
"hX c #EEB39B",
"jX c #F6B194",
"kX c #F3BC9D",
"lX c #FFBB9C",
"zX c #FBBC9C",
"xX c #C6B7B8",
"cX c #E9B5A1",
"vX c #DAC0BD",
"bX c #F9C2A1",
"nX c #FFC6A3",
"mX c #FFC8A4",
"MX c #FFC8A5",
"NX c #FFC9A5",
"BX c #FFCAA6",
"VX c #F6C4AC",
"CX c #F9CCB4",
"ZX c #ADB4C0",
"AX c #CDBDC6",
"SX c #CEBDC6",
"DX c #BFD8E3",
"FX c #E9DEDB",
"GX c #E5E7EF",
"HX c #E3E7F0",
"JX c None",
/* pixels */
"JXJXJXJXJXJXJXJXJXJXJXJXJXJXJXJXJXJXJXJXJXJXJXJXJXJXJXJXJXJXJXJX",
"JXJXJXJXJXJXJXJXJXJXJXJXJXJXJXJXJXJXJXJXJXJXJXJXJXJXJXJXJXJXJXJX",
"JXJXJXJXJXJXJXJXJXJX- - - - - - - - - - - - JXJXJXJXJXJXJXJXJXJX",
"JXJXJXJXJXJXJXJXJXJX5 8 8 7 7 7 7 7 7 8 8 5 JXJXJXJXJXJXJXJXJXJX",
"JXJXJXJXJXJXJXJX* , f b b v v v v v v b b f , * JXJXJXJXJXJXJXJX",
"JXJXJXJXJXJXJXJX, s m } { L L L L L L { } m s , JXJXJXJXJXJXJXJX",
"JXJXJXJXJXJX- 5 f m S L K K K K K K K K L S m f 5 - JXJXJXJXJXJX",
"JXJXJXJXJXJX- 8 n [ J Z H K K K K K K H Z J [ n 8 - JXJXJXJXJXJX",
"JXJXJXJXJXJX- 8 b L Z C G K K K K K K G C Z L b 8 - JXJXJXJXJXJX",
"JXJXJXJXJXJX- 6 c 0.u.y.9.V C Z Z C V 9.y.u.0.c 6 - JXJXJXJXJXJX",
"JXJXJXJXJXJX- < x a.oXXXt.M N B B N M t.XXoXa.x < - JXJXJXJXJXJX",
"JXJXJXJXJXJX# > g z.rXgXG.d.d.f.f.d.d.G.gXrXz.g > # JXJXJXJXJXJX",
"JXJXJXJXJXJX+ : g k.eXbXfXwXqX0X0XqXwXfXbXeXk.g : + JXJXJXJXJXJX",
"JXJXJXJXJXJX! ( A e.~.3X8XiXkXnXnXkXiX8X3X~.e.A ( ! JXJXJXJXJXJX",
"JXJXJXJX@ / Q.!.r.F %.=.;.Z.uXmXmXuXZ.;.=.%.F r.!.Q./ @ JXJXJXJX",
"JXJXJXJX@ O.2XyXl.D %.' d &.<XNXNX<X&.d ' %.D l.yX2XO.@ JXJXJXJX",
"JXJXJXJX@ O.2XtXs.w.^.D.z  .=XBXBX=X .z D.^.w.s.tX2XO.@ JXJXJXJX",
"JXJXJXJX@ ^ W./.j.A.pX:XQ h (.jXjX(.h Q :XpXA.j./.W.^ @ JXJXJXJX",
"JXJXJXJXJXJXR @.b.R.dX;XY e B._._.B.e Y ;XdXR.b.@.R JXJXJXJXJXJX",
"JXJXJXJXJXJX. 3 :.L.7X&X8.3.J.E.E.J.3.8.&X7XL.:.3 . JXJXJXJXJXJX",
"JXJXJXJXJXJXo = 9 ` H.'.*X5XaXsXsXaX5X*X'.H.` 9 = o JXJXJXJXJXJX",
"JXJXJXJXJXJX~ +.$.-.v.P.4XhXVXCXCXVXhX4XP.v.-.$.+.~ JXJXJXJXJXJX",
"JXJXJXJX  U T.9X#X@Xh.>.M.OXvXFXFXvXOXM.>.h.@X#X9XT.U   JXJXJXJX",
"JXJXJXJXI 7.$XcXxX+Xg.] <.Y.AXHXHXAXY.<.] g.+XxXcX$X7.I JXJXJXJX",
"JXJX@ E F.%X`.I.p.*.5.x.c.U.SXGXGXSXU.c.x.5.*.p.I.`.%XF.E @ JXJX",
"JXJX@ X.,XzX6XV.y 1 _ 4.6.}.ZXDXDXZX}.6.4._ 1 y V.6XzX,XX.@ JXJX",
"JXJX@ | -XMXlX).P & 2 l q.{. X.X.X X{.q.l 2 & P ).lXMX-X| @ JXJX",
"JXJX@ T F.>X1XS.k ; 0 ) i.[.].|.|.].[.i.) 0 ; k S.1X>XF.T @ JXJX",
"JXJXJXJXW ..o.j 4 q ,.N.K.C.#.a a #.C.K.N.,.q 4 j o...W JXJXJXJX",
"JXJXJXJX@ @ @ O $ t 2.m.n.1.w X X w 1.n.m.2.t $ O @ @ @ JXJXJXJX",
"JXJXJXJXJXJXJXJXJXJXu p i r JXJXJXJXr i p u JXJXJXJXJXJXJXJXJXJX",
"JXJXJXJXJXJXJXJXJXJX% % % % JXJXJXJX% % % % JXJXJXJXJXJXJXJXJXJX"
};
