/* XPM */
static char *result[] = {
/* columns rows colors chars-per-pixel */
"32 32 140 2 ",
"   c #060F28",
".  c #0D122A",
"X  c #12162C",
"o  c #141A32",
"O  c #1A1F37",
"+  c #2C1F31",
"@  c #1D2139",
"#  c #2C283D",
"$  c #252439",
"%  c #352636",
"&  c #392636",
"*  c #3A2837",
"=  c #3C2B3A",
"-  c #492E3D",
";  c #43323F",
":  c #55333F",
">  c #1F2644",
",  c #1B2F46",
"<  c #1D344B",
"1  c #212641",
"2  c #242842",
"3  c #2B2C43",
"4  c #2A2E4A",
"5  c #262C49",
"6  c #3C2F40",
"7  c #393B4F",
"8  c #3E3645",
"9  c #2D3352",
"0  c #2A3D52",
"q  c #303552",
"w  c #343954",
"e  c #3D3E52",
"r  c #363C5C",
"t  c #3A3F5E",
"y  c #453B46",
"u  c #4A3E47",
"i  c #483F50",
"p  c #6D3C48",
"a  c #6D3E46",
"s  c #733C48",
"d  c #3B415E",
"f  c #3F4858",
"g  c #3D4256",
"h  c #3B4060",
"j  c #33697E",
"k  c #4C424A",
"l  c #5D454B",
"z  c #444253",
"x  c #41435B",
"c  c #464A5D",
"v  c #494959",
"b  c #584B56",
"n  c #54475E",
"m  c #524A5C",
"M  c #5C4C5A",
"N  c #62474E",
"B  c #724348",
"V  c #7A454B",
"C  c #7B4A4D",
"Z  c #6B5053",
"A  c #454662",
"S  c #544E61",
"D  c #575062",
"F  c #5D5669",
"G  c #685862",
"H  c #645B6D",
"J  c #6A5F6F",
"K  c #7E5A67",
"L  c #6B606F",
"P  c #7D6467",
"I  c #6B6271",
"U  c #804E50",
"Y  c #8A4E50",
"T  c #855152",
"R  c #985654",
"E  c #995856",
"W  c #96645F",
"Q  c #9F625F",
"!  c #846B6F",
"~  c #8B706F",
"^  c #8E797C",
"/  c #8D7479",
"(  c #9E7C73",
")  c #927B7D",
"_  c #A26661",
"`  c #A56A66",
"'  c #B2746C",
"]  c #A37F74",
"[  c #AC757E",
"{  c #A67472",
"}  c #C27A6E",
"|  c #A6847E",
" . c #AD867C",
".. c #BD8A7A",
"X. c #D38A79",
"o. c #E0947E",
"O. c #456F83",
"+. c #5F7E8B",
"@. c #49889B",
"#. c #5B8EA1",
"$. c #6096A5",
"%. c #649EB0",
"&. c #70B2C3",
"*. c #92828E",
"=. c #8B8D9C",
"-. c #A88680",
";. c #AC8A84",
":. c #8D92A0",
">. c #9E95A1",
",. c #93A6B4",
"<. c #B9AFB3",
"1. c #B2B4BF",
"2. c #C29084",
"3. c #C59A85",
"4. c #C99B87",
"5. c #CC9E8A",
"6. c #D29D8A",
"7. c #E69882",
"8. c #CFA08C",
"9. c #D7A78E",
"0. c #C2A195",
"q. c #D3A693",
"w. c #D9A792",
"e. c #D2A894",
"r. c #DDAC93",
"t. c #DDAE98",
"y. c #E3A88E",
"u. c #EBAC92",
"i. c #F1AF93",
"p. c #E1B198",
"a. c #F5BE9E",
"s. c #FDBA9A",
"d. c #C5B6B8",
"f. c #E8B4A1",
"g. c #F4BEA0",
"h. c #FCC4A1",
"j. c #B2B5C0",
"k. c #B3BDC8",
"l. c #D7C6CD",
"z. c None",
/* pixels */
"z.z.z.z.z.z.z.z.z.z.X X X X X X X X X X X X z.z.z.z.z.z.z.z.z.z.",
"z.z.z.z.z.z.z.z.z.z.@ @ @ @ @ @ @ @ @ @ @ O z.z.z.z.z.z.z.z.z.z.",
"z.z.z.z.z.z.z.z.X O 4 q q q 9 q q q q q q 4 O X z.z.z.z.z.z.z.z.",
"z.z.z.z.z.z.z.z.O 2 w t h h h t t h h h h w 2 O z.z.z.z.z.z.z.z.",
"z.z.z.z.z.z.X @ 4 w t t t t t t t t t t t r w 4 @ X z.z.z.z.z.z.",
"z.z.z.z.z.z.X @ q t t t t t t t t t r t t d h q @ X z.z.z.z.z.z.",
"z.z.z.z.z.z.X @ q d t t t t t t t t r r t t t q @ X z.z.z.z.z.z.",
"z.z.z.z.z.z.X @ q t t t t t t t t A F F A r r 9 @ X z.z.z.z.z.z.",
"z.z.z.z.z.z.X @ q d d t t t t r r H ;.;.F r r 9 @ X z.z.z.z.z.z.",
"z.z.z.z.z.z.X @ q h t t t t t t r L e.t.^ J J m 2 X z.z.z.z.z.z.",
"z.z.z.z.z.z.X @ q t t t t t t r r J e.h.p.e.q.] y . z.z.z.z.z.z.",
"z.z.z.z.z.z.X @ q h t t t r r r r F | 5.6.r.g.3.u . z.z.z.z.z.z.",
"z.z.z.z.z.z.X @ q t t r r r r r r x n b M ~ p.4.k . z.z.z.z.z.z.",
"z.z.z.z.z.z.X @ q t t A F L L F A x m i 2 b 5.4.k . z.z.z.z.z.z.",
"z.z.z.z.z.z.X @ q h r F ;.q.w.;.F F -.( 8 k 4.4.k . z.z.z.z.z.z.",
"z.z.z.z.z.z.X @ 4 q r J e.h.s.2.F H e.3.u y ....u X z.z.z.z.z.z.",
"z.z.z.z.z.z.z.z.@ 1 q I e.s.7.` n H q.3.; = _ _ ; X z.z.z.z.z.z.",
"z.z.z.z.z.z.z.z.. O 5 D -.6.X.' P ^ t.q.P l U C & X z.z.z.z.z.z.",
"z.z.z.z.z.z.z.z.z.z.O 3 S / 6.u.w.r.g.a.w.| l % z.z.z.z.z.z.z.z.",
"z.z.z.z.z.z.z.z.z.z.X o > n  .y.i.u.6.3.4.] y   z.z.z.z.z.z.z.z.",
"z.z.z.z.z.z.z.z.z.z.X o . # N Q } ' Z y y y z.z.z.z.z.z.z.z.z.z.",
"z.z.z.z.z.z.z.z.z.z.X @ 7 z 6 u Y Y - % 7 e z.z.z.z.z.z.z.z.z.z.",
"z.z.z.z.z.z.z.z.z.z.X e =.=.z + : a a ! >.:.x . z.z.z.z.z.z.z.z.",
"z.z.z.z.z.z.z.z.z.z.. v <.d.G & & : s [ l.j.A X z.z.z.z.z.z.z.z.",
"z.z.z.z.z.z.z.z.z.z.. k 0.f.' B & & s [ l.1.v . z.z.z.z.z.z.z.z.",
"z.z.z.z.z.z.z.z.z.z.. k 3.s.o._ = $ M *.k.,.g . z.z.z.z.z.z.z.z.",
"z.z.z.z.z.z.z.z.z.z.. k 3.h.s...y , O.%.&.#.0 X z.z.z.z.z.z.z.z.",
"z.z.z.z.z.z.z.z.z.z.. y ( 3.4.| N z +.$.@.j < X z.z.z.z.z.z.z.z.",
"z.z.z.z.z.z.z.z.z.z.z.z.k k k l T Q { ! f < z.z.z.z.z.z.z.z.z.z.",
"z.z.z.z.z.z.z.z.z.z.z.z..   . % C R R V & . z.z.z.z.z.z.z.z.z.z.",
"z.z.z.z.z.z.z.z.z.z.z.z.z.z.z.z.= = = * z.z.z.z.z.z.z.z.z.z.z.z.",
"z.z.z.z.z.z.z.z.z.z.z.z.z.z.z.z.X . . X z.z.z.z.z.z.z.z.z.z.z.z."
};
