/* XPM */
static char *result[] = {
/* columns rows colors chars-per-pixel */
"32 32 145 2 ",
"   c #060F28",
".  c #050D26",
"X  c #0B1027",
"o  c #0D132A",
"O  c #12162C",
"+  c #1B192E",
"@  c #161D37",
"#  c #1C1E35",
"$  c #1A1F38",
"%  c #261E32",
"&  c #2A1F32",
"*  c #1C2139",
"=  c #202134",
"-  c #2A2031",
";  c #322636",
":  c #392736",
">  c #362838",
",  c #3C2B3A",
"<  c #4A2E3D",
"1  c #5A333F",
"2  c #1A364C",
"3  c #242842",
"4  c #292941",
"5  c #2A2F4A",
"6  c #2A314F",
"7  c #3D3543",
"8  c #2E3351",
"9  c #303552",
"0  c #333855",
"q  c #353C5C",
"w  c #3A3F5D",
"e  c #453C46",
"r  c #493E47",
"t  c #463F4E",
"y  c #483B4A",
"u  c #493644",
"i  c #5C3743",
"p  c #493F50",
"a  c #633947",
"s  c #6E3D47",
"d  c #3B405F",
"f  c #3B4060",
"g  c #4C424B",
"h  c #5F474E",
"j  c #434455",
"k  c #444758",
"l  c #4F4759",
"z  c #5A4C59",
"x  c #544854",
"c  c #6F4146",
"v  c #7A424C",
"b  c #7D4A4D",
"n  c #75474B",
"m  c #684E52",
"M  c #774856",
"N  c #64505D",
"B  c #745B5B",
"V  c #474863",
"C  c #434561",
"Z  c #4E5068",
"A  c #5C5569",
"S  c #5F5A6C",
"D  c #685862",
"F  c #645C6E",
"G  c #685D6D",
"H  c #775B66",
"J  c #6B6170",
"K  c #84454F",
"L  c #874851",
"P  c #8D4852",
"I  c #8A5659",
"U  c #9B5957",
"Y  c #9D5E5E",
"T  c #9C625E",
"R  c #845F65",
"E  c #9B5860",
"W  c #876D6D",
"Q  c #99796F",
"!  c #846971",
"~  c #9E7C72",
"^  c #927B7D",
"/  c #AC6C65",
"(  c #A66968",
")  c #B36D65",
"_  c #AE726C",
"`  c #B6716C",
"'  c #A06871",
"]  c #A4717A",
"[  c #A27E72",
"{  c #B77676",
"}  c #BD7D74",
"|  c #C67A6E",
" . c #CE7E6F",
".. c #A58074",
"X. c #A6857E",
"o. c #AD867C",
"O. c #BA8879",
"+. c #B48476",
"@. c #D28172",
"#. c #D18877",
"$. c #D08878",
"%. c #477B8F",
"&. c #5E7085",
"*. c #60778E",
"=. c #8C7281",
"-. c #3B8094",
";. c #6DA2B5",
":. c #74B8C9",
">. c #AE8C86",
",. c #9B96A1",
"<. c #B9B1B4",
"1. c #C58682",
"2. c #CB9581",
"3. c #C49B87",
"4. c #C99B87",
"5. c #C99E89",
"6. c #C49D88",
"7. c #D99683",
"8. c #E19983",
"9. c #CFA08C",
"0. c #D2A08A",
"q. c #C6A497",
"w. c #CFA290",
"e. c #D1A492",
"r. c #D3AA96",
"t. c #DBA993",
"y. c #E6A98F",
"u. c #EEAD93",
"i. c #F1AE92",
"p. c #EFB297",
"a. c #E1B198",
"s. c #FDBC9C",
"d. c #F5B799",
"f. c #C5A5AB",
"g. c #C7B7B9",
"h. c #E9B5A1",
"j. c #FCC4A2",
"k. c #FFC9A5",
"l. c #ADB4C0",
"z. c #CFBEC7",
"x. c #CEBFC8",
"c. c #BFD8E3",
"v. c #D8C6CB",
"b. c #E6E9F1",
"n. c None",
/* pixels */
"n.n.n.n.n.n.n.n.n.n.O O O O O O O O O O O O n.n.n.n.n.n.n.n.n.n.",
"n.n.n.n.n.n.n.n.n.n.* * * * * * * * * * * * n.n.n.n.n.n.n.n.n.n.",
"n.n.n.n.n.n.n.n.O $ 5 8 9 9 9 9 9 8 9 9 9 5 $ O n.n.n.n.n.n.n.n.",
"n.n.n.n.n.n.n.n.$ 3 0 f d w f w d f f f w 0 3 $ n.n.n.n.n.n.n.n.",
"n.n.n.n.n.n.O * 5 9 w f w w w w d d w w w q 0 5 * O n.n.n.n.n.n.",
"n.n.n.n.n.n.O * 9 f f q w d w d w w w w q w d 9 * O n.n.n.n.n.n.",
"n.n.n.n.n.n.O * 9 f q q q d d w w d d w q q w 9 * O n.n.n.n.n.n.",
"n.n.n.n.n.n.O * 8 V S S k q q q q q q C S S V 9 * O n.n.n.n.n.n.",
"n.n.n.n.n.n.O * 8 S >.>.S q q q q q 9 F >.>.F 6 $ O n.n.n.n.n.n.",
"n.n.n.n.n.n.o $ 6 J r.a.=.G G G G G G ^ a.r.J 6 @ O n.n.n.n.n.n.",
"n.n.n.n.n.n.X @ 5 J e.j.a.e.w.w.w.e.e.a.j.e.G 6 @ o n.n.n.n.n.n.",
"n.n.n.n.n.n.e g w Z >.5.9.t.d.k.k.d.t.5.5.X.A w t r n.n.n.n.n.n.",
"n.n.n.n.o r ..X.A t l z z W t.k.k.t.W z z l w A X...r o n.n.n.n.",
"n.n.n.n.o g 5.r.J w l t 4 x 5.k.k.3.x 4 g k w J r.5.g o n.n.n.n.",
"n.n.n.n.o g 5.r.F A >.~ 7 r 3.k.k.3.y e Q >.A F r.9.g o n.n.n.n.",
"n.n.n.n.o r ..o.H ! r.3.y 7 +.i.i.+.7 y 9.a.H H o...r o n.n.n.n.",
"n.n.n.n.n.n.e h I } p.3.y : Y  .@.T > e q.p.+.I h < n.n.n.n.n.n.",
"n.n.n.n.n.n.  - c ) 8.2.B m _  .@./ m B $.8.) c -   n.n.n.n.n.n.",
"n.n.n.n.n.n.  O & i / #.2.5.y.i.p.y.0.2.#./ a - O   n.n.n.n.n.n.",
"n.n.n.n.n.n.g j k z I ` 7.i.i.i.i.u.u.7.) I z k g g n.n.n.n.n.n.",
"n.n.n.n.. e [ q.<.,.H b Y `  . . .| ` Y v H ,.<.q..., . n.n.n.n.",
"n.n.n.n.e B $.h.g.,.N i s E { 1.1.{ E v 1 N ,.g.h.$.B d n.n.n.n.",
"n.n.o e ~ 2.#.` D j u i K ' f.v.v.f.' v i u j D ..#.$...g o n.n.",
"n.n.o g 3.s.8.T : + < s P =.x.b.b.x.] K s < + , / #.d.9.g o n.n.",
"n.n.o g 3.k.s.O.e % a L P ] x.b.b.v.=.P L a % g O.s.k.6.g o n.n.",
"n.n.o e ~ 2.6.~ 7 % i s M =.l.c.c.l.=.M n 1 = , ..0.O...g   n.n.",
"n.n.n.n.e g g 7 = + % 7 Z *.;.:.:.;.*.Z 7 % O = , g g g n.n.n.n.",
"n.n.n.n.o o o o O # - t F &.%.-.%.%.&.S y - = o o o X o n.n.n.n.",
"n.n.n.n.n.n.n.n.O ; n T ( R j 2 2 j R ( U b ; O n.n.n.n.n.n.n.n.",
"n.n.n.n.n.n.n.n.o , b U U b : X o : b U T B : O n.n.n.n.n.n.n.n.",
"n.n.n.n.n.n.n.n.n.n.> < , , n.n.n.n., , , , n.n.n.n.n.n.n.n.n.n.",
"n.n.n.n.n.n.n.n.n.n.o o O o n.n.n.n.o O O O n.n.n.n.n.n.n.n.n.n."
};
