/* XPM */
static char *result[] = {
/* columns rows colors chars-per-pixel */
"32 32 133 2 ",
"   c #060F28",
".  c #0D122A",
"X  c #12162C",
"o  c #141A32",
"O  c #1B1E36",
"+  c #251C2F",
"@  c #1C2139",
"#  c #202134",
"$  c #2B293D",
"%  c #342435",
"&  c #3B2736",
"*  c #3B2937",
"=  c #322B3D",
"-  c #3B2B3A",
";  c #432A39",
":  c #4B2E3B",
">  c #43323F",
",  c #58323F",
"<  c #1F2644",
"1  c #1D344B",
"2  c #212641",
"3  c #242842",
"4  c #2B2C43",
"5  c #262C49",
"6  c #2A2E4A",
"7  c #233449",
"8  c #2E384C",
"9  c #3D3543",
"0  c #2D3352",
"q  c #2B3E53",
"w  c #303552",
"e  c #343954",
"r  c #3B3D51",
"t  c #363C5C",
"y  c #3A3F5E",
"u  c #453B46",
"i  c #4B3E47",
"p  c #493F48",
"a  c #513846",
"s  c #483F50",
"d  c #673643",
"f  c #3F4357",
"g  c #3B415E",
"h  c #3B4060",
"j  c #33697E",
"k  c #4D424A",
"l  c #5D454B",
"z  c #56454C",
"x  c #414153",
"c  c #41435B",
"v  c #414959",
"b  c #494959",
"n  c #584B56",
"m  c #54475E",
"M  c #524A5C",
"N  c #5B4C59",
"B  c #64484F",
"V  c #734247",
"C  c #754449",
"Z  c #78474B",
"A  c #7D484B",
"S  c #715154",
"D  c #454662",
"F  c #544E61",
"G  c #575062",
"H  c #5D5669",
"J  c #685862",
"K  c #645B6D",
"L  c #6A5F6F",
"P  c #705361",
"I  c #6B606F",
"U  c #7B6361",
"Y  c #6B6271",
"T  c #804E50",
"R  c #815958",
"E  c #815966",
"W  c #816266",
"Q  c #80656E",
"!  c #8B706F",
"~  c #98796F",
"^  c #876C70",
"/  c #8D7479",
"(  c #8F797D",
")  c #987B78",
"_  c #A36661",
"`  c #A56962",
"'  c #A56B69",
"]  c #B2756E",
"[  c #A27F74",
"{  c #A6847E",
"}  c #AD867C",
"|  c #BD8A7A",
" . c #D38A79",
".. c #E0947E",
"X. c #4D7386",
"o. c #537888",
"O. c #49899C",
"+. c #5D91A3",
"@. c #6197A5",
"#. c #669FB1",
"$. c #73B4C5",
"%. c #8B8E9C",
"&. c #948490",
"*. c #A88680",
"=. c #AC8A84",
"-. c #9093A1",
";. c #A295A1",
":. c #97AAB7",
">. c #B9AFB3",
",. c #C29084",
"<. c #C59A85",
"1. c #C99B87",
"2. c #CB9E89",
"3. c #D49D8B",
"4. c #E69882",
"5. c #CFA08C",
"6. c #D6A48C",
"7. c #DCA48C",
"8. c #C2A195",
"9. c #D3A693",
"0. c #D2A894",
"q. c #DDAB93",
"w. c #DEAF98",
"e. c #EDAE93",
"r. c #E1B198",
"t. c #F5BE9E",
"y. c #FDBA9A",
"u. c #C5B6B8",
"i. c #E8B4A1",
"p. c #F5BFA0",
"a. c #FCC4A1",
"s. c #B7C1CC",
"d. c None",
/* pixels */
"d.d.d.d.d.d.d.d.d.d.d.d.d.d.d.d.d.d.d.d.d.d.d.d.d.d.d.d.d.d.d.d.",
"d.d.d.d.d.d.d.d.d.d.d.d.d.d.d.d.d.d.d.d.d.d.d.d.d.d.d.d.d.d.d.d.",
"d.d.d.d.d.d.d.d.d.d.X X X o X o X X X X X X d.d.d.d.d.d.d.d.d.d.",
"d.d.d.d.d.d.d.d.d.d.O @ # @ O @ @ @ @ @ @ @ d.d.d.d.d.d.d.d.d.d.",
"d.d.d.d.d.d.d.d.X O 6 w w w w w w w w w w 6 O X d.d.d.d.d.d.d.d.",
"d.d.d.d.d.d.d.d.O 3 e h g y y y y h y h h e 3 O d.d.d.d.d.d.d.d.",
"d.d.d.d.d.d.X @ 6 e y y y y y y y y y y h t e 6 @ X d.d.d.d.d.d.",
"d.d.d.d.d.d.X @ w y y y y y y y y y y t y y h w @ X d.d.d.d.d.d.",
"d.d.d.d.d.d.X @ w h g y y y y y y t t t y y h 0 @ X d.d.d.d.d.d.",
"d.d.d.d.d.d.X @ w h y y y y y y y D K K D t t 0 @ X d.d.d.d.d.d.",
"d.d.d.d.d.d.X @ 0 h y y y y y t t H =.=.H t t 0 @ X d.d.d.d.d.d.",
"d.d.d.d.d.d.X @ w y y y y y y t t I 0.r.( K I M $ X d.d.d.d.d.d.",
"d.d.d.d.d.d.X @ w y y y y y y t t L 0.p.r.9.9.[ u . d.d.d.d.d.d.",
"d.d.d.d.d.d.X @ w g y y t t t t t H { 2.5.q.p.1.p . d.d.d.d.d.d.",
"d.d.d.d.d.d.X @ w y y y t t t t y c M n N ! q.<.k . d.d.d.d.d.d.",
"d.d.d.d.d.d.X @ w y y D H I L K D c M p 4 N 2.1.k . d.d.d.d.d.d.",
"d.d.d.d.d.d.X @ 0 g t H =.9.9.=.H H *.) 9 k 2.2.k . d.d.d.d.d.d.",
"d.d.d.d.d.d.X @ 6 w t I 9.a.y.,.H K 9.<.u u | | p . d.d.d.d.d.d.",
"d.d.d.d.d.d.d.d.@ < 0 Y 9.y...' F K 9.<.u - _ ` u X d.d.d.d.d.d.",
"d.d.d.d.d.d.d.d.. O 5 G =.3. .] Q ( r.6.U l T Z % . d.d.d.d.d.d.",
"d.d.d.d.d.d.d.d.d.d.@ 4 G / 3.e.7.w.p.p.7.[ l % d.d.d.d.d.d.d.d.",
"d.d.d.d.d.d.d.d.d.d.X o < M } 7.7.3.1.1.2.[ p   d.d.d.d.d.d.d.d.",
"d.d.d.d.d.d.d.d.d.d.X X o $ B R R S z i i u d.d.d.d.d.d.d.d.d.d.",
"d.d.d.d.d.d.d.d.d.d.o # r x - ; : ; % = r x d.d.d.d.d.d.d.d.d.d.",
"d.d.d.d.d.d.d.d.d.d.X r %.%.f + ; , d E ;.-.x . d.d.d.d.d.d.d.d.",
"d.d.d.d.d.d.d.d.d.d.X v >.u.J & * a P &.s.:.f . d.d.d.d.d.d.d.d.",
"d.d.d.d.d.d.d.d.d.d.  k 8.r.] V & 8 X.#.$.+.q X d.d.d.d.d.d.d.d.",
"d.d.d.d.d.d.d.d.d.d.. k <.y.4.` - 7 o.@.O.j 1 X d.d.d.d.d.d.d.d.",
"d.d.d.d.d.d.d.d.d.d.X k <.a.y.| u = W ^ v 1 d.d.d.d.d.d.d.d.d.d.",
"d.d.d.d.d.d.d.d.d.d.. k {  .5.{ 9 % C A & . d.d.d.d.d.d.d.d.d.d.",
"d.d.d.d.d.d.d.d.d.d.d.d.f u k - @ O % * d.d.d.d.d.d.d.d.d.d.d.d.",
"d.d.d.d.d.d.d.d.d.d.d.d..   . X X X X . d.d.d.d.d.d.d.d.d.d.d.d."
};
