/* XPM */
static char *result[] = {
/* columns rows colors chars-per-pixel */
"32 32 142 2 ",
"   c #060F28",
".  c #0D122A",
"X  c #12162C",
"o  c #14182E",
"O  c #1E1A2E",
"+  c #161C35",
"@  c #1B1E36",
"#  c #261E30",
"$  c #1D2139",
"%  c #202134",
"&  c #2B283D",
"*  c #332536",
"=  c #3B2736",
"-  c #3C2937",
";  c #322D3F",
":  c #3B2B3A",
">  c #412A39",
",  c #4A2F3D",
"<  c #43323F",
"1  c #1D344B",
"2  c #212641",
"3  c #232843",
"4  c #2B2C43",
"5  c #2A2E4A",
"6  c #262C49",
"7  c #2D384B",
"8  c #233449",
"9  c #3D3643",
"0  c #393B4F",
"q  c #2D3352",
"w  c #2A3D52",
"e  c #303552",
"r  c #333855",
"t  c #393E51",
"y  c #363C5C",
"u  c #3A3F5E",
"i  c #463C46",
"p  c #4A3E47",
"a  c #413242",
"s  c #5C3641",
"d  c #503846",
"f  c #483F50",
"g  c #613742",
"h  c #663C44",
"j  c #6C3C47",
"k  c #3B415E",
"l  c #3D4256",
"z  c #3B4060",
"x  c #33697E",
"c  c #4D424A",
"v  c #5D454B",
"b  c #434254",
"n  c #41435B",
"m  c #444A5B",
"M  c #494959",
"N  c #584B56",
"B  c #54475E",
"V  c #534B5C",
"C  c #5B4C59",
"Z  c #63484F",
"A  c #78474B",
"S  c #7D484B",
"D  c #744348",
"F  c #6C5053",
"G  c #454662",
"H  c #544E61",
"J  c #575062",
"K  c #5D5669",
"L  c #6E5360",
"P  c #685862",
"I  c #645B6D",
"U  c #6A5F6F",
"Y  c #7E5A67",
"T  c #6B606F",
"R  c #7D6467",
"E  c #6B6271",
"W  c #81434D",
"Q  c #864D4F",
"!  c #804E50",
"~  c #915252",
"^  c #95635F",
"/  c #816266",
"(  c #8B706F",
")  c #98796F",
"_  c #876C70",
"`  c #8E777B",
"'  c #987B78",
"]  c #A36661",
"[  c #A56A66",
"{  c #B2746C",
"}  c #A27F74",
"|  c #AB757D",
" . c #C27A6D",
".. c #AA857E",
"X. c #BD8A7A",
"o. c #D38A79",
"O. c #E0947E",
"+. c #4B7386",
"@. c #537888",
"#. c #49899C",
"$. c #5B8EA1",
"%. c #6197A5",
"&. c #649EB0",
"*. c #70B2C3",
"=. c #91828E",
"-. c #898D9B",
";. c #8D909E",
":. c #A88680",
">. c #AC8A84",
",. c #8D92A0",
"<. c #9E95A1",
"1. c #93A6B4",
"2. c #B9AFB3",
"3. c #B2B4BF",
"4. c #C59A85",
"5. c #C99B87",
"6. c #CB9E89",
"7. c #C29084",
"8. c #D29D8A",
"9. c #E69882",
"0. c #CFA08C",
"q. c #D7A78E",
"w. c #C2A195",
"e. c #D3A693",
"r. c #D9A792",
"t. c #D2A894",
"y. c #DDAC93",
"u. c #DDAE98",
"i. c #E2A88E",
"p. c #EBAC92",
"a. c #F1AF92",
"s. c #E1B198",
"d. c #F5BE9E",
"f. c #FDBA9A",
"g. c #C5B6B8",
"h. c #E8B4A1",
"j. c #F4BEA0",
"k. c #FCC4A1",
"l. c #B2B5C0",
"z. c #B2BDC8",
"x. c #D7C5CD",
"c. c None",
/* pixels */
"c.c.c.c.c.c.c.c.c.c.X X X X X X o X X X X X c.c.c.c.c.c.c.c.c.c.",
"c.c.c.c.c.c.c.c.c.c.$ $ $ $ $ @ $ $ $ $ $ $ c.c.c.c.c.c.c.c.c.c.",
"c.c.c.c.c.c.c.c.X @ 5 e e e e e e e e e e 5 @ X c.c.c.c.c.c.c.c.",
"c.c.c.c.c.c.c.c.@ 3 r u z u z u u z z z z r 3 @ c.c.c.c.c.c.c.c.",
"c.c.c.c.c.c.X $ 5 r u u k u u u u u u u u u r 5 $ X c.c.c.c.c.c.",
"c.c.c.c.c.c.X $ e k u u u u u u u u y u u u z e $ X c.c.c.c.c.c.",
"c.c.c.c.c.c.X $ e u u u u u u u u u y y y u k e $ X c.c.c.c.c.c.",
"c.c.c.c.c.c.X $ e u u u u u u u u G K K G y y q $ X c.c.c.c.c.c.",
"c.c.c.c.c.c.X $ e u u u u u u y y I >.>.K y y e $ X c.c.c.c.c.c.",
"c.c.c.c.c.c.X $ e k u u u u u u y T t.u.` U U V & X c.c.c.c.c.c.",
"c.c.c.c.c.c.X $ e z u u u u u y y U t.k.s.r.r.' 9 . c.c.c.c.c.c.",
"c.c.c.c.c.c.X $ e u u u u y y y y K ..6.0.y.d.4.c . c.c.c.c.c.c.",
"c.c.c.c.c.c.X $ e u u y y y y y y n V N C ( s.5.c . c.c.c.c.c.c.",
"c.c.c.c.c.c.o $ e u u G K T T K G k V f 3 N 6.5.c . c.c.c.c.c.c.",
"c.c.c.c.c.c.X $ e z y K >.r.e.>.K K ..) 9 c 6.6.c . c.c.c.c.c.c.",
"c.c.c.c.c.c.X $ 5 e y U t.k.f.7.K U t.5.c a X.X.p . c.c.c.c.c.c.",
"c.c.c.c.c.c.c.c.@ 2 q T t.f.9.[ B I t.5.i = ] ] < . c.c.c.c.c.c.",
"c.c.c.c.c.c.c.c.. @ 6 J >.8.o.{ R ` u.r.R Z Q A : X c.c.c.c.c.c.",
"c.c.c.c.c.c.c.c.c.c.@ 5 H ` 8.p.r.r.j.d.y.} v * c.c.c.c.c.c.c.c.",
"c.c.c.c.c.c.c.c.c.c.X + 3 V ..i.a.p.6.4.5.} i   c.c.c.c.c.c.c.c.",
"c.c.c.c.c.c.c.c.c.c.o + + ; Z ^  .{ F p p i c.c.c.c.c.c.c.c.c.c.",
"c.c.c.c.c.c.c.c.c.c.o X X O - h ~ Q , & t t c.c.c.c.c.c.c.c.c.c.",
"c.c.c.c.c.c.c.c.c.c.o X . O - s h j j / <.,.n . c.c.c.c.c.c.c.c.",
"c.c.c.c.c.c.c.c.c.c.X $ t b a > , s W | x.l.m . c.c.c.c.c.c.c.c.",
"c.c.c.c.c.c.c.c.c.c.. l -.;.b # > g W | x.3.M . c.c.c.c.c.c.c.c.",
"c.c.c.c.c.c.c.c.c.c.. M 2.g.P = - d F =.z.1.l . c.c.c.c.c.c.c.c.",
"c.c.c.c.c.c.c.c.c.c.  c w.s.{ D = 7 +.&.*.$.w X c.c.c.c.c.c.c.c.",
"c.c.c.c.c.c.c.c.c.c.. c 4.f.9.] : 8 @.%.#.x 1 X c.c.c.c.c.c.c.c.",
"c.c.c.c.c.c.c.c.c.c.X c 0.k.f.X.i 4 / _ m 1 c.c.c.c.c.c.c.c.c.c.",
"c.c.c.c.c.c.c.c.c.c.. c ..5.0.) 9 * D W = . c.c.c.c.c.c.c.c.c.c.",
"c.c.c.c.c.c.c.c.c.c.c.c.: c c 9 $ O * - c.c.c.c.c.c.c.c.c.c.c.c.",
"c.c.c.c.c.c.c.c.c.c.c.c.. . . . X o o . c.c.c.c.c.c.c.c.c.c.c.c."
};
