/* XPM */
static char *result[] = {
/* columns rows colors chars-per-pixel */
"32 32 141 2 ",
"   c #050C25",
".  c #060F28",
"X  c #0B1027",
"o  c #0D132A",
"O  c #12162C",
"+  c #1B182D",
"@  c #161D37",
"#  c #1B1F37",
"$  c #1A1F38",
"%  c #251D32",
"&  c #1E2033",
"*  c #1C2139",
"=  c #2F2334",
"-  c #312435",
";  c #392736",
":  c #362838",
">  c #3D2C3A",
",  c #4A2D3C",
"<  c #5A333F",
"1  c #1A364C",
"2  c #242842",
"3  c #292941",
"4  c #2A2F4A",
"5  c #2A314F",
"6  c #3D3543",
"7  c #2E3351",
"8  c #303552",
"9  c #333855",
"0  c #353C5C",
"q  c #3A3F5D",
"w  c #453C46",
"e  c #493D47",
"r  c #463F4E",
"t  c #483B4A",
"y  c #493644",
"u  c #5B3743",
"i  c #493F50",
"p  c #643A47",
"a  c #6E3D47",
"s  c #3C425C",
"d  c #3B4060",
"f  c #4C424A",
"g  c #5E464E",
"h  c #434355",
"j  c #4F4759",
"k  c #544854",
"l  c #5A4C59",
"z  c #76454A",
"x  c #7A424C",
"c  c #7E4A4D",
"v  c #684E52",
"b  c #774856",
"n  c #66525E",
"m  c #755C5C",
"M  c #474863",
"N  c #434561",
"B  c #4E5068",
"V  c #5C5569",
"C  c #5F5A6C",
"Z  c #665E67",
"A  c #645C6E",
"S  c #685D6D",
"D  c #785C66",
"F  c #686069",
"G  c #6B6170",
"H  c #84454F",
"J  c #874851",
"K  c #8D4852",
"L  c #885457",
"P  c #89565A",
"I  c #9B5957",
"U  c #9D5E5E",
"Y  c #9D635E",
"T  c #845F65",
"R  c #9B5860",
"E  c #876D6D",
"W  c #846971",
"Q  c #9D7C72",
"!  c #927B7D",
"~  c #AC6C64",
"^  c #A66968",
"/  c #B56E65",
"(  c #B6716C",
")  c #A06871",
"_  c #A27F73",
"`  c #A4717A",
"'  c #B77676",
"]  c #BD7D74",
"[  c #C67A6E",
"{  c #CE7E6F",
"}  c #A58074",
"|  c #A6857E",
" . c #AB877C",
".. c #BE8B7B",
"X. c #B48476",
"o. c #D28172",
"O. c #D18978",
"+. c #477B8F",
"@. c #5E7085",
"#. c #60778E",
"$. c #8C7281",
"%. c #3B8094",
"&. c #6DA2B5",
"*. c #74B8C9",
"=. c #AE8C86",
"-. c #9C97A2",
";. c #9698A4",
":. c #A199A3",
">. c #C58682",
",. c #CC9682",
"<. c #C49B87",
"1. c #C99B87",
"2. c #C49D88",
"3. c #C99E89",
"4. c #DF9A84",
"5. c #D99683",
"6. c #E29681",
"7. c #CFA08C",
"8. c #D2A08A",
"9. c #CFA290",
"0. c #D1A492",
"q. c #D3AA96",
"w. c #DBA993",
"e. c #E6A98F",
"r. c #EEAD93",
"t. c #F1AE92",
"y. c #EFB297",
"u. c #E1B198",
"i. c #F6B194",
"p. c #FDBC9C",
"a. c #F3BC9D",
"s. c #C5A5AB",
"d. c #FCC4A2",
"f. c #FFC9A5",
"g. c #ADB4C0",
"h. c #CFBEC7",
"j. c #CEBFC8",
"k. c #BFD8E3",
"l. c #D8C6CB",
"z. c #E6E9F1",
"x. c None",
/* pixels */
"x.x.x.x.x.x.x.x.x.x.O O O O O O O O O O O O x.x.x.x.x.x.x.x.x.x.",
"x.x.x.x.x.x.x.x.x.x.* * * * * * * * * * * * x.x.x.x.x.x.x.x.x.x.",
"x.x.x.x.x.x.x.x.O # 4 7 8 7 8 7 8 7 8 8 8 5 $ O x.x.x.x.x.x.x.x.",
"x.x.x.x.x.x.x.x.# 2 0 d s d d d s d d d d 8 2 # x.x.x.x.x.x.x.x.",
"x.x.x.x.x.x.O * 4 9 q q q q q q d q s d d 0 9 4 * O x.x.x.x.x.x.",
"x.x.x.x.x.x.O * 8 d 0 q q q q q d q q q q 0 d 8 * O x.x.x.x.x.x.",
"x.x.x.x.x.x.O * 8 d q 0 q q q q q q d 0 0 0 d 7 * O x.x.x.x.x.x.",
"x.x.x.x.x.x.O * 8 M V V N 0 0 0 0 0 0 N V A M 7 * O x.x.x.x.x.x.",
"x.x.x.x.x.x.O * 5 A =.=.V 0 0 0 0 9 0 A =.=.A 5 # O x.x.x.x.x.x.",
"x.x.x.x.x.x.o $ 5 F q.u.! S S S S S S $.u.w.F 5 @ O x.x.x.x.x.x.",
"x.x.x.x.x.x.. @ 4 S q.d.u.0.0.0.0.0.0.u.d.q.S 5 @ o x.x.x.x.x.x.",
"x.x.x.x.x.x.w f q B =.3.3.w.a.d.d.a.w.3.3.| V q r e x.x.x.x.x.x.",
"x.x.x.x.o e } | A q j l l E w.f.d.w.E l k k s V | } e o x.x.x.x.",
"x.x.x.x.o f 7.q.S q j r 3 k 3.f.f.3.k 3 h j q G q.7.f o x.x.x.x.",
"x.x.x.x.o f 7.q.S V | Q 6 f <.f.f.<.e 6 Q | B F q.7.f o x.x.x.x.",
"x.x.x.x.o e Q  .D W w.<.e 6 X.t.i.X.6 e 7.w.W D | Q e o x.x.x.x.",
"x.x.x.x.x.x.w g P ] r.<.w ; ^ { o.Y : r 2.a.X.L g w x.x.x.x.x.x.",
"x.x.x.x.x.x.. - z ~ 4.,.m v ~ { o.~ v m O.4.~ z - . x.x.x.x.x.x.",
"x.x.x.x.x.x.x.x.- u ~ O.,.3.e.t.r.e.7.,.O.~ < = x.x.x.x.x.x.x.x.",
"x.x.x.x.x.x.x.x.s l P / 5.r.t.t.t.r.r.5./ L l s x.x.x.x.x.x.x.x.",
"x.x.x.x.x.x.  s ;.:.D c U ' [ { { [ ( U c D :.;.s   x.x.x.x.x.x.",
"x.x.x.x.x.x.w F -.-.n < a R ' >.>.' R a < n -.-.Z w x.x.x.x.x.x.",
"x.x.x.x.. w } | Z h y u x ) s.l.l.s.) x p y i S  .} w   x.x.x.x.",
"x.x.x.x.6 m 1.O.y + , a x ` j.z.z.l.` x a , + y ..,.m w x.x.x.x.",
"x.x.o w Q ,.O.Y > % p H J ` l.z.z.h.` K J u = > Y O.O.} s X x.x.",
"x.x.o f 2.p.6.Y , % u b b $.g.k.k.g.$.b b u % > ~ O.p.2.f X x.x.",
"x.x.o f 2.f.p...t O % 6 B #.&.*.*.&.#.B 6 # O e O.a.f.2.f o x.x.",
"x.x.o w Q 1.3.Q 6 O = t C @.+.%.+.+.@.A t % + 6 Q 7.<.Q f o x.x.",
"x.x.x.x.w f f 6 & - z Y ^ W h 1 1 s T ^ Y z - * 6 f f f x.x.x.x.",
"x.x.x.x.o o o o o > c I I c : X o : c I I c > o o o X o x.x.x.x.",
"x.x.x.x.x.x.x.x.x.x.> ; ; ; x.x.x.x.; , > > x.x.x.x.x.x.x.x.x.x.",
"x.x.x.x.x.x.x.x.x.x.O O O O x.x.x.x.o o O o x.x.x.x.x.x.x.x.x.x."
};
