/* XPM */
static char *result[] = {
/* columns rows colors chars-per-pixel */
"32 32 209 2 ",
"   c #050B24",
".  c #050D26",
"X  c #060F28",
"o  c #0B1027",
"O  c #0B122A",
"+  c #0D1229",
"@  c #0C122A",
"#  c #0F142A",
"$  c #0E142B",
"%  c #0F142B",
"&  c #0F152B",
"*  c #0F152C",
"=  c #11152A",
"-  c #10142B",
";  c #10152B",
":  c #10162C",
">  c #11162C",
",  c #12162C",
"<  c #19172C",
"1  c #18172D",
"2  c #19182E",
"3  c #1A192F",
"4  c #1C192E",
"5  c #181E37",
"6  c #1B1F37",
"7  c #1A1F38",
"8  c #201C30",
"9  c #231E32",
"0  c #1E2033",
"q  c #1A2039",
"w  c #1C2038",
"e  c #1C2139",
"r  c #1D2139",
"t  c #2A2135",
"y  c #222239",
"u  c #332433",
"i  c #302434",
"p  c #322435",
"a  c #322636",
"s  c #352437",
"d  c #352636",
"f  c #392736",
"g  c #322839",
"h  c #3B2938",
"j  c #3B2B3A",
"k  c #3E2838",
"l  c #3F2A38",
"z  c #3C2B3A",
"x  c #3D2D3B",
"c  c #3F2C3A",
"v  c #3F2C3B",
"b  c #3F2F3D",
"n  c #402A39",
"m  c #452B39",
"M  c #472E3B",
"N  c #432F3F",
"B  c #4C303E",
"V  c #1B384E",
"C  c #242842",
"Z  c #292A40",
"A  c #2A2E4A",
"S  c #3C3642",
"D  c #3D3642",
"F  c #2C3352",
"G  c #2F3451",
"H  c #303551",
"J  c #303552",
"K  c #313552",
"L  c #333855",
"P  c #323A5C",
"I  c #333B5C",
"U  c #343D5D",
"Y  c #353D5D",
"T  c #363C5C",
"R  c #363C5D",
"E  c #373D5D",
"W  c #373E5D",
"Q  c #363E5F",
"!  c #383D5B",
"~  c #3E3F59",
"^  c #383E5D",
"/  c #393E5D",
"(  c #393E5E",
")  c #393F5E",
"_  c #3A3F5E",
"`  c #3A3F5F",
"'  c #4B3645",
"]  c #473943",
"[  c #423944",
"{  c #443A44",
"}  c #443A45",
"|  c #443C46",
" . c #463C46",
".. c #463D47",
"X. c #473D47",
"o. c #493C46",
"O. c #483D47",
"+. c #483E47",
"@. c #4A3E47",
"#. c #49394A",
"$. c #4A3B4B",
"%. c #523540",
"&. c #583540",
"*. c #583541",
"=. c #5F3742",
"-. c #483D52",
";. c #603941",
":. c #613843",
">. c #603944",
",. c #6A3B46",
"<. c #6B3C47",
"1. c #653B48",
"2. c #693C49",
"3. c #3D4358",
"4. c #3C4458",
"5. c #3B405F",
"6. c #3F405D",
"7. c #3B4060",
"8. c #3F4A63",
"9. c #4B414A",
"0. c #4C4149",
"q. c #4C424A",
"w. c #4D424A",
"e. c #4E434B",
"r. c #48404E",
"t. c #464354",
"y. c #414657",
"u. c #42425E",
"i. c #50455E",
"p. c #51475F",
"a. c #54475F",
"s. c #53485F",
"d. c #5A4858",
"f. c #5A4A5F",
"g. c #5B4A5F",
"h. c #5B4E5C",
"j. c #61484F",
"k. c #76474B",
"l. c #7A474A",
"z. c #79434D",
"x. c #7B424C",
"c. c #7C444E",
"v. c #7D494C",
"b. c #7E4B4E",
"n. c #6A4D5C",
"m. c #7C4E54",
"M. c #69535F",
"N. c #765C5C",
"B. c #5E5668",
"V. c #665E67",
"C. c #605B6E",
"Z. c #755B69",
"A. c #785E69",
"S. c #686069",
"D. c #6A6170",
"F. c #6B6270",
"G. c #83454F",
"H. c #865256",
"J. c #885256",
"K. c #8E585A",
"L. c #8E5A5C",
"P. c #9A5856",
"I. c #9B5957",
"U. c #9D5956",
"Y. c #9F5E5D",
"T. c #A65C58",
"R. c #9F645F",
"E. c #A0645F",
"W. c #805F66",
"Q. c #885961",
"!. c #895961",
"~. c #856066",
"^. c #836672",
"/. c #997970",
"(. c #9F7D72",
"). c #A46362",
"_. c #A46263",
"`. c #A76968",
"'. c #A27F73",
"]. c #A58074",
"[. c #A7857D",
"{. c #AE877C",
"}. c #AA897D",
"|. c #BD8A7A",
" X c #BF8B7B",
".X c #D28978",
"XX c #506981",
"oX c #497D92",
"OX c #607286",
"+X c #3C8398",
"@X c #5B8699",
"#X c #6194A5",
"$X c #9195A3",
"%X c #9D97A3",
"&X c #9B9AA5",
"*X c #A39AA4",
"=X c #CC9582",
"-X c #CF9783",
";X c #C39C87",
":X c #C99B87",
">X c #C49D88",
",X c #CA9D88",
"<X c #C89F88",
"1X c #E29681",
"2X c #D4AB96",
"3X c #FFBB9C",
"4X c #FBBC9C",
"5X c #FFC8A5",
"6X c None",
/* pixels */
"6X6X6X6X6X6X6X6X6X6X, , : > , , ; % % ; > , 6X6X6X6X6X6X6X6X6X6X",
"6X6X6X6X6X6X6X6X6X6Xw r r r r r r r r r r w 6X6X6X6X6X6X6X6X6X6X",
"6X6X6X6X6X6X6X6X= 6 A K K J J J J J J K K A 6 = 6X6X6X6X6X6X6X6X",
"6X6X6X6X6X6X6X6X6 C L 7.5.` ` ` ` ` ` 5.7.L C 6 6X6X6X6X6X6X6X6X",
"6X6X6X6X6X6X, w A L ! ` _ _ _ _ _ _ _ _ ` ! L A w , 6X6X6X6X6X6X",
"6X6X6X6X6X6X, r K 7._ / / _ _ _ _ _ _ / / _ 7.K r , 6X6X6X6X6X6X",
"6X6X6X6X6X6X, r J 5._ / / _ _ _ _ _ _ / / _ 5.J r , 6X6X6X6X6X6X",
"6X6X6X6X6X6X, e H ` _ _ _ _ _ _ _ _ _ _ _ _ ` H e , 6X6X6X6X6X6X",
"6X6X6X6X6X6X, e H ` _ _ _ _ _ _ _ _ _ _ _ _ ` H e , 6X6X6X6X6X6X",
"6X6X6X6X6X6X# 7 G ` _ _ _ _ _ _ _ _ _ _ _ _ ` G 7 # 6X6X6X6X6X6X",
"6X6X6X6X6X6X+ 5 G 5._ _ _ _ _ _ _ _ _ _ _ _ 5.G 5 + 6X6X6X6X6X6X",
"6X6X6X6X6X6XO.r.~ ( ( _ _ _ _ _ _ _ _ _ _ ( ( ~ r.O.6X6X6X6X6X6X",
"6X6X6X6X@ @.].[.B.R E _ _ _ _ _ _ _ _ _ _ E R B.[.].@.@ 6X6X6X6X",
"6X6X6X6X@ e.<X2XF.I T _ _ _ _ _ _ _ _ _ _ T I F.2X<Xe.@ 6X6X6X6X",
"6X6X6X6X@ e.<X2XD.P T _ _ _ _ _ _ _ _ _ _ T P D.2X<Xe.@ 6X6X6X6X",
"6X6X6X6X@ +.'.{.A.i.6.W W ^ / _ _ / ^ W W 6.i.A.{.'.+.@ 6X6X6X6X",
"6X6X6X6X6X6X| j.L.!.p.U Y W / _ _ / W Y U p.!.L.j.| 6X6X6X6X6X6X",
"6X6X6X6X6X6XX d l.J.n.f.g.a.u.) ) u.a.g.f.n.J.l.d X 6X6X6X6X6X6X",
"6X6X6X6X6X6X6X6Xu %.H._.).Q.s.Q Q s.Q.)._.H.%.u 6X6X6X6X6X6X6X6X",
"6X6X6X6X6X6X6X6X4.h.K.T.U.m.-.F F -.m.U.T.K.h.4.6X6X6X6X6X6X6X6X",
"6X6X6X6X6X6X  3.$X*XW.;.M g y q q y g M ;.W.*X$X3.  6X6X6X6X6X6X",
"6X6X6X6X6X6X{ V.&X%XM.m s t 9 8 8 9 t s m M.%X&XV.{ 6X6X6X6X6X6X",
"6X6X6X6X. } '.}.S.t.' *.2.1.B l l B 1.2.*.' t.S.}.'.} . 6X6X6X6X",
"6X6X6X6X[ N.-X X] < k >.z.c.<.:.:.<.c.z.>.k < ]  X-XN.[ 6X6X6X6X",
"6X6X@ ..(.=X.XE.x 4 n &.=.,.x.G.G.x.,.=.&.n 4 x E..X=X(...@ 6X6X",
"6X6X@ q.>X4X1XR.b 3 p N #.d.Z.^.^.Z.d.#.N p 3 b R.1X4X>Xq.@ 6X6X",
"6X6X@ 9.;X5X3X|.o.- 1 Z 8.XX@X#X#X@XXX8.Z 1 - o.|.3X5X;X9.@ 6X6X",
"6X6X@  .(.:X,X/.D 2 i $.C.OXoX+X+XoXOXC.$.i 2 D /.,X:X(. .@ 6X6X",
"6X6X6X6XX.0.w.S 0 a k.Y.`.~.y.V V y.~.`.Y.k.a 0 S w.0.X.6X6X6X6X",
"6X6X6X6X@ @ @ O $ j b.I.P.v.f o o f v.P.I.b.j $ O @ @ @ 6X6X6X6X",
"6X6X6X6X6X6X6X6X6X6Xz v c h 6X6X6X6Xh c v z 6X6X6X6X6X6X6X6X6X6X",
"6X6X6X6X6X6X6X6X6X6X* * * & 6X6X6X6X& * * * 6X6X6X6X6X6X6X6X6X6X"
};
