/* XPM */
static char *result[] = {
/* columns rows colors chars-per-pixel */
"32 32 205 2 ",
"   c #050D26",
".  c #060F28",
"X  c #0B1027",
"o  c #091029",
"O  c #0D1229",
"+  c #0C122A",
"@  c #0E132B",
"#  c #0F142A",
"$  c #0F152B",
"%  c #0E152C",
"&  c #0F152C",
"*  c #11152A",
"=  c #14152B",
"-  c #10152C",
";  c #11162C",
":  c #12162C",
">  c #14172D",
",  c #1A182C",
"<  c #1B182D",
"1  c #1A192E",
"2  c #1D1C30",
"3  c #181E37",
"4  c #1B1F37",
"5  c #1A1F38",
"6  c #201C30",
"7  c #231E32",
"8  c #1A2039",
"9  c #1C2038",
"0  c #1C2139",
"q  c #1D2139",
"w  c #212134",
"e  c #2B2032",
"r  c #2C2133",
"t  c #2A2135",
"y  c #222239",
"u  c #322435",
"i  c #322536",
"p  c #322637",
"a  c #352437",
"s  c #392736",
"d  c #322839",
"f  c #3B2938",
"g  c #3A2A39",
"h  c #3B2B39",
"j  c #3E2938",
"k  c #3F2938",
"l  c #3F2A38",
"z  c #3C2B3A",
"x  c #3F2C3A",
"c  c #3F2C3B",
"v  c #452B39",
"b  c #472E3B",
"n  c #432F3F",
"m  c #4C303E",
"M  c #1B384E",
"N  c #242842",
"B  c #292A40",
"V  c #2A2E4A",
"C  c #3D3642",
"Z  c #3E3743",
"A  c #2C3352",
"S  c #2F3451",
"D  c #303551",
"F  c #303552",
"G  c #313552",
"H  c #333855",
"J  c #323A5C",
"K  c #333B5C",
"L  c #343D5D",
"P  c #353D5D",
"I  c #363C5C",
"U  c #363C5D",
"Y  c #373D5D",
"T  c #373E5D",
"R  c #363E5F",
"E  c #383D5B",
"W  c #3E3F59",
"Q  c #383E5D",
"!  c #393E5D",
"~  c #393E5E",
"^  c #393F5E",
"/  c #3A3F5E",
"(  c #3A3F5F",
")  c #4B3745",
"_  c #453943",
"`  c #423944",
"'  c #433944",
"]  c #463C46",
"[  c #463D46",
"{  c #463D47",
"}  c #473D47",
"|  c #483D47",
" . c #483E47",
".. c #493E47",
"X. c #4A3E47",
"o. c #49394A",
"O. c #4A3B4B",
"+. c #533641",
"@. c #583540",
"#. c #583541",
"$. c #5F3742",
"%. c #483D52",
"&. c #603941",
"*. c #613843",
"=. c #603944",
"-. c #6A3B46",
";. c #6B3C47",
":. c #653B48",
">. c #693C49",
",. c #3B405F",
"<. c #3F405D",
"1. c #3B4060",
"2. c #3F4A63",
"3. c #4B414A",
"4. c #4C4149",
"5. c #4C424A",
"6. c #4D424A",
"7. c #4E434B",
"8. c #48404E",
"9. c #4A434F",
"0. c #464355",
"q. c #414657",
"w. c #444758",
"e. c #42425E",
"r. c #50455E",
"t. c #51475F",
"y. c #54475F",
"u. c #53485F",
"i. c #5A4858",
"p. c #5A4A5F",
"a. c #5B4A5F",
"s. c #5B4E5C",
"d. c #62494F",
"f. c #724348",
"g. c #76474B",
"h. c #79434D",
"j. c #7B424C",
"k. c #7C444E",
"l. c #7D494C",
"z. c #7D4B4E",
"x. c #6A4D5D",
"c. c #7C4E54",
"v. c #67515E",
"b. c #745A5A",
"n. c #5E5668",
"m. c #685862",
"M. c #605B6E",
"N. c #7E5D65",
"B. c #755B69",
"V. c #785F69",
"C. c #6A6170",
"Z. c #6B6270",
"A. c #83454F",
"S. c #875357",
"D. c #895356",
"F. c #8E595A",
"G. c #8E5A5C",
"H. c #9A5856",
"J. c #9B5957",
"K. c #9D5956",
"L. c #9F5E5D",
"P. c #A65C58",
"I. c #9E635E",
"U. c #885961",
"Y. c #895961",
"T. c #856066",
"R. c #836672",
"E. c #997970",
"W. c #9F7D72",
"Q. c #A46362",
"!. c #A46263",
"~. c #A76968",
"^. c #AE726C",
"/. c #A27E72",
"(. c #A48074",
"). c #A58074",
"_. c #A7857D",
"`. c #B0887D",
"'. c #BB8979",
"]. c #D18877",
"[. c #506981",
"{. c #497D92",
"}. c #607286",
"|. c #3C8398",
" X c #5B8699",
".X c #6194A5",
"XX c #9995A1",
"oX c #A098A3",
"OX c #B9B1B4",
"+X c #CB9380",
"@X c #CB9481",
"#X c #C39C87",
"$X c #C99B87",
"%X c #C49D88",
"&X c #CA9D88",
"*X c #C89F88",
"=X c #E29681",
"-X c #C6A497",
";X c #D4AB96",
":X c #FFBB9C",
">X c #FBBC9C",
",X c #C7B7B9",
"<X c #E9B5A1",
"1X c #FFC8A5",
"2X c None",
/* pixels */
"2X2X2X2X2X2X2X2X2X2X: : ; - - ; : : : : : : 2X2X2X2X2X2X2X2X2X2X",
"2X2X2X2X2X2X2X2X2X2X9 q q q q q q 0 0 q q 9 2X2X2X2X2X2X2X2X2X2X",
"2X2X2X2X2X2X2X2X* 4 V G G F F F F D D F F V 4 * 2X2X2X2X2X2X2X2X",
"2X2X2X2X2X2X2X2X4 N H 1.,.( ( ( ( ( ( ,.1.H N 4 2X2X2X2X2X2X2X2X",
"2X2X2X2X2X2X: 9 V H E ( / / / / / / / / ( E H V 9 : 2X2X2X2X2X2X",
"2X2X2X2X2X2X: q G 1./ ! ! / / / / / / ! ! / 1.G q : 2X2X2X2X2X2X",
"2X2X2X2X2X2X: q F ,./ ! ! / / / / / / ! ! / ,.F q : 2X2X2X2X2X2X",
"2X2X2X2X2X2X: 0 D ( / / / / / / / / / / / / ( D 0 : 2X2X2X2X2X2X",
"2X2X2X2X2X2X: 0 D ( / / / / / / / / / / / / ( D 0 : 2X2X2X2X2X2X",
"2X2X2X2X2X2X# 5 S ( / / / / / / / / / / / / ( S 5 # 2X2X2X2X2X2X",
"2X2X2X2X2X2XO 3 S ,./ / / / / / / / / / / / ,.S 3 O 2X2X2X2X2X2X",
"2X2X2X2X2X2X| 8.W ~ ~ / / / / / / / / / / ~ ~ W 8.| 2X2X2X2X2X2X",
"2X2X2X2X+ X.)._.n.U Y / / / / / / / / / / Y U n._.).X.+ 2X2X2X2X",
"2X2X2X2X+ 7.*X;XZ.K I / / / / / / / / / / I K Z.;X*X7.+ 2X2X2X2X",
"2X2X2X2X+ 7.*X;XC.J I / / / / / / / / / / I J C.;X*X7.+ 2X2X2X2X",
"2X2X2X2X+ ..(.`.V.r.<.T T Q ! / / ! Q T T <.r.V.`.(...+ 2X2X2X2X",
"2X2X2X2X2X2X[ d.G.Y.t.L P T ! / / ! T P L t.Y.G.d.[ 2X2X2X2X2X2X",
"2X2X2X2X2X2X. r f.D.x.p.a.y.e.^ ^ e.y.a.p.x.D.f.r . 2X2X2X2X2X2X",
"2X2X2X2X2X2Xo = e +.S.!.Q.U.u.R R u.U.Q.!.S.+.e = o 2X2X2X2X2X2X",
"2X2X2X2X2X2X .9.w.s.F.P.K.c.%.A A %.c.K.P.F.s.w.9. .2X2X2X2X2X2X",
"2X2X2X2X  ' /.-XOXoXN.&.b d y 8 8 y d b &.N.oXOX-X/.'   2X2X2X2X",
"2X2X2X2X` b.+X<X,XXXv.v a t 7 6 6 7 t a v v.XX,X<X+Xb.` 2X2X2X2X",
"2X2X+ { W.@X].^.m.0.) #.>.:.m l l m :.>.#.) 0.m.^.].@XW.{ + 2X2X",
"2X2X+ 5.%X>X=XI.h , j =.h.k.;.*.*.;.k.h.=.j , h I.=X>X%X5.+ 2X2X",
"2X2X+ 3.#X1X:X'._ < k @.$.-.j.A.A.j.-.$.@.k < _ '.:X1X#X3.+ 2X2X",
"2X2X+ ] W.$X&XE.C 1 u n o.i.B.R.R.B.i.o.n u 1 C E.&X$XW.] + 2X2X",
"2X2X2X2X} 4.6.Z w > 1 B 2.[. X.X.X X[.2.B 1 > w Z 6.4.} 2X2X2X2X",
"2X2X2X2X+ + + @ ; 2 i O.M.}.{.|.|.{.}.M.O.i 2 ; @ + + + 2X2X2X2X",
"2X2X2X2X2X2X2X2X& p g.L.~.T.q.M M q.T.~.L.g.p & 2X2X2X2X2X2X2X2X",
"2X2X2X2X2X2X2X2X% g z.J.H.l.s X X s l.H.J.z.g % 2X2X2X2X2X2X2X2X",
"2X2X2X2X2X2X2X2X2X2Xz c x f 2X2X2X2Xf x c z 2X2X2X2X2X2X2X2X2X2X",
"2X2X2X2X2X2X2X2X2X2X& & & $ 2X2X2X2X$ & & & 2X2X2X2X2X2X2X2X2X2X"
};
