/* XPM */
static char *result[] = {
/* columns rows colors chars-per-pixel */
"32 32 141 2 ",
"   c #060F28",
".  c #0C1027",
"X  c #0D132A",
"o  c #12162C",
"O  c #141A32",
"+  c #1A1F37",
"@  c #2C1F31",
"#  c #1D2139",
"$  c #2C283D",
"%  c #252439",
"&  c #352636",
"*  c #392636",
"=  c #3B2837",
"-  c #3C2B3A",
";  c #492E3D",
":  c #43323F",
">  c #55333F",
",  c #1F2644",
"<  c #1B2F46",
"1  c #1D344B",
"2  c #212641",
"3  c #242842",
"4  c #2B2C43",
"5  c #2A2E4A",
"6  c #262C49",
"7  c #3C2F40",
"8  c #393B4F",
"9  c #3E3645",
"0  c #2D3352",
"q  c #2A3D52",
"w  c #303552",
"e  c #343954",
"r  c #3D3E52",
"t  c #363C5C",
"y  c #3A3F5E",
"u  c #453B46",
"i  c #4A3E47",
"p  c #483F50",
"a  c #6D3C48",
"s  c #6D3E46",
"d  c #733C48",
"f  c #3B415E",
"g  c #3F4858",
"h  c #3D4256",
"j  c #3B4060",
"k  c #33697E",
"l  c #4C424A",
"z  c #5D454B",
"x  c #444253",
"c  c #41435B",
"v  c #464A5D",
"b  c #494959",
"n  c #584B56",
"m  c #54475E",
"M  c #524A5C",
"N  c #5C4C5A",
"B  c #62474E",
"V  c #724348",
"C  c #7B454B",
"Z  c #7D4A4E",
"A  c #6B5053",
"S  c #454662",
"D  c #544E61",
"F  c #575062",
"G  c #5D5669",
"H  c #685862",
"J  c #645B6D",
"K  c #6A5F6F",
"L  c #7E5A67",
"P  c #6B606F",
"I  c #7D6467",
"U  c #6B6271",
"Y  c #804E50",
"T  c #8A4E50",
"R  c #855152",
"E  c #9A5755",
"W  c #9B5957",
"Q  c #96645F",
"!  c #9F625F",
"~  c #846B6F",
"^  c #8B706F",
"/  c #8E797C",
"(  c #8D7479",
")  c #9E7C73",
"_  c #927B7D",
"`  c #A26661",
"'  c #A56A66",
"]  c #B2746C",
"[  c #A37F74",
"{  c #AC757E",
"}  c #A67472",
"|  c #C27A6E",
" . c #A6847E",
".. c #AD867C",
"X. c #BD8A7A",
"o. c #D38A79",
"O. c #E0947E",
"+. c #456F83",
"@. c #5F7E8B",
"#. c #49889B",
"$. c #5B8EA1",
"%. c #6096A5",
"&. c #649EB0",
"*. c #70B2C3",
"=. c #92828E",
"-. c #8B8D9C",
";. c #A88680",
":. c #AC8A84",
">. c #8D92A0",
",. c #9E95A1",
"<. c #93A6B4",
"1. c #B9AFB3",
"2. c #B2B4BF",
"3. c #C29084",
"4. c #C59A85",
"5. c #C99B87",
"6. c #CC9E8A",
"7. c #D29D8A",
"8. c #E69882",
"9. c #CFA08C",
"0. c #D7A78E",
"q. c #C2A195",
"w. c #D3A693",
"e. c #D9A792",
"r. c #D2A894",
"t. c #DDAC93",
"y. c #DDAE98",
"u. c #E3A88E",
"i. c #EBAC92",
"p. c #F1AF93",
"a. c #E1B198",
"s. c #F5BE9E",
"d. c #FDBA9A",
"f. c #C5B6B8",
"g. c #E8B4A1",
"h. c #F4BEA0",
"j. c #FCC4A1",
"k. c #B2B5C0",
"l. c #B3BDC8",
"z. c #D7C6CD",
"x. c None",
/* pixels */
"x.x.x.x.x.x.x.x.x.x.o o o o o o o o o o o X x.x.x.x.x.x.x.x.x.x.",
"x.x.x.x.x.x.x.x.x.x.# # # # # # # # # # % + x.x.x.x.x.x.x.x.x.x.",
"x.x.x.x.x.x.x.x.o + 5 w w w w 0 w w w w w 5 + o x.x.x.x.x.x.x.x.",
"x.x.x.x.x.x.x.x.+ 3 e j j j y j y j j j j e 3 + x.x.x.x.x.x.x.x.",
"x.x.x.x.x.x.o # 5 e t y y y y y y y y y y t e 5 # o x.x.x.x.x.x.",
"x.x.x.x.x.x.o # w j y y y t y y y y y y y y j w # o x.x.x.x.x.x.",
"x.x.x.x.x.x.o # w f y y t t y y y y y y t y f w # o x.x.x.x.x.x.",
"x.x.x.x.x.x.o # 0 t t S G G S y y y y y f y y w # o x.x.x.x.x.x.",
"x.x.x.x.x.x.o # 0 t t G :.:.J t y y y f y y y w # o x.x.x.x.x.x.",
"x.x.x.x.x.x.o $ M K K / y.r.K t t y y y f y y w # O x.x.x.x.x.x.",
"x.x.x.x.x.x.X u ) w.w.y.j.w.K t t y y y y y y w # o x.x.x.x.x.x.",
"x.x.x.x.x.x.X l 4.j.t.9.6. .G t t t t t y y y w # o x.x.x.x.x.x.",
"x.x.x.x.x.x.X l 4.t.^ N n b c y y t t t y y y w # o x.x.x.x.x.x.",
"x.x.x.x.x.x.X l 5.6.n 4 p m y S G K K G S j j 0 # o x.x.x.x.x.x.",
"x.x.x.x.x.x.X l 5.5.l 9 ) ;.G G :.e.e.:.G t j w # o x.x.x.x.x.x.",
"x.x.x.x.x.x.X i X.X.u i 5.r.J G 3.d.j.r.K t w 5 # o x.x.x.x.x.x.",
"x.x.x.x.x.x.X : ` ` = u 3.w.K p ' 7.d.w.U 0 3 # x.x.x.x.x.x.x.x.",
"x.x.x.x.x.x.o - C Y z I e.a._ ~ ] o.7.;.F 6 + X x.x.x.x.x.x.x.x.",
"x.x.x.x.x.x.x.x.& z [ t.s.h.e.e.i.7.( D 4 # x.x.x.x.x.x.x.x.x.x.",
"x.x.x.x.x.x.x.x.  u [ 5.4.7.i.p.u...m 2 O o x.x.x.x.x.x.x.x.x.x.",
"x.x.x.x.x.x.x.x.x.x.u l u A ] | Q B % O o o x.x.x.x.x.x.x.x.x.x.",
"x.x.x.x.x.x.x.x.x.x.h 8 $ ; T T > u p 8 % o x.x.x.x.x.x.x.x.x.x.",
"x.x.x.x.x.x.x.x.. c >.,.~ d s > @ r -.-.e o x.x.x.x.x.x.x.x.x.x.",
"x.x.x.x.x.x.x.x.. v 2.z.{ d > * & H f.1.b X x.x.x.x.x.x.x.x.x.x.",
"x.x.x.x.x.x.x.x.. b k.z.{ d * * V ] g.q.l X x.x.x.x.x.x.x.x.x.x.",
"x.x.x.x.x.x.x.x.. g <.l.=.N % - ` 8.d.4.l X x.x.x.x.x.x.x.x.x.x.",
"x.x.x.x.x.x.x.x.X q $.*.&.+.< u X.d.j.4.l X x.x.x.x.x.x.x.x.x.x.",
"x.x.x.x.x.x.x.x.o 1 k #.%.@.x B  .5.5.) u X x.x.x.x.x.x.x.x.x.x.",
"x.x.x.x.x.x.x.x.x.x.1 g ~ } ` R z l l u x.x.x.x.x.x.x.x.x.x.x.x.",
"x.x.x.x.x.x.x.x.x.x.. = C E W Z &   . . x.x.x.x.x.x.x.x.x.x.x.x.",
"x.x.x.x.x.x.x.x.x.x.x.x.= - - - x.x.x.x.x.x.x.x.x.x.x.x.x.x.x.x.",
"x.x.x.x.x.x.x.x.x.x.x.x.X o o X x.x.x.x.x.x.x.x.x.x.x.x.x.x.x.x."
};
