/* XPM */
static char *result[] = {
/* columns rows colors chars-per-pixel */
"32 32 134 2 ",
"   c #060F28",
".  c #0D122A",
"X  c #12162C",
"o  c #141A32",
"O  c #1B1E36",
"+  c #251C2F",
"@  c #1C2139",
"#  c #202134",
"$  c #2B293D",
"%  c #342435",
"&  c #3B2736",
"*  c #3B2837",
"=  c #322B3D",
"-  c #3B2B3A",
";  c #432A39",
":  c #4B2E3B",
">  c #43323F",
",  c #58323F",
"<  c #1F2644",
"1  c #1D344B",
"2  c #212641",
"3  c #242842",
"4  c #2B2C43",
"5  c #262C49",
"6  c #2A2E4A",
"7  c #2E384C",
"8  c #233449",
"9  c #3D3543",
"0  c #2D3352",
"q  c #2B3E53",
"w  c #303552",
"e  c #343954",
"r  c #3B3D51",
"t  c #363C5C",
"y  c #3A3F5E",
"u  c #453B46",
"i  c #4B3E47",
"p  c #493F48",
"a  c #513846",
"s  c #483F50",
"d  c #673643",
"f  c #3F4357",
"g  c #3B415E",
"h  c #3B4060",
"j  c #33697E",
"k  c #4D424A",
"l  c #5D454B",
"z  c #56454C",
"x  c #414153",
"c  c #41435B",
"v  c #414959",
"b  c #494959",
"n  c #584B56",
"m  c #54475E",
"M  c #524A5C",
"N  c #5B4C59",
"B  c #64484F",
"V  c #734247",
"C  c #754449",
"Z  c #78474B",
"A  c #7D484B",
"S  c #715154",
"D  c #454662",
"F  c #544E61",
"G  c #575062",
"H  c #5D5669",
"J  c #685862",
"K  c #645B6D",
"L  c #6A5F6F",
"P  c #705361",
"I  c #6B606F",
"U  c #7B6361",
"Y  c #6B6271",
"T  c #804E50",
"R  c #815958",
"E  c #815966",
"W  c #816266",
"Q  c #80656E",
"!  c #8B706F",
"~  c #98796F",
"^  c #876C70",
"/  c #8D7479",
"(  c #8F797D",
")  c #9E7C73",
"_  c #927B7D",
"`  c #A36661",
"'  c #A56962",
"]  c #A56B69",
"[  c #B2756E",
"{  c #A37F74",
"}  c #A6847E",
"|  c #AD867C",
" . c #BD8A7A",
".. c #D38A79",
"X. c #E0947E",
"o. c #4D7386",
"O. c #537888",
"+. c #49899C",
"@. c #5D91A3",
"#. c #6197A5",
"$. c #669FB1",
"%. c #73B4C5",
"&. c #8B8E9C",
"*. c #948490",
"=. c #A88680",
"-. c #AC8A84",
";. c #9093A1",
":. c #A295A1",
">. c #97AAB7",
",. c #B9AFB3",
"<. c #C29084",
"1. c #C59A85",
"2. c #C99B87",
"3. c #CB9E89",
"4. c #D49D8B",
"5. c #E69882",
"6. c #CFA08C",
"7. c #D6A48C",
"8. c #DCA48C",
"9. c #C2A195",
"0. c #D3A693",
"q. c #D2A894",
"w. c #DDAB93",
"e. c #DEAF98",
"r. c #EDAE93",
"t. c #E1B198",
"y. c #F5BE9E",
"u. c #FDBA9A",
"i. c #C5B6B8",
"p. c #E8B4A1",
"a. c #F5BFA0",
"s. c #FCC4A1",
"d. c #B7C1CC",
"f. c None",
/* pixels */
"f.f.f.f.f.f.f.f.f.f.f.f.f.f.f.f.f.f.f.f.f.f.f.f.f.f.f.f.f.f.f.f.",
"f.f.f.f.f.f.f.f.f.f.f.f.f.f.f.f.f.f.f.f.f.f.f.f.f.f.f.f.f.f.f.f.",
"f.f.f.f.f.f.f.f.f.f.X X X X X X X o X X X X f.f.f.f.f.f.f.f.f.f.",
"f.f.f.f.f.f.f.f.f.f.@ @ @ @ @ @ @ @ @ @ @ @ f.f.f.f.f.f.f.f.f.f.",
"f.f.f.f.f.f.f.f.X O 6 w w w 0 w w w w w w 6 O X f.f.f.f.f.f.f.f.",
"f.f.f.f.f.f.f.f.O 3 e h y h g y h y y g h w 3 O f.f.f.f.f.f.f.f.",
"f.f.f.f.f.f.X @ 6 w y y y y y y y y y y h y w 6 @ X f.f.f.f.f.f.",
"f.f.f.f.f.f.X @ w h y y y t y y y y y y y h h w @ X f.f.f.f.f.f.",
"f.f.f.f.f.f.X @ w h y t h t t h y y y y y y g w @ X f.f.f.f.f.f.",
"f.f.f.f.f.f.X @ 0 y t D H H D h y y y y y y h w @ X f.f.f.f.f.f.",
"f.f.f.f.f.f.. O 0 t t H -.-.H t y y y y y y y w @ X f.f.f.f.f.f.",
"f.f.f.f.f.f.X $ M L L ( e.q.Y t t y y y y y y w @ X f.f.f.f.f.f.",
"f.f.f.f.f.f.. u ) 0.0.t.s.q.Y t t y y y y y h w @ X f.f.f.f.f.f.",
"f.f.f.f.f.f.. k 1.s.w.4.3.=.H t t t t y y y y w @ X f.f.f.f.f.f.",
"f.f.f.f.f.f.. k 1.e.! n n M g t t t t t t y h w @ X f.f.f.f.f.f.",
"f.f.f.f.f.f.. k 1.3.n 4 s m s D K I L H D h h w @ X f.f.f.f.f.f.",
"f.f.f.f.f.f.. i 2.2.k 9 ) =.H G =.0.0.-.H t h w @ X f.f.f.f.f.f.",
"f.f.f.f.f.f.. i  . .u p 1.0.K K <.u.s.0.I t 0 6 @ X f.f.f.f.f.f.",
"f.f.f.f.f.f.. u ' ` - u 1.0.K F ] X.u.0.Y 0 2 O f.f.f.f.f.f.f.f.",
"f.f.f.f.f.f.. - Z T l U 0.e.( Q [ ..4.=.G 5 O X f.f.f.f.f.f.f.f.",
"f.f.f.f.f.f.f.f.% l { w.y.y.w.8.r.4./ F 4 O f.f.f.f.f.f.f.f.f.f.",
"f.f.f.f.f.f.f.f.  u { 2.2.2.7.8.8.| M < o X f.f.f.f.f.f.f.f.f.f.",
"f.f.f.f.f.f.f.f.f.f.u i i z S R R B $ o o o f.f.f.f.f.f.f.f.f.f.",
"f.f.f.f.f.f.f.f.f.f.x r = % ; : ; 9 x r # X f.f.f.f.f.f.f.f.f.f.",
"f.f.f.f.f.f.f.f.. v ;.:.E d , ; + f &.&.r . f.f.f.f.f.f.f.f.f.f.",
"f.f.f.f.f.f.f.f.. f >.d.*.P a & % J i.,.b . f.f.f.f.f.f.f.f.f.f.",
"f.f.f.f.f.f.f.f.X q @.%.$.o.7 & V [ p.9.k . f.f.f.f.f.f.f.f.f.f.",
"f.f.f.f.f.f.f.f.X 1 j +.#.O.8 - ` 5.u.1.k . f.f.f.f.f.f.f.f.f.f.",
"f.f.f.f.f.f.f.f.f.f.1 f ^ W = u  .u.s.1.k . f.f.f.f.f.f.f.f.f.f.",
"f.f.f.f.f.f.f.f.f.f.. * A C % 9 ~ 2.2.{ u . f.f.f.f.f.f.f.f.f.f.",
"f.f.f.f.f.f.f.f.f.f.f.f.* % O # 9 k k u f.f.f.f.f.f.f.f.f.f.f.f.",
"f.f.f.f.f.f.f.f.f.f.f.f.X X X X . . . . f.f.f.f.f.f.f.f.f.f.f.f."
};
