/* XPM */
static char *result[] = {
/* columns rows colors chars-per-pixel */
"32 32 144 2 ",
"   c #060F28",
".  c #0C1027",
"X  c #0D132A",
"o  c #12162C",
"O  c #14182E",
"+  c #1E1A2E",
"@  c #161C35",
"#  c #1B1E36",
"$  c #261E30",
"%  c #1D2139",
"&  c #202134",
"*  c #2B283D",
"=  c #342536",
"-  c #3B2736",
";  c #3D2837",
":  c #322D3F",
">  c #3B2B39",
",  c #412A39",
"<  c #4A2F3D",
"1  c #43323F",
"2  c #1D344B",
"3  c #212641",
"4  c #232843",
"5  c #2B2C43",
"6  c #2A2E4A",
"7  c #262C49",
"8  c #2D384B",
"9  c #233449",
"0  c #3E3643",
"q  c #393B4F",
"w  c #2D3352",
"e  c #2A3D52",
"r  c #303552",
"t  c #333855",
"y  c #393E51",
"u  c #363C5C",
"i  c #3A3F5E",
"p  c #453B46",
"a  c #493E47",
"s  c #413242",
"d  c #5C3641",
"f  c #503846",
"g  c #483F50",
"h  c #613742",
"j  c #663C44",
"k  c #6C3C47",
"l  c #3B415E",
"z  c #3D4256",
"x  c #3B4060",
"c  c #33697E",
"v  c #4D424B",
"b  c #5D454B",
"n  c #434254",
"m  c #41435B",
"M  c #444A5B",
"N  c #494959",
"B  c #584B56",
"V  c #54475E",
"C  c #534B5C",
"Z  c #5B4C59",
"A  c #63484F",
"S  c #774549",
"D  c #78474B",
"F  c #7F494B",
"G  c #734247",
"H  c #6C5053",
"J  c #454662",
"K  c #544E61",
"L  c #575062",
"P  c #5D5669",
"I  c #6E5360",
"U  c #685862",
"Y  c #645B6D",
"T  c #6A5F6F",
"R  c #7E5A67",
"E  c #6B606F",
"W  c #7D6467",
"Q  c #6B6271",
"!  c #81434D",
"~  c #864D4F",
"^  c #804E50",
"/  c #915252",
"(  c #95635F",
")  c #816266",
"_  c #8B706F",
"`  c #876C70",
"'  c #8E777B",
"]  c #9C7B72",
"[  c #927B7D",
"{  c #A36661",
"}  c #A56A66",
"|  c #B2746C",
" . c #A37F74",
".. c #AB757D",
"X. c #C27A6D",
"o. c #AA857E",
"O. c #BD8A7A",
"+. c #D38A79",
"@. c #E0947E",
"#. c #4B7386",
"$. c #537888",
"%. c #49899C",
"&. c #5B8EA1",
"*. c #6197A5",
"=. c #649EB0",
"-. c #70B2C3",
";. c #91828E",
":. c #898D9B",
">. c #8D909E",
",. c #A88680",
"<. c #AC8A84",
"1. c #8D92A0",
"2. c #9E95A1",
"3. c #93A6B4",
"4. c #B9AFB3",
"5. c #B2B4BF",
"6. c #C59A85",
"7. c #C99B87",
"8. c #CC9E89",
"9. c #C29084",
"0. c #D29D8A",
"q. c #E69882",
"w. c #CFA08C",
"e. c #D7A78E",
"r. c #C2A195",
"t. c #D3A693",
"y. c #D9A792",
"u. c #D2A894",
"i. c #DDAC93",
"p. c #DDAE98",
"a. c #E2A88E",
"s. c #EBAC92",
"d. c #F1AF92",
"f. c #E1B198",
"g. c #F5BE9E",
"h. c #FDBA9A",
"j. c #C5B6B8",
"k. c #E8B4A1",
"l. c #F4BEA0",
"z. c #FCC4A1",
"x. c #B2B5C0",
"c. c #B2BDC8",
"v. c #D7C5CD",
"b. c None",
/* pixels */
"b.b.b.b.b.b.b.b.b.b.o o o o O o o o o o o o b.b.b.b.b.b.b.b.b.b.",
"b.b.b.b.b.b.b.b.b.b.% % % % % % % % % % % & b.b.b.b.b.b.b.b.b.b.",
"b.b.b.b.b.b.b.b.o # 6 r r r r r r r r r r 6 # o b.b.b.b.b.b.b.b.",
"b.b.b.b.b.b.b.b.# 4 t x x i i i i x i i l t 4 # b.b.b.b.b.b.b.b.",
"b.b.b.b.b.b.o % 6 t i x l x i l i i i i i u t 6 # o b.b.b.b.b.b.",
"b.b.b.b.b.b.o % r x i u u u u i i i i i u x x r % O b.b.b.b.b.b.",
"b.b.b.b.b.b.o % r i i u u u u l i i i i i i x r % O b.b.b.b.b.b.",
"b.b.b.b.b.b.o % r u u m Y Y J u i i x i i i x r % o b.b.b.b.b.b.",
"b.b.b.b.b.b.O % w u u P <.<.Y u u l l x i x i r % o b.b.b.b.b.b.",
"b.b.b.b.b.b.o * N E Y [ p.u.E u u i i u i i i r % o b.b.b.b.b.b.",
"b.b.b.b.b.b.X s  .t.t.f.z.t.T u u x x l i i i r % o b.b.b.b.b.b.",
"b.b.b.b.b.b.X v 6.z.i.w.7.o.P u u u u u u x i r % O b.b.b.b.b.b.",
"b.b.b.b.b.b.X v 6.i._ Z B C m i u u u u u x i r % o b.b.b.b.b.b.",
"b.b.b.b.b.b.X v 7.8.B 5 g C i J Y T T P J i i r % o b.b.b.b.b.b.",
"b.b.b.b.b.b.X v 7.8.v 0 ] ,.P P <.y.y.<.P u i r % o b.b.b.b.b.b.",
"b.b.b.b.b.b.X a O.O.s g 6.t.Y P 9.h.z.t.T u t 6 % o b.b.b.b.b.b.",
"b.b.b.b.b.b.X 1 { { ; p 6.t.Y K } 0.h.t.E w 4 % b.b.b.b.b.b.b.b.",
"b.b.b.b.b.b.X > D ~ b W y.f.' W | +.0.,.L 7 # X b.b.b.b.b.b.b.b.",
"b.b.b.b.b.b.b.b.= b  .y.g.l.i.y.d.0.' V 5 % b.b.b.b.b.b.b.b.b.b.",
"b.b.b.b.b.b.b.b.  p  .7.6.0.s.d.a.o.L 4 @ o b.b.b.b.b.b.b.b.b.b.",
"b.b.b.b.b.b.b.b.b.b.a v a H | X.( A : @ O o b.b.b.b.b.b.b.b.b.b.",
"b.b.b.b.b.b.b.b.b.b.z q * < ~ / j ; + o o O b.b.b.b.b.b.b.b.b.b.",
"b.b.b.b.b.b.b.b.X z >.2.R k k j d , + X o O b.b.b.b.b.b.b.b.b.b.",
"b.b.b.b.b.b.b.b.X M 5.v...! d < , s g t % O b.b.b.b.b.b.b.b.b.b.",
"b.b.b.b.b.b.b.b.X M 5.v...! h , $ n >.:.y X b.b.b.b.b.b.b.b.b.b.",
"b.b.b.b.b.b.b.b.o z 3.c.;.H f > = U j.4.N X b.b.b.b.b.b.b.b.b.b.",
"b.b.b.b.b.b.b.b.X 8 &.-.=.#.e > G | k.r.v X b.b.b.b.b.b.b.b.b.b.",
"b.b.b.b.b.b.b.b.X 2 c %.*.$.9 , { q.h.6.v X b.b.b.b.b.b.b.b.b.b.",
"b.b.b.b.b.b.b.b.b.b.2 M _ W : v O.h.z.6.v X b.b.b.b.b.b.b.b.b.b.",
"b.b.b.b.b.b.b.b.b.b.. > F D = > ] 8.7.o.a X b.b.b.b.b.b.b.b.b.b.",
"b.b.b.b.b.b.b.b.b.b.b.b.> = + % s v v p b.b.b.b.b.b.b.b.b.b.b.b.",
"b.b.b.b.b.b.b.b.b.b.b.b.X o o o o X X X b.b.b.b.b.b.b.b.b.b.b.b."
};
