/* XPM */
static char *result[] = {
/* columns rows colors chars-per-pixel */
"16 16 128 2 ",
"   c #0F162C",
".  c #0E162D",
"X  c #10162D",
"o  c #12172D",
"O  c #2D1C2F",
"+  c #2F1D2F",
"@  c #331D2D",
"#  c #351D2E",
"$  c #341E2F",
"%  c #351E2F",
"&  c #371E2E",
"*  c #371E2F",
"=  c #381E2E",
"-  c #271A30",
";  c #291A30",
":  c #291A31",
">  c #2B1A30",
",  c #2B1A31",
"<  c #2D1B31",
"1  c #2E1B31",
"2  c #371C33",
"3  c #391C33",
"4  c #3A1D33",
"5  c #462230",
"6  c #462033",
"7  c #482330",
"8  c #512136",
"9  c #512037",
"0  c #522036",
"q  c #542136",
"w  c #552137",
"e  c #562137",
"r  c #582335",
"t  c #522833",
"y  c #5C2238",
"u  c #5C2239",
"i  c #6C282F",
"p  c #662831",
"a  c #692A32",
"s  c #6E2A32",
"d  c #6F2B32",
"f  c #69243A",
"g  c #6B243B",
"h  c #6C243B",
"j  c #6E243B",
"k  c #6F253B",
"l  c #782D32",
"z  c #7A273B",
"x  c #7F293A",
"c  c #862E35",
"v  c #8B2E31",
"b  c #8E2F31",
"n  c #81293B",
"m  c #8A2A3D",
"M  c #8B2A3D",
"N  c #8B2A3E",
"B  c #893033",
"V  c #8E3133",
"C  c #903032",
"Z  c #923132",
"A  c #953137",
"S  c #9C3333",
"D  c #9D3D3B",
"F  c #AA3339",
"G  c #B03935",
"H  c #B33935",
"J  c #B0333D",
"K  c #B3333E",
"L  c #B4333F",
"P  c #B1343E",
"I  c #B8363C",
"U  c #CE3E37",
"Y  c #CF3F37",
"T  c #C6373F",
"R  c #CC393F",
"E  c #CE3A3F",
"W  c #D63E35",
"Q  c #D73E36",
"!  c #D03C3C",
"~  c #D23C3E",
"^  c #D83F3B",
"/  c #CD4038",
"(  c #D54038",
")  c #DC4139",
"_  c #DF423A",
"`  c #D9443A",
"'  c #DD4B3E",
"]  c #E24337",
"[  c #E84537",
"{  c #E94537",
"}  c #EA4436",
"|  c #EA4537",
" . c #ED4437",
".. c #E14239",
"X. c #E0423A",
"o. c #E44339",
"O. c #E74438",
"+. c #E84538",
"@. c #E94538",
"#. c #E0493D",
"$. c #E34A3D",
"%. c #E94C3E",
"&. c #9B2B41",
"*. c #A42E41",
"=. c #A82F42",
"-. c #AB2F42",
";. c #AA2E43",
":. c #AC2F43",
">. c #C43543",
",. c #CA3840",
"<. c #914140",
"1. c #D64B40",
"2. c #DC4C40",
"3. c #D4594C",
"4. c #EF5545",
"5. c #EA5949",
"6. c #ED5A4A",
"7. c #EC5E4D",
"8. c #C86759",
"9. c #FB6653",
"0. c #F6705C",
"q. c #F37963",
"w. c #F87A64",
"e. c #F27E69",
"r. c #EA8972",
"t. c #F68C73",
"y. c #F89B80",
"u. c None",
/* pixels */
"u.u.. . . . . u.u.          u.u.",
"u.u.$ * = & @ u.u.; < 1 < > u.u.",
". $ a B Z v i # : 9 f k f 0 >   ",
". * B / $.1.D t 6 z *.:.&.f <   ",
". = C #.9.q.8.<.c F T >.;.j 1   ",
". = b 2.w.y.r.3.U Q ^ ,.=.g <   ",
". = C ' 0.t.e.6.| } ..E -.h 1   ",
". = V ` 4.7.5.%.+.[ _ R =.g <   ",
". % l G Y ] @.O.o.X.! J m y ,   ",
"u.u.5 p S W  .{ X.~ K x 8 2 u.u.",
"u.u.o + d H ( ) ! L N w - o u.u.",
"u.u.u.u.7 s A I P n e 2 u.u.u.u.",
"u.u.u.u.u.O r M m q - u.u.u.u.u.",
"u.u.u.u.u.X 3 u y 4 o u.u.u.u.u.",
"u.u.u.u.u.u.u., , u.u.u.u.u.u.u.",
"u.u.u.u.u.u.u.    u.u.u.u.u.u.u."
};
