/* XPM */
static char *result[] = {
/* columns rows colors chars-per-pixel */
"30 30 125 2 ",
"   c #161122",
".  c #161123",
"X  c #161222",
"o  c #161223",
"O  c #171223",
"+  c #161323",
"@  c #1F1E35",
"#  c #1F1F35",
"$  c #1F1F36",
"%  c #201F35",
"&  c #201F36",
"*  c #202037",
"=  c #212038",
"-  c #232239",
";  c #24233A",
":  c #27263D",
">  c #27263E",
",  c #28263D",
"<  c #29273E",
"1  c #28273F",
"2  c #29283F",
"3  c #2A2941",
"4  c #2B2941",
"5  c #2B2A41",
"6  c #2B2A42",
"7  c #282A47",
"8  c #292B47",
"9  c #2E2D44",
"0  c #2D304F",
"q  c #363449",
"w  c #3A384C",
"e  c #2D3150",
"r  c #33385C",
"t  c #34395C",
"y  c #343A5D",
"u  c #3E3F5A",
"i  c #363C61",
"p  c #363D62",
"a  c #373D62",
"s  c #3F405B",
"d  c #3B4063",
"f  c #3C456E",
"g  c #3E4771",
"h  c #3F4771",
"j  c #3E4772",
"k  c #3F4871",
"l  c #3E4872",
"z  c #3F4872",
"x  c #3F4873",
"c  c #3F4973",
"v  c #434564",
"b  c #444665",
"n  c #404873",
"m  c #404973",
"M  c #494D70",
"N  c #494E71",
"B  c #454E78",
"V  c #464F79",
"C  c #48517B",
"Z  c #49517B",
"A  c #49527C",
"S  c #4A537D",
"D  c #505478",
"F  c #515578",
"G  c #525579",
"H  c #515679",
"J  c #5C5F7F",
"K  c #535B85",
"L  c #545C85",
"P  c #555C85",
"I  c #545C86",
"U  c #555D87",
"Y  c #5B638D",
"T  c #5C638E",
"R  c #5C648E",
"E  c #5D658F",
"W  c #5D6590",
"Q  c #626688",
"!  c #626689",
"~  c #71738E",
"^  c #666D97",
"/  c #666D98",
"(  c #676E98",
")  c #686E99",
"_  c #686F99",
"`  c #686F9A",
"'  c #6A7198",
"]  c #6B7299",
"[  c #69709A",
"{  c #7B7D95",
"}  c #7C7D95",
"|  c #7C7E96",
" . c #767CA2",
".. c #767DA2",
"X. c #777DA3",
"o. c #777DA4",
"O. c #787EA5",
"+. c #8287A7",
"@. c #8287A8",
"#. c #8287AA",
"$. c #8287AB",
"%. c #8288AB",
"&. c #848AAB",
"*. c #858AAC",
"=. c #868BAD",
"-. c #9297B6",
";. c #9398B6",
":. c #9599B9",
">. c #959AB9",
",. c #979CB9",
"<. c #989CBA",
"1. c #989CBB",
"2. c #989DBB",
"3. c #9FA3BF",
"4. c #A0A4C0",
"5. c #A1A5C0",
"6. c #A1A5C1",
"7. c #A2A6C0",
"8. c #A2A6C1",
"9. c #A3A6C1",
"0. c #A3A7C1",
"q. c #A2A6C2",
"w. c #A3A7C2",
"e. c #A4A8C3",
"r. c None",
/* pixels */
"r.r.r.r.r.r.r.r.o o . . .         . . . o o r.r.r.r.r.r.r.r.",
"r.r.r.r.r.r.r.r.: 9 q w w w w w w w w q 9 : r.r.r.r.r.r.r.r.",
"r.r.r.r.r.r.o < b J ~ { | } } } } | { ~ J b < o r.r.r.r.r.r.",
"r.r.r.r.r.r., u Q %.1.8.w.8.8.8.8.w.8.1.%.Q u , r.r.r.r.r.r.",
"r.r.r.r.o , v Q +.2.6.e.e.e.e.e.e.e.e.6.2.+.Q v , o r.r.r.r.",
"r.r.r.r., u Q $.<.8.9.5.5.8.8.8.8.5.5.9.8.<.$.Q u , r.r.r.r.",
"r.r.o , v Q @.<.4.8.8.5.5.8.w.w.8.5.5.8.8.4.<.@.Q v , o r.r.",
"r.r.2 s ! %.<.8.8.5.5.8.8.8.w.w.8.8.8.5.5.8.8.<.%.! s 2 r.r.",
"X , b Q @.<.4.8.8.5.5.8.w.w.w.w.w.w.8.5.5.8.8.4.<.@.Q b , X ",
"o 4 G o.:.0.w.5.5.8.8.8.w.w.w.w.w.w.8.8.8.5.5.w.0.:.o.G 4 o ",
"o 3 H O.>.0.w.5.5.8.8.8.w.w.w.w.w.w.8.8.8.5.5.w.0.>.O.H 3 o ",
"o > M ' =.,.3.8.8.5.5.8.w.w.w.w.w.w.8.5.5.8.8.3.,.=.' M > o ",
"O - d P ] $.,.8.8.5.5.8.8.w.w.w.w.8.8.5.5.8.8.,.$.] P d - O ",
"+ * t B U ' *.,.3.8.8.5.5.8.w.w.8.5.5.8.8.3.,.*.' U B t * + ",
"+ * r m V K ' #.,.8.8.7.6.8.q.q.8.6.7.8.8.,.#.' K V m r * + ",
"+ = t g x B I ' *.,.3.0.w.w.w.w.w.w.0.3.,.*.' I B x g t = + ",
"+ = t j z m B L ' %.,.8.0.8.8.8.8.0.8.,.%.' L B m z j t = + ",
"+ = t z x g g B I ' &.-.;.-.-.-.-.;.-.&.' I B g g x z t = + ",
"+ = t z x g g n B L '  .X. ..... .X. .' L B n g g x z t = + ",
"o = y x c h h g g Z T / ( ^ ^ ^ ^ ( / T Z g g h h c x y = o ",
"o = t z x h k g g C Y ^ / ^ ^ ^ ^ / ^ Y C g g k h x z t = o ",
"o @ e a f x x g g A R ( ( ( ( ( ( ( ( R A g g x x f a e @ o ",
"r.r.& 8 p z x g g A R ( ( ( _ _ ( ( ( R A g g x z p 8 & r.r.",
"r.r.o & 0 a f l z A R ( ( ( _ _ ( ( ( R A z l f a 0 & o r.r.",
"r.r.r.r.% 8 a g x A R ( ( ( ( ( ( ( ( R A x g a 8 % r.r.r.r.",
"r.r.r.r.o % 0 i f S W ` [ ` ` ` ` [ ` W S f i 0 % o r.r.r.r.",
"r.r.r.r.r.r.# 7 p A E ( ) ( ( ( ( ) ( E A p 7 # r.r.r.r.r.r.",
"r.r.r.r.r.r.o $ e d N F F D D D D F F N d e $ o r.r.r.r.r.r.",
"r.r.r.r.r.r.r.r.% ; 1 5 6 5 5 5 5 6 5 1 ; % r.r.r.r.r.r.r.r.",
"r.r.r.r.r.r.r.r.O o o o o o o o o o o o o O r.r.r.r.r.r.r.r."
};
