/* XPM */
static char *result[] = {
/* columns rows colors chars-per-pixel */
"32 32 133 2 ",
"   c #0D142B",
".  c #0F142A",
"X  c #0F152B",
"o  c #0E142C",
"O  c #0F152C",
"+  c #11152B",
"@  c #12162B",
"#  c #10152C",
"$  c #11152D",
"%  c #11162C",
"&  c #11162D",
"*  c #12162C",
"=  c #12162D",
"-  c #12172D",
";  c #13172D",
":  c #18182F",
">  c #241D31",
",  c #271F34",
"<  c #292035",
"1  c #2B2134",
"2  c #312337",
"3  c #3A2A39",
"4  c #3B2A39",
"5  c #3E2C3A",
"6  c #3F2C3A",
"7  c #3E2C3B",
"8  c #3F2C3B",
"9  c #3F2D3B",
"0  c #4B2F3D",
"q  c #43313B",
"w  c #4C323E",
"e  c #49393C",
"r  c #4B393D",
"t  c #4B3B3D",
"y  c #4F3E3E",
"u  c #513E3E",
"i  c #513F3E",
"p  c #333850",
"a  c #353B52",
"s  c #373B53",
"d  c #543343",
"f  c #5F3745",
"g  c #4D3F53",
"h  c #623945",
"j  c #613C44",
"k  c #6F3E4C",
"l  c #3C4056",
"z  c #3D4258",
"x  c #43465A",
"c  c #44485B",
"v  c #6E4147",
"b  c #694A46",
"n  c #74464B",
"m  c #764654",
"M  c #7F4650",
"N  c #8C4B55",
"B  c #8F4A54",
"V  c #8D4B56",
"C  c #8D4C56",
"Z  c #8E4C56",
"A  c #8F4D57",
"S  c #8E5253",
"D  c #8E5353",
"F  c #8F5353",
"G  c #8F5454",
"H  c #905453",
"J  c #915454",
"K  c #945655",
"L  c #955D55",
"P  c #9C5956",
"I  c #985259",
"U  c #995259",
"Y  c #9C5559",
"T  c #9C555A",
"R  c #9D555A",
"E  c #A05A58",
"W  c #A5595C",
"Q  c #A95C5D",
"!  c #9E6256",
"~  c #9A6D53",
"^  c #AF615E",
"/  c #B0615E",
"(  c #B1625E",
")  c #B1625F",
"_  c #B3635F",
"`  c #B0685E",
"'  c #B3785B",
"]  c #8B5B69",
"[  c #B66460",
"{  c #B76560",
"}  c #B76660",
"|  c #BA6760",
" . c #BB6861",
".. c #A4727B",
"X. c #D07D65",
"o. c #D17D66",
"O. c #D27D66",
"+. c #D37E66",
"@. c #BF845D",
"#. c #BF855D",
"$. c #C0855E",
"%. c #C0865E",
"&. c #C1865E",
"*. c #CA8A61",
"=. c #D58067",
"-. c #DB9166",
";. c #E4956A",
":. c #EE9C6C",
">. c #EE9D6C",
",. c #EF9D6C",
"<. c #F09D6C",
"1. c #F39F6D",
"2. c #656A83",
"3. c #7B7F99",
"4. c #817389",
"5. c #AB8894",
"6. c #878BA0",
"7. c #888CA2",
"8. c #9B9EAD",
"9. c #9EA0B0",
"0. c #B1A6B9",
"q. c #A1A5C0",
"w. c #A2A6C2",
"e. c #A4A8C3",
"r. c #B3B7CD",
"t. c #B5B9CF",
"y. c #C9B8C1",
"u. c #CFC3CD",
"i. c #D0CDD9",
"p. c #CED1DE",
"a. c #CFD1DE",
"s. c #D2D4E0",
"d. c None",
/* pixels */
"d.d.d.d.d.d.d.d.d.d.d.d.; ; - & & - ; ; d.d.d.d.d.d.d.d.d.d.d.d.",
"d.d.d.d.d.d.d.d.d.d.d.d.o : , 2 2 , : o d.d.d.d.d.d.d.d.d.d.d.d.",
"d.d.& $ $ & & & & & & O % < d k k d < % O & & & & & & $ $ & d.d.",
"d.d.t i i u u u u u u y i b L ` ` L b i y u u u u u u i i t d.d.",
"# e ~ $.&.@.@.@.@.@.@.#.%.*.-.;.;.-.*.%.#.@.@.@.@.@.@.&.$.~ e # ",
"# r ' <.1.,.,.,.,.,.,.,.,.,.:.>.>.:.,.,.,.,.,.,.,.,.,.1.<.' r # ",
"% q ! +.=.O.O.o.o.o.o.O.O.o.X.X.X.X.o.O.O.o.o.o.o.O.O.=.+.! q % ",
"& 5 D | [ ^ ^ / / / / / / / / / / / / / / / / / / ^ ^ [ | D 5 & ",
"& 5 S _ W U I U U U U U U U U U U U U U U U U U U I U W _ S 5 & ",
"& 6 F ( R C V Z Z Z Z Z Z Z Z Z Z Z Z Z Z Z Z Z Z V C R ( F 6 & ",
"& 6 F ( T V N V V V V V V V V V V V V V V V V V V N V T ( F 6 & ",
"& 5 D ( R Z V Z Z Z Z Z Z Z Z Z Z Z Z Z Z Z Z Z Z V Z R ( D 5 & ",
"& 5 D ( R Z V Z A A A A A A A A A A A A A A A A Z V Z R ( D 5 & ",
"& 5 D ( R Z V Z A A A A A A A A A A A A A A A A Z V Z R ( D 5 & ",
"& 5 D ( R Z V Z A A A A A A A A A A A A A A A A Z V Z R ( D 5 & ",
"& 5 D ( R Z V Z A A A A A A A A A A A A A A A A Z V Z R ( D 5 & ",
"& 5 D ( R Z V Z Z Z Z Z Z Z Z Z Z Z Z Z Z Z Z Z Z V Z R ( D 5 & ",
"& 6 F ( T V N V V V V V V V V V V V V V V V V V V N V T ( F 6 & ",
"& 6 F ( R C V Z Z Z Z Z Z Z Z Z Z Z Z Z Z Z Z Z Z V C R ( F 6 & ",
"& 8 J } Q R T R R R R R R R T Y Y T R R R R R R R T R Q } J 8 & ",
"& 7 G  .{ ( ( ( ( ( ( ( ( ) ) ) ) ) ) ( ( ( ( ( ( ( ( {  .G 7 & ",
"& 3 n F H D D D D D D F F K P E E P K F F D D D D D D H F n 3 & ",
"d.d.4 8 9 9 9 9 9 9 9 6 9 w j v v j w 9 6 9 9 9 9 9 9 9 8 4 d.d.",
"d.d.= = = = = = = = = X . > 0 h h 0 > . X = = = = = = = = = d.d.",
"d.d.d.d.d.d.d.d.d.d.d.d.  1 f M M f 1   d.d.d.d.d.d.d.d.d.d.d.d.",
"d.d.d.d.d.d.d.d.d.d.d.d.p g m B B m g p d.d.d.d.d.d.d.d.d.d.d.d.",
"d.d.d.d.d.d.d.d.d.d.+ a 2.4.] B B ] 4.2.a + d.d.d.d.d.d.d.d.d.d.",
"d.d.d.d.d.d.d.d.d.d.* z 7.0.5.....5.0.7.z * d.d.d.d.d.d.d.d.d.d.",
"d.d.d.d.d.d.d.d.d.d.* c 9.i.u.y.y.u.i.9.c * d.d.d.d.d.d.d.d.d.d.",
"d.d.d.d.d.d.d.d.d.d.@ x 8.a.s.p.p.s.a.8.x @ d.d.d.d.d.d.d.d.d.d.",
"d.d.d.d.d.d.d.d.d.d.@ l 6.r.t.r.r.t.r.6.l @ d.d.d.d.d.d.d.d.d.d.",
"d.d.d.d.d.d.d.d.d.d.@ s 3.w.e.q.q.e.w.3.s @ d.d.d.d.d.d.d.d.d.d."
};
